{"glyphs":{"0":{"ha":961,"x_min":-28,"x_max":916,"o":"m 534 641 l 320 641 l 320 427 l 534 427 l 534 641 m 320 214 l 214 214 l 214 854 l 320 854 l 320 961 l 534 961 l 534 854 l 641 854 l 641 214 l 534 214 l 534 106 l 320 106 l 320 214 m 641 106 l 747 106 l 747 214 l 854 214 l 854 854 l 747 854 l 747 961 l 641 961 l 641 1068 l 214 1068 l 214 961 l 106 961 l 106 854 l 0 854 l 0 214 l 106 214 l 106 106 l 214 106 l 214 0 l 641 0 l 641 106 m 348 241 l 348 240 l 381 207 l 381 134 l 506 134 l 506 241 l 613 241 l 613 793 l 541 793 l 507 827 l 506 827 l 506 900 l 381 900 l 381 793 l 275 793 l 275 241 l 348 241 m 562 669 l 562 667 l 595 634 l 595 366 l 327 366 l 294 399 l 292 399 l 292 669 l 562 669 m 882 881 l 916 848 l 916 153 l 808 153 l 808 45 l 702 45 l 702 -61 l 220 -61 l 187 -28 l 186 -28 l 186 45 l 113 45 l 80 79 l 79 79 l 79 153 l 7 153 l -26 186 l -28 186 l -28 882 l 79 882 l 79 989 l 186 989 l 186 1096 l 669 1096 l 669 1095 l 702 1061 l 702 989 l 775 989 l 775 987 l 808 954 l 808 882 l 882 882 l 882 881 z "},"1":{"ha":961,"x_min":79,"x_max":808,"o":"m 747 106 l 534 106 l 534 1068 l 320 1068 l 320 961 l 214 961 l 214 854 l 106 854 l 106 747 l 320 747 l 320 106 l 106 106 l 106 0 l 747 0 l 747 106 m 775 133 l 808 100 l 808 -61 l 113 -61 l 80 -28 l 79 -28 l 79 134 l 292 134 l 292 686 l 113 686 l 80 720 l 79 720 l 79 882 l 186 882 l 186 989 l 292 989 l 292 1096 l 562 1096 l 562 1095 l 595 1061 l 595 134 l 775 134 l 775 133 z "},"2":{"ha":961,"x_min":-28,"x_max":808,"o":"m 747 214 l 534 214 l 534 106 l 214 106 l 214 320 l 320 320 l 320 427 l 427 427 l 427 534 l 534 534 l 534 641 l 641 641 l 641 747 l 747 747 l 747 961 l 641 961 l 641 1068 l 106 1068 l 106 961 l 0 961 l 0 854 l 214 854 l 214 961 l 534 961 l 534 747 l 427 747 l 427 641 l 320 641 l 320 534 l 214 534 l 214 427 l 106 427 l 106 320 l 0 320 l 0 0 l 747 0 l 747 214 m 775 240 l 808 207 l 808 -61 l 7 -61 l -26 -28 l -28 -28 l -28 348 l 79 348 l 79 455 l 186 455 l 186 562 l 292 562 l 292 669 l 399 669 l 399 775 l 506 775 l 506 900 l 275 900 l 275 793 l 7 793 l -26 827 l -28 827 l -28 989 l 79 989 l 79 1096 l 669 1096 l 669 1095 l 702 1061 l 702 989 l 775 989 l 775 987 l 808 954 l 808 686 l 702 686 l 702 580 l 595 580 l 595 473 l 488 473 l 488 366 l 381 366 l 381 259 l 275 259 l 275 134 l 506 134 l 506 241 l 775 241 l 775 240 z "},"3":{"ha":961,"x_min":-28,"x_max":808,"o":"m 641 106 l 747 106 l 747 534 l 641 534 l 641 641 l 747 641 l 747 961 l 641 961 l 641 1068 l 106 1068 l 106 961 l 0 961 l 0 854 l 214 854 l 214 961 l 534 961 l 534 641 l 214 641 l 214 534 l 534 534 l 534 106 l 214 106 l 214 214 l 0 214 l 0 106 l 106 106 l 106 0 l 641 0 l 641 106 m 775 560 l 808 527 l 808 45 l 702 45 l 702 -61 l 113 -61 l 80 -28 l 79 -28 l 79 45 l 7 45 l -26 79 l -28 79 l -28 241 l 241 241 l 241 240 l 275 207 l 275 134 l 506 134 l 506 473 l 220 473 l 187 506 l 186 506 l 186 669 l 506 669 l 506 900 l 275 900 l 275 793 l 7 793 l -26 827 l -28 827 l -28 989 l 79 989 l 79 1096 l 669 1096 l 669 1095 l 702 1061 l 702 989 l 775 989 l 775 987 l 808 954 l 808 580 l 702 580 l 702 562 l 775 562 l 775 560 z "},"4":{"ha":961,"x_min":-28,"x_max":808,"o":"m 214 641 l 320 641 l 320 747 l 427 747 l 427 534 l 214 534 l 214 641 m 747 106 l 641 106 l 641 427 l 747 427 l 747 534 l 641 534 l 641 1068 l 427 1068 l 427 961 l 320 961 l 320 854 l 214 854 l 214 747 l 106 747 l 106 641 l 0 641 l 0 427 l 427 427 l 427 106 l 320 106 l 320 0 l 747 0 l 747 106 m 399 686 l 381 686 l 381 580 l 275 580 l 275 562 l 399 562 l 399 686 m 775 134 l 775 133 l 808 100 l 808 -61 l 327 -61 l 294 -28 l 292 -28 l 292 134 l 399 134 l 399 366 l 7 366 l -26 399 l -28 399 l -28 669 l 79 669 l 79 775 l 186 775 l 186 882 l 292 882 l 292 989 l 399 989 l 399 1096 l 669 1096 l 669 1095 l 702 1061 l 702 562 l 775 562 l 775 560 l 808 527 l 808 366 l 702 366 l 702 134 l 775 134 z "},"5":{"ha":961,"x_min":-28,"x_max":808,"o":"m 641 106 l 747 106 l 747 534 l 641 534 l 641 641 l 214 641 l 214 961 l 747 961 l 747 1068 l 0 1068 l 0 534 l 534 534 l 534 106 l 214 106 l 214 214 l 0 214 l 0 106 l 106 106 l 106 0 l 641 0 l 641 106 m 775 560 l 808 527 l 808 45 l 702 45 l 702 -61 l 113 -61 l 80 -28 l 79 -28 l 79 45 l 7 45 l -26 79 l -28 79 l -28 241 l 241 241 l 241 240 l 275 207 l 275 134 l 506 134 l 506 473 l 7 473 l -26 506 l -28 506 l -28 1096 l 775 1096 l 775 1095 l 808 1061 l 808 900 l 275 900 l 275 669 l 669 669 l 669 667 l 702 634 l 702 562 l 775 562 l 775 560 z "},"6":{"ha":961,"x_min":-28,"x_max":808,"o":"m 214 534 l 534 534 l 534 106 l 214 106 l 214 534 m 641 106 l 747 106 l 747 534 l 641 534 l 641 641 l 214 641 l 214 854 l 320 854 l 320 961 l 534 961 l 534 1068 l 214 1068 l 214 961 l 106 961 l 106 854 l 0 854 l 0 106 l 106 106 l 106 0 l 641 0 l 641 106 m 506 473 l 275 473 l 275 134 l 506 134 l 506 473 m 775 560 l 808 527 l 808 45 l 702 45 l 702 -61 l 113 -61 l 80 -28 l 79 -28 l 79 45 l 7 45 l -26 79 l -28 79 l -28 882 l 79 882 l 79 989 l 186 989 l 186 1096 l 562 1096 l 562 1095 l 595 1061 l 595 900 l 381 900 l 381 793 l 275 793 l 275 669 l 669 669 l 669 667 l 702 634 l 702 562 l 775 562 l 775 560 z "},"7":{"ha":961,"x_min":-28,"x_max":808,"o":"m 427 427 l 534 427 l 534 534 l 641 534 l 641 641 l 747 641 l 747 1068 l 0 1068 l 0 854 l 214 854 l 214 961 l 534 961 l 534 641 l 427 641 l 427 534 l 320 534 l 320 427 l 214 427 l 214 0 l 427 0 l 427 427 m 775 1095 l 808 1061 l 808 580 l 702 580 l 702 473 l 595 473 l 595 366 l 488 366 l 488 -61 l 220 -61 l 187 -28 l 186 -28 l 186 455 l 292 455 l 292 562 l 399 562 l 399 669 l 506 669 l 506 900 l 275 900 l 275 793 l 7 793 l -26 827 l -28 827 l -28 1096 l 775 1096 l 775 1095 z "},"8":{"ha":961,"x_min":-28,"x_max":808,"o":"m 214 534 l 534 534 l 534 106 l 214 106 l 214 534 m 214 961 l 534 961 l 534 641 l 214 641 l 214 961 m 641 106 l 747 106 l 747 534 l 641 534 l 641 641 l 747 641 l 747 961 l 641 961 l 641 1068 l 106 1068 l 106 961 l 0 961 l 0 641 l 106 641 l 106 534 l 0 534 l 0 106 l 106 106 l 106 0 l 641 0 l 641 106 m 506 473 l 275 473 l 275 134 l 506 134 l 506 473 m 506 900 l 275 900 l 275 669 l 506 669 l 506 900 m 775 560 l 808 527 l 808 45 l 702 45 l 702 -61 l 113 -61 l 80 -28 l 79 -28 l 79 45 l 7 45 l -26 79 l -28 79 l -28 562 l 79 562 l 79 580 l 7 580 l -26 613 l -28 613 l -28 989 l 79 989 l 79 1096 l 669 1096 l 669 1095 l 702 1061 l 702 989 l 775 989 l 775 987 l 808 954 l 808 580 l 702 580 l 702 562 l 775 562 l 775 560 z "},"9":{"ha":961,"x_min":-28,"x_max":808,"o":"m 214 961 l 534 961 l 534 641 l 214 641 l 214 961 m 534 106 l 641 106 l 641 214 l 747 214 l 747 961 l 641 961 l 641 1068 l 106 1068 l 106 961 l 0 961 l 0 641 l 106 641 l 106 534 l 534 534 l 534 214 l 427 214 l 427 106 l 106 106 l 106 0 l 534 0 l 534 106 m 506 900 l 275 900 l 275 669 l 506 669 l 506 900 m 775 987 l 808 954 l 808 153 l 702 153 l 702 45 l 595 45 l 595 -61 l 113 -61 l 80 -28 l 79 -28 l 79 134 l 399 134 l 399 241 l 506 241 l 506 473 l 113 473 l 80 506 l 79 506 l 79 580 l 7 580 l -26 613 l -28 613 l -28 989 l 79 989 l 79 1096 l 669 1096 l 669 1095 l 702 1061 l 702 989 l 775 989 l 775 987 z "},"\u0000":{"ha":0,"x_min":0,"x_max":0,"o":""},"\r":{"ha":347,"x_min":0,"x_max":0,"o":""}," ":{"ha":374,"x_min":0,"x_max":0,"o":""},"!":{"ha":961,"x_min":186,"x_max":702,"o":"m 534 214 l 320 214 l 320 0 l 534 0 l 534 214 m 534 641 l 641 641 l 641 961 l 534 961 l 534 1068 l 320 1068 l 320 961 l 214 961 l 214 641 l 320 641 l 320 320 l 534 320 l 534 641 m 562 240 l 595 207 l 595 -61 l 327 -61 l 294 -28 l 292 -28 l 292 241 l 562 241 l 562 240 m 669 987 l 702 954 l 702 580 l 595 580 l 595 259 l 327 259 l 294 292 l 292 292 l 292 580 l 220 580 l 187 613 l 186 613 l 186 989 l 292 989 l 292 1096 l 562 1096 l 562 1095 l 595 1061 l 595 989 l 669 989 l 669 987 z "},"\"":{"ha":961,"x_min":79,"x_max":808,"o":"m 320 1175 l 106 1175 l 106 854 l 214 854 l 214 747 l 320 747 l 320 1175 m 641 854 l 747 854 l 747 1175 l 534 1175 l 534 747 l 641 747 l 641 854 m 348 1201 l 381 1168 l 381 686 l 220 686 l 187 720 l 186 720 l 186 793 l 113 793 l 80 827 l 79 827 l 79 1202 l 348 1202 l 348 1201 m 775 1201 l 808 1168 l 808 793 l 702 793 l 702 686 l 541 686 l 507 720 l 506 720 l 506 1202 l 775 1202 l 775 1201 z "},"#":{"ha":961,"x_min":-28,"x_max":808,"o":"m 320 641 l 427 641 l 427 320 l 320 320 l 320 641 m 320 214 l 427 214 l 427 0 l 641 0 l 641 214 l 747 214 l 747 320 l 641 320 l 641 641 l 747 641 l 747 747 l 641 747 l 641 961 l 427 961 l 427 747 l 320 747 l 320 961 l 106 961 l 106 747 l 0 747 l 0 641 l 106 641 l 106 320 l 0 320 l 0 214 l 106 214 l 106 0 l 320 0 l 320 214 m 399 580 l 381 580 l 381 348 l 399 348 l 399 580 m 399 153 l 381 153 l 381 -61 l 113 -61 l 80 -28 l 79 -28 l 79 153 l 7 153 l -26 186 l -28 186 l -28 348 l 79 348 l 79 580 l 7 580 l -26 613 l -28 613 l -28 775 l 79 775 l 79 989 l 348 989 l 348 987 l 381 954 l 381 775 l 399 775 l 399 989 l 669 989 l 669 987 l 702 954 l 702 775 l 775 775 l 775 774 l 808 741 l 808 580 l 702 580 l 702 348 l 775 348 l 775 347 l 808 313 l 808 153 l 702 153 l 702 -61 l 434 -61 l 401 -28 l 399 -28 l 399 153 z "},"$":{"ha":961,"x_min":-28,"x_max":808,"o":"m 534 0 l 641 0 l 641 106 l 747 106 l 747 534 l 641 534 l 641 641 l 214 641 l 214 961 l 534 961 l 534 854 l 641 854 l 641 747 l 747 747 l 747 961 l 641 961 l 641 1068 l 534 1068 l 534 1282 l 320 1282 l 320 1068 l 106 1068 l 106 961 l 0 961 l 0 641 l 106 641 l 106 534 l 534 534 l 534 106 l 214 106 l 214 214 l 106 214 l 106 320 l 0 320 l 0 106 l 106 106 l 106 0 l 320 0 l 320 -214 l 534 -214 l 534 0 m 775 560 l 808 527 l 808 45 l 702 45 l 702 -61 l 595 -61 l 595 -275 l 327 -275 l 294 -241 l 292 -241 l 292 -61 l 113 -61 l 80 -28 l 79 -28 l 79 45 l 7 45 l -26 79 l -28 79 l -28 348 l 134 348 l 134 347 l 168 313 l 168 241 l 241 241 l 241 240 l 275 207 l 275 134 l 506 134 l 506 473 l 113 473 l 80 506 l 79 506 l 79 580 l 7 580 l -26 613 l -28 613 l -28 989 l 79 989 l 79 1096 l 292 1096 l 292 1310 l 562 1310 l 562 1308 l 595 1275 l 595 1096 l 669 1096 l 669 1095 l 702 1061 l 702 989 l 775 989 l 775 987 l 808 954 l 808 686 l 648 686 l 614 720 l 613 720 l 613 793 l 541 793 l 507 827 l 506 827 l 506 900 l 275 900 l 275 669 l 669 669 l 669 667 l 702 634 l 702 562 l 775 562 l 775 560 z "},"%":{"ha":961,"x_min":-28,"x_max":808,"o":"m 747 214 l 534 214 l 534 0 l 747 0 l 747 214 m 214 854 l 0 854 l 0 641 l 214 641 l 214 854 m 106 106 l 214 106 l 214 214 l 320 214 l 320 320 l 427 320 l 427 427 l 534 427 l 534 534 l 641 534 l 641 641 l 747 641 l 747 854 l 641 854 l 641 747 l 534 747 l 534 641 l 427 641 l 427 534 l 320 534 l 320 427 l 214 427 l 214 320 l 106 320 l 106 214 l 0 214 l 0 0 l 106 0 l 106 106 m 775 240 l 808 207 l 808 -61 l 541 -61 l 507 -28 l 506 -28 l 506 241 l 775 241 l 775 240 m 775 881 l 808 848 l 808 580 l 702 580 l 702 473 l 595 473 l 595 366 l 488 366 l 488 259 l 381 259 l 381 153 l 275 153 l 275 45 l 168 45 l 168 -61 l 7 -61 l -26 -28 l -28 -28 l -28 241 l 79 241 l 79 348 l 186 348 l 186 455 l 292 455 l 292 562 l 399 562 l 399 669 l 506 669 l 506 775 l 613 775 l 613 882 l 775 882 l 775 881 m 241 881 l 275 848 l 275 580 l 7 580 l -26 613 l -28 613 l -28 882 l 241 882 l 241 881 z "},"&":{"ha":961,"x_min":-28,"x_max":808,"o":"m 214 534 l 320 534 l 320 427 l 427 427 l 427 106 l 214 106 l 214 534 m 427 534 l 427 641 l 534 641 l 534 534 l 427 534 m 320 961 l 427 961 l 427 747 l 320 747 l 320 961 m 427 106 l 534 106 l 534 0 l 747 0 l 747 106 l 641 106 l 641 534 l 747 534 l 747 641 l 534 641 l 534 747 l 641 747 l 641 961 l 534 961 l 534 1068 l 214 1068 l 214 961 l 106 961 l 106 747 l 214 747 l 214 641 l 106 641 l 106 534 l 0 534 l 0 106 l 106 106 l 106 0 l 427 0 l 427 106 m 292 473 l 275 473 l 275 134 l 399 134 l 399 366 l 327 366 l 294 399 l 292 399 l 292 473 m 506 580 l 488 580 l 488 562 l 506 562 l 506 580 m 399 900 l 381 900 l 381 775 l 399 775 l 399 900 m 506 45 l 488 45 l 488 -61 l 113 -61 l 80 -28 l 79 -28 l 79 45 l 7 45 l -26 79 l -28 79 l -28 562 l 79 562 l 79 669 l 186 669 l 186 686 l 113 686 l 80 720 l 79 720 l 79 989 l 186 989 l 186 1096 l 562 1096 l 562 1095 l 595 1061 l 595 989 l 669 989 l 669 987 l 702 954 l 702 686 l 595 686 l 595 669 l 775 669 l 775 667 l 808 634 l 808 473 l 702 473 l 702 134 l 775 134 l 775 133 l 808 100 l 808 -61 l 541 -61 l 507 -28 l 506 -28 l 506 45 z "},"'":{"ha":961,"x_min":79,"x_max":488,"o":"m 320 854 l 427 854 l 427 1175 l 214 1175 l 214 854 l 106 854 l 106 747 l 320 747 l 320 854 m 455 1201 l 488 1168 l 488 793 l 381 793 l 381 686 l 113 686 l 80 720 l 79 720 l 79 882 l 186 882 l 186 1202 l 455 1202 l 455 1201 z "},"(":{"ha":961,"x_min":186,"x_max":702,"o":"m 641 106 l 534 106 l 534 214 l 427 214 l 427 854 l 534 854 l 534 961 l 641 961 l 641 1068 l 427 1068 l 427 961 l 320 961 l 320 854 l 214 854 l 214 214 l 320 214 l 320 106 l 427 106 l 427 0 l 641 0 l 641 106 m 669 133 l 702 100 l 702 -61 l 434 -61 l 401 -28 l 399 -28 l 399 45 l 327 45 l 294 79 l 292 79 l 292 153 l 220 153 l 187 186 l 186 186 l 186 882 l 292 882 l 292 989 l 399 989 l 399 1096 l 669 1096 l 669 1095 l 702 1061 l 702 900 l 595 900 l 595 793 l 488 793 l 488 241 l 562 241 l 562 240 l 595 207 l 595 134 l 669 134 l 669 133 z "},")":{"ha":961,"x_min":186,"x_max":702,"o":"m 427 106 l 534 106 l 534 214 l 641 214 l 641 854 l 534 854 l 534 961 l 427 961 l 427 1068 l 214 1068 l 214 961 l 320 961 l 320 854 l 427 854 l 427 214 l 320 214 l 320 106 l 214 106 l 214 0 l 427 0 l 427 106 m 669 881 l 702 848 l 702 153 l 595 153 l 595 45 l 488 45 l 488 -61 l 220 -61 l 187 -28 l 186 -28 l 186 134 l 292 134 l 292 241 l 399 241 l 399 793 l 327 793 l 294 827 l 292 827 l 292 900 l 220 900 l 187 933 l 186 933 l 186 1096 l 455 1096 l 455 1095 l 488 1061 l 488 989 l 562 989 l 562 987 l 595 954 l 595 882 l 669 882 l 669 881 z "},"*":{"ha":961,"x_min":-28,"x_max":916,"o":"m 320 320 l 534 320 l 534 214 l 747 214 l 747 320 l 641 320 l 641 427 l 854 427 l 854 534 l 641 534 l 641 641 l 747 641 l 747 747 l 534 747 l 534 641 l 320 641 l 320 747 l 106 747 l 106 641 l 214 641 l 214 534 l 0 534 l 0 427 l 214 427 l 214 320 l 106 320 l 106 214 l 320 214 l 320 320 m 506 259 l 381 259 l 381 153 l 113 153 l 80 186 l 79 186 l 79 348 l 186 348 l 186 366 l 7 366 l -26 399 l -28 399 l -28 562 l 186 562 l 186 580 l 113 580 l 80 613 l 79 613 l 79 775 l 348 775 l 348 774 l 381 741 l 381 669 l 506 669 l 506 775 l 775 775 l 775 774 l 808 741 l 808 580 l 702 580 l 702 562 l 882 562 l 882 560 l 916 527 l 916 366 l 702 366 l 702 348 l 775 348 l 775 347 l 808 313 l 808 153 l 541 153 l 507 186 l 506 186 l 506 259 z "},"+":{"ha":961,"x_min":79,"x_max":808,"o":"m 534 427 l 747 427 l 747 534 l 534 534 l 534 747 l 320 747 l 320 534 l 106 534 l 106 427 l 320 427 l 320 214 l 534 214 l 534 427 m 775 560 l 808 527 l 808 366 l 595 366 l 595 153 l 327 153 l 294 186 l 292 186 l 292 366 l 113 366 l 80 399 l 79 399 l 79 562 l 292 562 l 292 775 l 562 775 l 562 774 l 595 741 l 595 562 l 775 562 l 775 560 z "},",":{"ha":961,"x_min":186,"x_max":595,"o":"m 427 0 l 534 0 l 534 320 l 320 320 l 320 0 l 214 0 l 214 -106 l 427 -106 l 427 0 m 562 347 l 595 313 l 595 -61 l 488 -61 l 488 -168 l 220 -168 l 187 -134 l 186 -134 l 186 28 l 292 28 l 292 348 l 562 348 l 562 347 z "},"-":{"ha":961,"x_min":-28,"x_max":808,"o":"m 747 534 l 0 534 l 0 427 l 747 427 l 747 534 m 775 560 l 808 527 l 808 366 l 7 366 l -26 399 l -28 399 l -28 562 l 775 562 l 775 560 z "},".":{"ha":961,"x_min":292,"x_max":595,"o":"m 534 214 l 320 214 l 320 0 l 534 0 l 534 214 m 562 240 l 595 207 l 595 -61 l 327 -61 l 294 -28 l 292 -28 l 292 241 l 562 241 l 562 240 z "},"/":{"ha":961,"x_min":-28,"x_max":808,"o":"m 106 106 l 214 106 l 214 214 l 320 214 l 320 320 l 427 320 l 427 427 l 534 427 l 534 534 l 641 534 l 641 641 l 747 641 l 747 854 l 641 854 l 641 747 l 534 747 l 534 641 l 427 641 l 427 534 l 320 534 l 320 427 l 214 427 l 214 320 l 106 320 l 106 214 l 0 214 l 0 0 l 106 0 l 106 106 m 775 881 l 808 848 l 808 580 l 702 580 l 702 473 l 595 473 l 595 366 l 488 366 l 488 259 l 381 259 l 381 153 l 275 153 l 275 45 l 168 45 l 168 -61 l 7 -61 l -26 -28 l -28 -28 l -28 241 l 79 241 l 79 348 l 186 348 l 186 455 l 292 455 l 292 562 l 399 562 l 399 669 l 506 669 l 506 775 l 613 775 l 613 882 l 775 882 l 775 881 z "},":":{"ha":961,"x_min":292,"x_max":595,"o":"m 534 320 l 320 320 l 320 106 l 534 106 l 534 320 m 534 854 l 320 854 l 320 641 l 534 641 l 534 854 m 562 347 l 595 313 l 595 45 l 327 45 l 294 79 l 292 79 l 292 348 l 562 348 l 562 347 m 562 881 l 595 848 l 595 580 l 327 580 l 294 613 l 292 613 l 292 882 l 562 882 l 562 881 z "},";":{"ha":961,"x_min":186,"x_max":595,"o":"m 427 106 l 534 106 l 534 320 l 320 320 l 320 106 l 214 106 l 214 0 l 427 0 l 427 106 m 534 854 l 320 854 l 320 641 l 534 641 l 534 854 m 562 347 l 595 313 l 595 45 l 488 45 l 488 -61 l 220 -61 l 187 -28 l 186 -28 l 186 134 l 292 134 l 292 348 l 562 348 l 562 347 m 562 881 l 595 848 l 595 580 l 327 580 l 294 613 l 292 613 l 292 882 l 562 882 l 562 881 z "},"<":{"ha":961,"x_min":79,"x_max":808,"o":"m 747 106 l 641 106 l 641 214 l 534 214 l 534 320 l 427 320 l 427 427 l 320 427 l 320 534 l 427 534 l 427 641 l 534 641 l 534 747 l 641 747 l 641 854 l 747 854 l 747 961 l 534 961 l 534 854 l 427 854 l 427 747 l 320 747 l 320 641 l 214 641 l 214 534 l 106 534 l 106 427 l 214 427 l 214 320 l 320 320 l 320 214 l 427 214 l 427 106 l 534 106 l 534 0 l 747 0 l 747 106 m 775 133 l 808 100 l 808 -61 l 541 -61 l 507 -28 l 506 -28 l 506 45 l 434 45 l 401 79 l 399 79 l 399 153 l 327 153 l 294 186 l 292 186 l 292 259 l 220 259 l 187 292 l 186 292 l 186 366 l 113 366 l 80 399 l 79 399 l 79 562 l 186 562 l 186 669 l 292 669 l 292 775 l 399 775 l 399 882 l 506 882 l 506 989 l 775 989 l 775 987 l 808 954 l 808 793 l 702 793 l 702 686 l 595 686 l 595 580 l 488 580 l 488 473 l 381 473 l 381 455 l 455 455 l 455 454 l 488 420 l 488 348 l 562 348 l 562 347 l 595 313 l 595 241 l 669 241 l 669 240 l 702 207 l 702 134 l 775 134 l 775 133 z "},"=":{"ha":961,"x_min":79,"x_max":808,"o":"m 747 427 l 106 427 l 106 320 l 747 320 l 747 427 m 747 747 l 106 747 l 106 641 l 747 641 l 747 747 m 775 454 l 808 420 l 808 259 l 113 259 l 80 292 l 79 292 l 79 455 l 775 455 l 775 454 m 775 774 l 808 741 l 808 580 l 113 580 l 80 613 l 79 613 l 79 775 l 775 775 l 775 774 z "},">":{"ha":961,"x_min":79,"x_max":808,"o":"m 320 106 l 427 106 l 427 214 l 534 214 l 534 320 l 641 320 l 641 427 l 747 427 l 747 534 l 641 534 l 641 641 l 534 641 l 534 747 l 427 747 l 427 854 l 320 854 l 320 961 l 106 961 l 106 854 l 214 854 l 214 747 l 320 747 l 320 641 l 427 641 l 427 534 l 534 534 l 534 427 l 427 427 l 427 320 l 320 320 l 320 214 l 214 214 l 214 106 l 106 106 l 106 0 l 320 0 l 320 106 m 775 560 l 808 527 l 808 366 l 702 366 l 702 259 l 595 259 l 595 153 l 488 153 l 488 45 l 381 45 l 381 -61 l 113 -61 l 80 -28 l 79 -28 l 79 134 l 186 134 l 186 241 l 292 241 l 292 348 l 399 348 l 399 455 l 506 455 l 506 473 l 434 473 l 401 506 l 399 506 l 399 580 l 327 580 l 294 613 l 292 613 l 292 686 l 220 686 l 187 720 l 186 720 l 186 793 l 113 793 l 80 827 l 79 827 l 79 989 l 348 989 l 348 987 l 381 954 l 381 882 l 455 882 l 455 881 l 488 848 l 488 775 l 562 775 l 562 774 l 595 741 l 595 669 l 669 669 l 669 667 l 702 634 l 702 562 l 775 562 l 775 560 z "},"?":{"ha":961,"x_min":-28,"x_max":808,"o":"m 534 214 l 320 214 l 320 0 l 534 0 l 534 214 m 534 641 l 641 641 l 641 747 l 747 747 l 747 961 l 641 961 l 641 1068 l 106 1068 l 106 961 l 0 961 l 0 747 l 214 747 l 214 961 l 534 961 l 534 747 l 427 747 l 427 641 l 320 641 l 320 320 l 534 320 l 534 641 m 562 240 l 595 207 l 595 -61 l 327 -61 l 294 -28 l 292 -28 l 292 241 l 562 241 l 562 240 m 775 987 l 808 954 l 808 686 l 702 686 l 702 580 l 595 580 l 595 259 l 327 259 l 294 292 l 292 292 l 292 669 l 399 669 l 399 775 l 506 775 l 506 900 l 275 900 l 275 686 l 7 686 l -26 720 l -28 720 l -28 989 l 79 989 l 79 1096 l 669 1096 l 669 1095 l 702 1061 l 702 989 l 775 989 l 775 987 z "},"@":{"ha":961,"x_min":-28,"x_max":808,"o":"m 641 106 l 214 106 l 214 854 l 534 854 l 534 641 l 320 641 l 320 214 l 641 214 l 641 320 l 747 320 l 747 854 l 641 854 l 641 961 l 106 961 l 106 854 l 0 854 l 0 106 l 106 106 l 106 0 l 641 0 l 641 106 m 669 133 l 702 100 l 702 -61 l 113 -61 l 80 -28 l 79 -28 l 79 45 l 7 45 l -26 79 l -28 79 l -28 882 l 79 882 l 79 989 l 669 989 l 669 987 l 702 954 l 702 882 l 775 882 l 775 881 l 808 848 l 808 259 l 702 259 l 702 153 l 327 153 l 294 186 l 292 186 l 292 669 l 506 669 l 506 793 l 275 793 l 275 134 l 669 134 l 669 133 z "},"A":{"ha":961,"x_min":-28,"x_max":808,"o":"m 214 747 l 320 747 l 320 854 l 427 854 l 427 747 l 534 747 l 534 534 l 214 534 l 214 747 m 214 427 l 534 427 l 534 0 l 747 0 l 747 747 l 641 747 l 641 854 l 534 854 l 534 961 l 427 961 l 427 1068 l 320 1068 l 320 961 l 214 961 l 214 854 l 106 854 l 106 747 l 0 747 l 0 0 l 214 0 l 214 427 m 399 793 l 381 793 l 381 686 l 275 686 l 275 562 l 506 562 l 506 686 l 434 686 l 401 720 l 399 720 l 399 793 m 506 366 l 275 366 l 275 -61 l 7 -61 l -26 -28 l -28 -28 l -28 775 l 79 775 l 79 882 l 186 882 l 186 989 l 292 989 l 292 1096 l 455 1096 l 455 1095 l 488 1061 l 488 989 l 562 989 l 562 987 l 595 954 l 595 882 l 669 882 l 669 881 l 702 848 l 702 775 l 775 775 l 775 774 l 808 741 l 808 -61 l 541 -61 l 507 -28 l 506 -28 l 506 366 z "},"B":{"ha":961,"x_min":-28,"x_max":808,"o":"m 320 534 l 534 534 l 534 106 l 320 106 l 320 534 m 320 961 l 534 961 l 534 641 l 320 641 l 320 961 m 641 106 l 747 106 l 747 534 l 641 534 l 641 641 l 747 641 l 747 961 l 641 961 l 641 1068 l 0 1068 l 0 961 l 106 961 l 106 106 l 0 106 l 0 0 l 641 0 l 641 106 m 506 473 l 381 473 l 381 134 l 506 134 l 506 473 m 506 900 l 381 900 l 381 669 l 506 669 l 506 900 m 775 560 l 808 527 l 808 45 l 702 45 l 702 -61 l 7 -61 l -26 -28 l -28 -28 l -28 134 l 79 134 l 79 900 l 7 900 l -26 933 l -28 933 l -28 1096 l 669 1096 l 669 1095 l 702 1061 l 702 989 l 775 989 l 775 987 l 808 954 l 808 580 l 702 580 l 702 562 l 775 562 l 775 560 z "},"C":{"ha":961,"x_min":-28,"x_max":808,"o":"m 641 106 l 747 106 l 747 320 l 641 320 l 641 214 l 534 214 l 534 106 l 320 106 l 320 214 l 214 214 l 214 854 l 320 854 l 320 961 l 534 961 l 534 854 l 641 854 l 641 747 l 747 747 l 747 961 l 641 961 l 641 1068 l 214 1068 l 214 961 l 106 961 l 106 854 l 0 854 l 0 214 l 106 214 l 106 106 l 214 106 l 214 0 l 641 0 l 641 106 m 775 347 l 808 313 l 808 45 l 702 45 l 702 -61 l 220 -61 l 187 -28 l 186 -28 l 186 45 l 113 45 l 80 79 l 79 79 l 79 153 l 7 153 l -26 186 l -28 186 l -28 882 l 79 882 l 79 989 l 186 989 l 186 1096 l 669 1096 l 669 1095 l 702 1061 l 702 989 l 775 989 l 775 987 l 808 954 l 808 686 l 648 686 l 614 720 l 613 720 l 613 793 l 541 793 l 507 827 l 506 827 l 506 900 l 381 900 l 381 793 l 275 793 l 275 241 l 348 241 l 348 240 l 381 207 l 381 134 l 506 134 l 506 241 l 613 241 l 613 348 l 775 348 l 775 347 z "},"D":{"ha":961,"x_min":-28,"x_max":808,"o":"m 320 961 l 427 961 l 427 854 l 534 854 l 534 214 l 427 214 l 427 106 l 320 106 l 320 961 m 534 106 l 641 106 l 641 214 l 747 214 l 747 854 l 641 854 l 641 961 l 534 961 l 534 1068 l 0 1068 l 0 961 l 106 961 l 106 106 l 0 106 l 0 0 l 534 0 l 534 106 m 399 900 l 381 900 l 381 134 l 399 134 l 399 241 l 506 241 l 506 793 l 434 793 l 401 827 l 399 827 l 399 900 m 775 881 l 808 848 l 808 153 l 702 153 l 702 45 l 595 45 l 595 -61 l 7 -61 l -26 -28 l -28 -28 l -28 134 l 79 134 l 79 900 l 7 900 l -26 933 l -28 933 l -28 1096 l 562 1096 l 562 1095 l 595 1061 l 595 989 l 669 989 l 669 987 l 702 954 l 702 882 l 775 882 l 775 881 z "},"E":{"ha":961,"x_min":-28,"x_max":808,"o":"m 747 320 l 641 320 l 641 214 l 534 214 l 534 106 l 320 106 l 320 534 l 427 534 l 427 427 l 534 427 l 534 747 l 427 747 l 427 641 l 320 641 l 320 961 l 534 961 l 534 854 l 641 854 l 641 747 l 747 747 l 747 1068 l 0 1068 l 0 961 l 106 961 l 106 106 l 0 106 l 0 0 l 747 0 l 747 320 m 775 347 l 808 313 l 808 -61 l 7 -61 l -26 -28 l -28 -28 l -28 134 l 79 134 l 79 900 l 7 900 l -26 933 l -28 933 l -28 1096 l 775 1096 l 775 1095 l 808 1061 l 808 686 l 648 686 l 614 720 l 613 720 l 613 793 l 541 793 l 507 827 l 506 827 l 506 900 l 381 900 l 381 669 l 399 669 l 399 775 l 562 775 l 562 774 l 595 741 l 595 366 l 434 366 l 401 399 l 399 399 l 399 473 l 381 473 l 381 134 l 506 134 l 506 241 l 613 241 l 613 348 l 775 348 l 775 347 z "},"F":{"ha":961,"x_min":-28,"x_max":808,"o":"m 427 106 l 320 106 l 320 534 l 427 534 l 427 427 l 534 427 l 534 747 l 427 747 l 427 641 l 320 641 l 320 961 l 534 961 l 534 854 l 641 854 l 641 747 l 747 747 l 747 1068 l 0 1068 l 0 961 l 106 961 l 106 106 l 0 106 l 0 0 l 427 0 l 427 106 m 455 133 l 488 100 l 488 -61 l 7 -61 l -26 -28 l -28 -28 l -28 134 l 79 134 l 79 900 l 7 900 l -26 933 l -28 933 l -28 1096 l 775 1096 l 775 1095 l 808 1061 l 808 686 l 648 686 l 614 720 l 613 720 l 613 793 l 541 793 l 507 827 l 506 827 l 506 900 l 381 900 l 381 669 l 399 669 l 399 775 l 562 775 l 562 774 l 595 741 l 595 366 l 434 366 l 401 399 l 399 399 l 399 473 l 381 473 l 381 134 l 455 134 l 455 133 z "},"G":{"ha":961,"x_min":-28,"x_max":808,"o":"m 534 106 l 641 106 l 641 0 l 747 0 l 747 534 l 320 534 l 320 427 l 534 427 l 534 106 l 320 106 l 320 214 l 214 214 l 214 854 l 320 854 l 320 961 l 534 961 l 534 854 l 641 854 l 641 747 l 747 747 l 747 961 l 641 961 l 641 1068 l 214 1068 l 214 961 l 106 961 l 106 854 l 0 854 l 0 214 l 106 214 l 106 106 l 214 106 l 214 0 l 534 0 l 534 106 m 613 45 l 595 45 l 595 -61 l 220 -61 l 187 -28 l 186 -28 l 186 45 l 113 45 l 80 79 l 79 79 l 79 153 l 7 153 l -26 186 l -28 186 l -28 882 l 79 882 l 79 989 l 186 989 l 186 1096 l 669 1096 l 669 1095 l 702 1061 l 702 989 l 775 989 l 775 987 l 808 954 l 808 686 l 648 686 l 614 720 l 613 720 l 613 793 l 541 793 l 507 827 l 506 827 l 506 900 l 381 900 l 381 793 l 275 793 l 275 241 l 348 241 l 348 240 l 381 207 l 381 134 l 506 134 l 506 366 l 327 366 l 294 399 l 292 399 l 292 562 l 775 562 l 775 560 l 808 527 l 808 -61 l 648 -61 l 614 -28 l 613 -28 l 613 45 z "},"H":{"ha":961,"x_min":-28,"x_max":808,"o":"m 214 534 l 534 534 l 534 0 l 747 0 l 747 1068 l 534 1068 l 534 641 l 214 641 l 214 1068 l 0 1068 l 0 0 l 214 0 l 214 534 m 506 473 l 275 473 l 275 -61 l 7 -61 l -26 -28 l -28 -28 l -28 1096 l 241 1096 l 241 1095 l 275 1061 l 275 669 l 506 669 l 506 1096 l 775 1096 l 775 1095 l 808 1061 l 808 -61 l 541 -61 l 507 -28 l 506 -28 l 506 473 z "},"I":{"ha":961,"x_min":186,"x_max":702,"o":"m 641 106 l 534 106 l 534 961 l 641 961 l 641 1068 l 214 1068 l 214 961 l 320 961 l 320 106 l 214 106 l 214 0 l 641 0 l 641 106 m 669 133 l 702 100 l 702 -61 l 220 -61 l 187 -28 l 186 -28 l 186 134 l 292 134 l 292 900 l 220 900 l 187 933 l 186 933 l 186 1096 l 669 1096 l 669 1095 l 702 1061 l 702 900 l 595 900 l 595 134 l 669 134 l 669 133 z "},"J":{"ha":961,"x_min":-28,"x_max":808,"o":"m 534 106 l 641 106 l 641 961 l 747 961 l 747 1068 l 320 1068 l 320 961 l 427 961 l 427 106 l 214 106 l 214 427 l 0 427 l 0 106 l 106 106 l 106 0 l 534 0 l 534 106 m 775 1095 l 808 1061 l 808 900 l 702 900 l 702 45 l 595 45 l 595 -61 l 113 -61 l 80 -28 l 79 -28 l 79 45 l 7 45 l -26 79 l -28 79 l -28 455 l 241 455 l 241 454 l 275 420 l 275 134 l 399 134 l 399 900 l 327 900 l 294 933 l 292 933 l 292 1096 l 775 1096 l 775 1095 z "},"K":{"ha":961,"x_min":-28,"x_max":808,"o":"m 320 427 l 427 427 l 427 320 l 534 320 l 534 0 l 747 0 l 747 320 l 641 320 l 641 427 l 534 427 l 534 641 l 641 641 l 641 747 l 747 747 l 747 1068 l 534 1068 l 534 747 l 427 747 l 427 641 l 320 641 l 320 1068 l 0 1068 l 0 961 l 106 961 l 106 106 l 0 106 l 0 0 l 320 0 l 320 427 m 399 366 l 381 366 l 381 -61 l 7 -61 l -26 -28 l -28 -28 l -28 134 l 79 134 l 79 900 l 7 900 l -26 933 l -28 933 l -28 1096 l 348 1096 l 348 1095 l 381 1061 l 381 669 l 399 669 l 399 775 l 506 775 l 506 1096 l 775 1096 l 775 1095 l 808 1061 l 808 686 l 702 686 l 702 580 l 595 580 l 595 455 l 669 455 l 669 454 l 702 420 l 702 348 l 775 348 l 775 347 l 808 313 l 808 -61 l 541 -61 l 507 -28 l 506 -28 l 506 259 l 434 259 l 401 292 l 399 292 l 399 366 z "},"L":{"ha":961,"x_min":-28,"x_max":808,"o":"m 747 320 l 641 320 l 641 214 l 534 214 l 534 106 l 320 106 l 320 961 l 427 961 l 427 1068 l 0 1068 l 0 961 l 106 961 l 106 106 l 0 106 l 0 0 l 747 0 l 747 320 m 775 347 l 808 313 l 808 -61 l 7 -61 l -26 -28 l -28 -28 l -28 134 l 79 134 l 79 900 l 7 900 l -26 933 l -28 933 l -28 1096 l 455 1096 l 455 1095 l 488 1061 l 488 900 l 381 900 l 381 134 l 506 134 l 506 241 l 613 241 l 613 348 l 775 348 l 775 347 z "},"M":{"ha":961,"x_min":-28,"x_max":916,"o":"m 214 641 l 320 641 l 320 534 l 534 534 l 534 641 l 641 641 l 641 0 l 854 0 l 854 1068 l 641 1068 l 641 961 l 534 961 l 534 854 l 320 854 l 320 961 l 214 961 l 214 1068 l 0 1068 l 0 0 l 214 0 l 214 641 m 292 580 l 275 580 l 275 -61 l 7 -61 l -26 -28 l -28 -28 l -28 1096 l 241 1096 l 241 1095 l 275 1061 l 275 989 l 348 989 l 348 987 l 381 954 l 381 882 l 506 882 l 506 989 l 613 989 l 613 1096 l 882 1096 l 882 1095 l 916 1061 l 916 -61 l 648 -61 l 614 -28 l 613 -28 l 613 580 l 595 580 l 595 473 l 327 473 l 294 506 l 292 506 l 292 580 z "},"N":{"ha":961,"x_min":-28,"x_max":808,"o":"m 214 641 l 320 641 l 320 534 l 427 534 l 427 427 l 534 427 l 534 0 l 747 0 l 747 1068 l 534 1068 l 534 747 l 427 747 l 427 854 l 320 854 l 320 961 l 214 961 l 214 1068 l 0 1068 l 0 0 l 214 0 l 214 641 m 292 580 l 275 580 l 275 -61 l 7 -61 l -26 -28 l -28 -28 l -28 1096 l 241 1096 l 241 1095 l 275 1061 l 275 989 l 348 989 l 348 987 l 381 954 l 381 882 l 455 882 l 455 881 l 488 848 l 488 775 l 506 775 l 506 1096 l 775 1096 l 775 1095 l 808 1061 l 808 -61 l 541 -61 l 507 -28 l 506 -28 l 506 366 l 434 366 l 401 399 l 399 399 l 399 473 l 327 473 l 294 506 l 292 506 l 292 580 z "},"O":{"ha":961,"x_min":-28,"x_max":808,"o":"m 214 961 l 534 961 l 534 106 l 214 106 l 214 961 m 641 106 l 747 106 l 747 961 l 641 961 l 641 1068 l 106 1068 l 106 961 l 0 961 l 0 106 l 106 106 l 106 0 l 641 0 l 641 106 m 506 900 l 275 900 l 275 134 l 506 134 l 506 900 m 775 987 l 808 954 l 808 45 l 702 45 l 702 -61 l 113 -61 l 80 -28 l 79 -28 l 79 45 l 7 45 l -26 79 l -28 79 l -28 989 l 79 989 l 79 1096 l 669 1096 l 669 1095 l 702 1061 l 702 989 l 775 989 l 775 987 z "},"P":{"ha":961,"x_min":-28,"x_max":808,"o":"m 320 961 l 534 961 l 534 641 l 320 641 l 320 961 m 427 106 l 320 106 l 320 534 l 641 534 l 641 641 l 747 641 l 747 961 l 641 961 l 641 1068 l 0 1068 l 0 961 l 106 961 l 106 106 l 0 106 l 0 0 l 427 0 l 427 106 m 506 900 l 381 900 l 381 669 l 506 669 l 506 900 m 455 134 l 455 133 l 488 100 l 488 -61 l 7 -61 l -26 -28 l -28 -28 l -28 134 l 79 134 l 79 900 l 7 900 l -26 933 l -28 933 l -28 1096 l 669 1096 l 669 1095 l 702 1061 l 702 989 l 775 989 l 775 987 l 808 954 l 808 580 l 702 580 l 702 473 l 381 473 l 381 134 l 455 134 z "},"Q":{"ha":961,"x_min":-28,"x_max":808,"o":"m 214 961 l 534 961 l 534 214 l 427 214 l 427 320 l 320 320 l 320 106 l 214 106 l 214 961 m 747 -106 l 641 -106 l 641 106 l 747 106 l 747 961 l 641 961 l 641 1068 l 106 1068 l 106 961 l 0 961 l 0 106 l 106 106 l 106 0 l 427 0 l 427 -214 l 747 -214 l 747 -106 m 506 900 l 275 900 l 275 134 l 292 134 l 292 348 l 455 348 l 455 347 l 488 313 l 488 241 l 506 241 l 506 900 m 775 -79 l 775 -80 l 808 -113 l 808 -275 l 434 -275 l 401 -241 l 399 -241 l 399 -61 l 113 -61 l 80 -28 l 79 -28 l 79 45 l 7 45 l -26 79 l -28 79 l -28 989 l 79 989 l 79 1096 l 669 1096 l 669 1095 l 702 1061 l 702 989 l 775 989 l 775 987 l 808 954 l 808 45 l 702 45 l 702 -79 l 775 -79 z "},"R":{"ha":961,"x_min":-28,"x_max":808,"o":"m 320 961 l 534 961 l 534 641 l 320 641 l 320 961 m 320 534 l 427 534 l 427 427 l 534 427 l 534 0 l 747 0 l 747 427 l 641 427 l 641 641 l 747 641 l 747 961 l 641 961 l 641 1068 l 0 1068 l 0 961 l 106 961 l 106 106 l 0 106 l 0 0 l 320 0 l 320 534 m 506 900 l 381 900 l 381 669 l 506 669 l 506 900 m 399 473 l 381 473 l 381 -61 l 7 -61 l -26 -28 l -28 -28 l -28 134 l 79 134 l 79 900 l 7 900 l -26 933 l -28 933 l -28 1096 l 669 1096 l 669 1095 l 702 1061 l 702 989 l 775 989 l 775 987 l 808 954 l 808 580 l 702 580 l 702 455 l 775 455 l 775 454 l 808 420 l 808 -61 l 541 -61 l 507 -28 l 506 -28 l 506 366 l 434 366 l 401 399 l 399 399 l 399 473 z "},"S":{"ha":961,"x_min":-28,"x_max":808,"o":"m 641 106 l 747 106 l 747 427 l 641 427 l 641 534 l 534 534 l 534 641 l 320 641 l 320 747 l 214 747 l 214 961 l 534 961 l 534 747 l 747 747 l 747 961 l 641 961 l 641 1068 l 106 1068 l 106 961 l 0 961 l 0 747 l 106 747 l 106 641 l 214 641 l 214 534 l 427 534 l 427 427 l 534 427 l 534 106 l 214 106 l 214 320 l 0 320 l 0 106 l 106 106 l 106 0 l 641 0 l 641 106 m 775 454 l 808 420 l 808 45 l 702 45 l 702 -61 l 113 -61 l 80 -28 l 79 -28 l 79 45 l 7 45 l -26 79 l -28 79 l -28 348 l 241 348 l 241 347 l 275 313 l 275 134 l 506 134 l 506 366 l 434 366 l 401 399 l 399 399 l 399 473 l 220 473 l 187 506 l 186 506 l 186 580 l 113 580 l 80 613 l 79 613 l 79 686 l 7 686 l -26 720 l -28 720 l -28 989 l 79 989 l 79 1096 l 669 1096 l 669 1095 l 702 1061 l 702 989 l 775 989 l 775 987 l 808 954 l 808 686 l 541 686 l 507 720 l 506 720 l 506 900 l 275 900 l 275 775 l 348 775 l 348 774 l 381 741 l 381 669 l 562 669 l 562 667 l 595 634 l 595 562 l 669 562 l 669 560 l 702 527 l 702 455 l 775 455 l 775 454 z "},"T":{"ha":961,"x_min":-28,"x_max":916,"o":"m 641 106 l 534 106 l 534 961 l 641 961 l 641 854 l 747 854 l 747 747 l 854 747 l 854 1068 l 0 1068 l 0 747 l 106 747 l 106 854 l 214 854 l 214 961 l 320 961 l 320 106 l 214 106 l 214 0 l 641 0 l 641 106 m 669 133 l 702 100 l 702 -61 l 220 -61 l 187 -28 l 186 -28 l 186 134 l 292 134 l 292 900 l 275 900 l 275 793 l 168 793 l 168 686 l 7 686 l -26 720 l -28 720 l -28 1096 l 882 1096 l 882 1095 l 916 1061 l 916 686 l 754 686 l 721 720 l 720 720 l 720 793 l 648 793 l 614 827 l 613 827 l 613 900 l 595 900 l 595 134 l 669 134 l 669 133 z "},"U":{"ha":961,"x_min":-28,"x_max":808,"o":"m 641 106 l 747 106 l 747 1068 l 534 1068 l 534 106 l 214 106 l 214 1068 l 0 1068 l 0 106 l 106 106 l 106 0 l 641 0 l 641 106 m 775 1095 l 808 1061 l 808 45 l 702 45 l 702 -61 l 113 -61 l 80 -28 l 79 -28 l 79 45 l 7 45 l -26 79 l -28 79 l -28 1096 l 241 1096 l 241 1095 l 275 1061 l 275 134 l 506 134 l 506 1096 l 775 1096 l 775 1095 z "},"V":{"ha":961,"x_min":-28,"x_max":916,"o":"m 534 106 l 641 106 l 641 214 l 747 214 l 747 320 l 854 320 l 854 1068 l 641 1068 l 641 320 l 534 320 l 534 214 l 320 214 l 320 320 l 214 320 l 214 1068 l 0 1068 l 0 320 l 106 320 l 106 214 l 214 214 l 214 106 l 320 106 l 320 0 l 534 0 l 534 106 m 882 1095 l 916 1061 l 916 259 l 808 259 l 808 153 l 702 153 l 702 45 l 595 45 l 595 -61 l 327 -61 l 294 -28 l 292 -28 l 292 45 l 220 45 l 187 79 l 186 79 l 186 153 l 113 153 l 80 186 l 79 186 l 79 259 l 7 259 l -26 292 l -28 292 l -28 1096 l 241 1096 l 241 1095 l 275 1061 l 275 348 l 348 348 l 348 347 l 381 313 l 381 241 l 506 241 l 506 348 l 613 348 l 613 1096 l 882 1096 l 882 1095 z "},"W":{"ha":961,"x_min":-28,"x_max":916,"o":"m 320 214 l 534 214 l 534 0 l 747 0 l 747 214 l 854 214 l 854 1068 l 641 1068 l 641 320 l 534 320 l 534 534 l 320 534 l 320 320 l 214 320 l 214 1068 l 0 1068 l 0 214 l 106 214 l 106 0 l 320 0 l 320 214 m 506 153 l 381 153 l 381 -61 l 113 -61 l 80 -28 l 79 -28 l 79 153 l 7 153 l -26 186 l -28 186 l -28 1096 l 241 1096 l 241 1095 l 275 1061 l 275 348 l 292 348 l 292 562 l 562 562 l 562 560 l 595 527 l 595 348 l 613 348 l 613 1096 l 882 1096 l 882 1095 l 916 1061 l 916 153 l 808 153 l 808 -61 l 541 -61 l 507 -28 l 506 -28 l 506 153 z "},"X":{"ha":961,"x_min":-28,"x_max":916,"o":"m 214 214 l 320 214 l 320 320 l 534 320 l 534 214 l 641 214 l 641 0 l 854 0 l 854 214 l 747 214 l 747 320 l 641 320 l 641 427 l 534 427 l 534 641 l 641 641 l 641 747 l 747 747 l 747 854 l 854 854 l 854 1068 l 641 1068 l 641 854 l 534 854 l 534 747 l 320 747 l 320 854 l 214 854 l 214 1068 l 0 1068 l 0 854 l 106 854 l 106 747 l 214 747 l 214 641 l 320 641 l 320 427 l 214 427 l 214 320 l 106 320 l 106 214 l 0 214 l 0 0 l 214 0 l 214 214 m 506 259 l 381 259 l 381 153 l 275 153 l 275 -61 l 7 -61 l -26 -28 l -28 -28 l -28 241 l 79 241 l 79 348 l 186 348 l 186 455 l 292 455 l 292 580 l 220 580 l 187 613 l 186 613 l 186 686 l 113 686 l 80 720 l 79 720 l 79 793 l 7 793 l -26 827 l -28 827 l -28 1096 l 241 1096 l 241 1095 l 275 1061 l 275 882 l 348 882 l 348 881 l 381 848 l 381 775 l 506 775 l 506 882 l 613 882 l 613 1096 l 882 1096 l 882 1095 l 916 1061 l 916 793 l 808 793 l 808 686 l 702 686 l 702 580 l 595 580 l 595 455 l 669 455 l 669 454 l 702 420 l 702 348 l 775 348 l 775 347 l 808 313 l 808 241 l 882 241 l 882 240 l 916 207 l 916 -61 l 648 -61 l 614 -28 l 613 -28 l 613 153 l 541 153 l 507 186 l 506 186 l 506 259 z "},"Y":{"ha":961,"x_min":-28,"x_max":916,"o":"m 641 106 l 534 106 l 534 534 l 641 534 l 641 641 l 747 641 l 747 747 l 854 747 l 854 1068 l 641 1068 l 641 747 l 534 747 l 534 641 l 320 641 l 320 747 l 214 747 l 214 1068 l 0 1068 l 0 747 l 106 747 l 106 641 l 214 641 l 214 534 l 320 534 l 320 106 l 214 106 l 214 0 l 641 0 l 641 106 m 669 133 l 702 100 l 702 -61 l 220 -61 l 187 -28 l 186 -28 l 186 134 l 292 134 l 292 473 l 220 473 l 187 506 l 186 506 l 186 580 l 113 580 l 80 613 l 79 613 l 79 686 l 7 686 l -26 720 l -28 720 l -28 1096 l 241 1096 l 241 1095 l 275 1061 l 275 775 l 348 775 l 348 774 l 381 741 l 381 669 l 506 669 l 506 775 l 613 775 l 613 1096 l 882 1096 l 882 1095 l 916 1061 l 916 686 l 808 686 l 808 580 l 702 580 l 702 473 l 595 473 l 595 134 l 669 134 l 669 133 z "},"Z":{"ha":961,"x_min":-28,"x_max":916,"o":"m 854 320 l 747 320 l 747 214 l 641 214 l 641 106 l 214 106 l 214 320 l 320 320 l 320 427 l 427 427 l 427 534 l 534 534 l 534 641 l 641 641 l 641 747 l 747 747 l 747 854 l 854 854 l 854 1068 l 0 1068 l 0 747 l 106 747 l 106 854 l 214 854 l 214 961 l 641 961 l 641 854 l 534 854 l 534 747 l 427 747 l 427 641 l 320 641 l 320 534 l 214 534 l 214 427 l 106 427 l 106 320 l 0 320 l 0 0 l 854 0 l 854 320 m 882 347 l 916 313 l 916 -61 l 7 -61 l -26 -28 l -28 -28 l -28 348 l 79 348 l 79 455 l 186 455 l 186 562 l 292 562 l 292 669 l 399 669 l 399 775 l 506 775 l 506 882 l 613 882 l 613 900 l 275 900 l 275 793 l 168 793 l 168 686 l 7 686 l -26 720 l -28 720 l -28 1096 l 882 1096 l 882 1095 l 916 1061 l 916 793 l 808 793 l 808 686 l 702 686 l 702 580 l 595 580 l 595 473 l 488 473 l 488 366 l 381 366 l 381 259 l 275 259 l 275 134 l 613 134 l 613 241 l 720 241 l 720 348 l 882 348 l 882 347 z "},"[":{"ha":961,"x_min":186,"x_max":702,"o":"m 641 106 l 427 106 l 427 961 l 641 961 l 641 1068 l 214 1068 l 214 0 l 641 0 l 641 106 m 669 133 l 702 100 l 702 -61 l 220 -61 l 187 -28 l 186 -28 l 186 1096 l 669 1096 l 669 1095 l 702 1061 l 702 900 l 488 900 l 488 134 l 669 134 l 669 133 z "},"\\":{"ha":961,"x_min":-28,"x_max":808,"o":"m 747 320 l 641 320 l 641 427 l 534 427 l 534 534 l 427 534 l 427 641 l 320 641 l 320 747 l 214 747 l 214 854 l 106 854 l 106 961 l 0 961 l 0 641 l 106 641 l 106 534 l 214 534 l 214 427 l 320 427 l 320 320 l 427 320 l 427 214 l 534 214 l 534 106 l 641 106 l 641 0 l 747 0 l 747 320 m 775 347 l 808 313 l 808 -61 l 648 -61 l 614 -28 l 613 -28 l 613 45 l 541 45 l 507 79 l 506 79 l 506 153 l 434 153 l 401 186 l 399 186 l 399 259 l 327 259 l 294 292 l 292 292 l 292 366 l 220 366 l 187 399 l 186 399 l 186 473 l 113 473 l 80 506 l 79 506 l 79 580 l 7 580 l -26 613 l -28 613 l -28 989 l 134 989 l 134 987 l 168 954 l 168 882 l 241 882 l 241 881 l 275 848 l 275 775 l 348 775 l 348 774 l 381 741 l 381 669 l 455 669 l 455 667 l 488 634 l 488 562 l 562 562 l 562 560 l 595 527 l 595 455 l 669 455 l 669 454 l 702 420 l 702 348 l 775 348 l 775 347 z "},"]":{"ha":961,"x_min":186,"x_max":702,"o":"m 641 1068 l 214 1068 l 214 961 l 427 961 l 427 106 l 214 106 l 214 0 l 641 0 l 641 1068 m 669 1095 l 702 1061 l 702 -61 l 220 -61 l 187 -28 l 186 -28 l 186 134 l 399 134 l 399 900 l 220 900 l 187 933 l 186 933 l 186 1096 l 669 1096 l 669 1095 z "},"^":{"ha":961,"x_min":-28,"x_max":808,"o":"m 214 961 l 320 961 l 320 1068 l 427 1068 l 427 961 l 534 961 l 534 854 l 747 854 l 747 961 l 641 961 l 641 1068 l 534 1068 l 534 1175 l 427 1175 l 427 1282 l 320 1282 l 320 1175 l 214 1175 l 214 1068 l 106 1068 l 106 961 l 0 961 l 0 854 l 214 854 l 214 961 m 399 1007 l 381 1007 l 381 900 l 275 900 l 275 793 l 7 793 l -26 827 l -28 827 l -28 989 l 79 989 l 79 1096 l 186 1096 l 186 1202 l 292 1202 l 292 1310 l 455 1310 l 455 1308 l 488 1275 l 488 1202 l 562 1202 l 562 1201 l 595 1168 l 595 1096 l 669 1096 l 669 1095 l 702 1061 l 702 989 l 775 989 l 775 987 l 808 954 l 808 793 l 541 793 l 507 827 l 506 827 l 506 900 l 434 900 l 401 933 l 399 933 l 399 1007 z "},"_":{"ha":961,"x_min":-28,"x_max":916,"o":"m 854 -106 l 0 -106 l 0 -214 l 854 -214 l 854 -106 m 882 -80 l 916 -113 l 916 -275 l 7 -275 l -26 -241 l -28 -241 l -28 -79 l 882 -79 l 882 -80 z "},"`":{"ha":961,"x_min":186,"x_max":595,"o":"m 534 1068 l 427 1068 l 427 1282 l 214 1282 l 214 1068 l 320 1068 l 320 961 l 534 961 l 534 1068 m 562 1095 l 595 1061 l 595 900 l 327 900 l 294 933 l 292 933 l 292 1007 l 220 1007 l 187 1040 l 186 1040 l 186 1310 l 455 1310 l 455 1308 l 488 1275 l 488 1096 l 562 1096 l 562 1095 z "},"a":{"ha":961,"x_min":-28,"x_max":808,"o":"m 214 427 l 427 427 l 427 106 l 214 106 l 214 427 m 427 106 l 534 106 l 534 0 l 747 0 l 747 106 l 641 106 l 641 641 l 534 641 l 534 747 l 106 747 l 106 641 l 427 641 l 427 534 l 106 534 l 106 427 l 0 427 l 0 106 l 106 106 l 106 0 l 427 0 l 427 106 m 399 366 l 275 366 l 275 134 l 399 134 l 399 366 m 506 45 l 488 45 l 488 -61 l 113 -61 l 80 -28 l 79 -28 l 79 45 l 7 45 l -26 79 l -28 79 l -28 455 l 79 455 l 79 562 l 399 562 l 399 580 l 113 580 l 80 613 l 79 613 l 79 775 l 562 775 l 562 774 l 595 741 l 595 669 l 669 669 l 669 667 l 702 634 l 702 134 l 775 134 l 775 133 l 808 100 l 808 -61 l 541 -61 l 507 -28 l 506 -28 l 506 45 z "},"b":{"ha":961,"x_min":-28,"x_max":808,"o":"m 320 641 l 427 641 l 427 534 l 534 534 l 534 106 l 320 106 l 320 641 m 641 106 l 747 106 l 747 534 l 641 534 l 641 641 l 534 641 l 534 747 l 320 747 l 320 1068 l 0 1068 l 0 961 l 106 961 l 106 0 l 641 0 l 641 106 m 399 580 l 381 580 l 381 134 l 506 134 l 506 473 l 434 473 l 401 506 l 399 506 l 399 580 m 775 560 l 808 527 l 808 45 l 702 45 l 702 -61 l 113 -61 l 80 -28 l 79 -28 l 79 900 l 7 900 l -26 933 l -28 933 l -28 1096 l 348 1096 l 348 1095 l 381 1061 l 381 775 l 562 775 l 562 774 l 595 741 l 595 669 l 669 669 l 669 667 l 702 634 l 702 562 l 775 562 l 775 560 z "},"c":{"ha":961,"x_min":-28,"x_max":808,"o":"m 641 106 l 747 106 l 747 214 l 534 214 l 534 106 l 214 106 l 214 641 l 534 641 l 534 534 l 747 534 l 747 641 l 641 641 l 641 747 l 106 747 l 106 641 l 0 641 l 0 106 l 106 106 l 106 0 l 641 0 l 641 106 m 775 240 l 808 207 l 808 45 l 702 45 l 702 -61 l 113 -61 l 80 -28 l 79 -28 l 79 45 l 7 45 l -26 79 l -28 79 l -28 669 l 79 669 l 79 775 l 669 775 l 669 774 l 702 741 l 702 669 l 775 669 l 775 667 l 808 634 l 808 473 l 541 473 l 507 506 l 506 506 l 506 580 l 275 580 l 275 134 l 506 134 l 506 241 l 775 241 l 775 240 z "},"d":{"ha":961,"x_min":-28,"x_max":808,"o":"m 214 534 l 320 534 l 320 641 l 427 641 l 427 106 l 214 106 l 214 534 m 427 106 l 534 106 l 534 0 l 747 0 l 747 106 l 641 106 l 641 1068 l 320 1068 l 320 961 l 427 961 l 427 747 l 214 747 l 214 641 l 106 641 l 106 534 l 0 534 l 0 106 l 106 106 l 106 0 l 427 0 l 427 106 m 399 580 l 381 580 l 381 473 l 275 473 l 275 134 l 399 134 l 399 580 m 506 45 l 488 45 l 488 -61 l 113 -61 l 80 -28 l 79 -28 l 79 45 l 7 45 l -26 79 l -28 79 l -28 562 l 79 562 l 79 669 l 186 669 l 186 775 l 399 775 l 399 900 l 327 900 l 294 933 l 292 933 l 292 1096 l 669 1096 l 669 1095 l 702 1061 l 702 134 l 775 134 l 775 133 l 808 100 l 808 -61 l 541 -61 l 507 -28 l 506 -28 l 506 45 z "},"e":{"ha":961,"x_min":-28,"x_max":808,"o":"m 214 641 l 534 641 l 534 534 l 214 534 l 214 641 m 641 106 l 747 106 l 747 214 l 534 214 l 534 106 l 214 106 l 214 427 l 747 427 l 747 641 l 641 641 l 641 747 l 106 747 l 106 641 l 0 641 l 0 106 l 106 106 l 106 0 l 641 0 l 641 106 m 506 580 l 275 580 l 275 562 l 506 562 l 506 580 m 775 240 l 808 207 l 808 45 l 702 45 l 702 -61 l 113 -61 l 80 -28 l 79 -28 l 79 45 l 7 45 l -26 79 l -28 79 l -28 669 l 79 669 l 79 775 l 669 775 l 669 774 l 702 741 l 702 669 l 775 669 l 775 667 l 808 634 l 808 366 l 275 366 l 275 134 l 506 134 l 506 241 l 775 241 l 775 240 z "},"f":{"ha":961,"x_min":-28,"x_max":702,"o":"m 427 106 l 320 106 l 320 534 l 427 534 l 427 641 l 320 641 l 320 961 l 427 961 l 427 854 l 534 854 l 534 747 l 641 747 l 641 961 l 534 961 l 534 1068 l 214 1068 l 214 961 l 106 961 l 106 641 l 0 641 l 0 534 l 106 534 l 106 106 l 0 106 l 0 0 l 427 0 l 427 106 m 455 133 l 488 100 l 488 -61 l 7 -61 l -26 -28 l -28 -28 l -28 134 l 79 134 l 79 473 l 7 473 l -26 506 l -28 506 l -28 669 l 79 669 l 79 989 l 186 989 l 186 1096 l 562 1096 l 562 1095 l 595 1061 l 595 989 l 669 989 l 669 987 l 702 954 l 702 686 l 541 686 l 507 720 l 506 720 l 506 793 l 434 793 l 401 827 l 399 827 l 399 900 l 381 900 l 381 669 l 455 669 l 455 667 l 488 634 l 488 473 l 381 473 l 381 134 l 455 134 l 455 133 z "},"g":{"ha":961,"x_min":-28,"x_max":808,"o":"m 214 106 l 214 641 l 427 641 l 427 106 l 214 106 m 534 -214 l 641 -214 l 641 641 l 747 641 l 747 747 l 534 747 l 534 641 l 427 641 l 427 747 l 106 747 l 106 641 l 0 641 l 0 106 l 106 106 l 106 0 l 427 0 l 427 -214 l 214 -214 l 214 -106 l 0 -106 l 0 -214 l 106 -214 l 106 -320 l 534 -320 l 534 -214 m 399 580 l 275 580 l 275 134 l 399 134 l 399 580 m 775 774 l 808 741 l 808 580 l 702 580 l 702 -275 l 595 -275 l 595 -381 l 113 -381 l 80 -348 l 79 -348 l 79 -275 l 7 -275 l -26 -241 l -28 -241 l -28 -79 l 241 -79 l 241 -80 l 275 -113 l 275 -186 l 399 -186 l 399 -61 l 113 -61 l 80 -28 l 79 -28 l 79 45 l 7 45 l -26 79 l -28 79 l -28 669 l 79 669 l 79 775 l 455 775 l 455 774 l 488 741 l 488 669 l 506 669 l 506 775 l 775 775 l 775 774 z "},"h":{"ha":961,"x_min":-28,"x_max":808,"o":"m 320 534 l 427 534 l 427 641 l 534 641 l 534 0 l 747 0 l 747 641 l 641 641 l 641 747 l 427 747 l 427 641 l 320 641 l 320 1068 l 0 1068 l 0 961 l 106 961 l 106 106 l 0 106 l 0 0 l 320 0 l 320 534 m 506 580 l 488 580 l 488 473 l 381 473 l 381 -61 l 7 -61 l -26 -28 l -28 -28 l -28 134 l 79 134 l 79 900 l 7 900 l -26 933 l -28 933 l -28 1096 l 348 1096 l 348 1095 l 381 1061 l 381 669 l 399 669 l 399 775 l 669 775 l 669 774 l 702 741 l 702 669 l 775 669 l 775 667 l 808 634 l 808 -61 l 541 -61 l 507 -28 l 506 -28 l 506 580 z "},"i":{"ha":961,"x_min":186,"x_max":702,"o":"m 641 106 l 534 106 l 534 747 l 214 747 l 214 641 l 320 641 l 320 106 l 214 106 l 214 0 l 641 0 l 641 106 m 534 1068 l 320 1068 l 320 854 l 534 854 l 534 1068 m 669 133 l 702 100 l 702 -61 l 220 -61 l 187 -28 l 186 -28 l 186 134 l 292 134 l 292 580 l 220 580 l 187 613 l 186 613 l 186 775 l 562 775 l 562 774 l 595 741 l 595 134 l 669 134 l 669 133 m 562 1095 l 595 1061 l 595 793 l 327 793 l 294 827 l 292 827 l 292 1096 l 562 1096 l 562 1095 z "},"j":{"ha":961,"x_min":79,"x_max":808,"o":"m 641 -214 l 747 -214 l 747 747 l 427 747 l 427 641 l 534 641 l 534 -214 l 320 -214 l 320 0 l 106 0 l 106 -214 l 214 -214 l 214 -320 l 641 -320 l 641 -214 m 747 1068 l 534 1068 l 534 854 l 747 854 l 747 1068 m 775 774 l 808 741 l 808 -275 l 702 -275 l 702 -381 l 220 -381 l 187 -348 l 186 -348 l 186 -275 l 113 -275 l 80 -241 l 79 -241 l 79 28 l 348 28 l 348 26 l 381 -7 l 381 -186 l 506 -186 l 506 580 l 434 580 l 401 613 l 399 613 l 399 775 l 775 775 l 775 774 m 775 1095 l 808 1061 l 808 793 l 541 793 l 507 827 l 506 827 l 506 1096 l 775 1096 l 775 1095 z "},"k":{"ha":961,"x_min":-28,"x_max":808,"o":"m 320 320 l 427 320 l 427 214 l 534 214 l 534 0 l 747 0 l 747 214 l 641 214 l 641 320 l 534 320 l 534 534 l 641 534 l 641 641 l 747 641 l 747 747 l 534 747 l 534 641 l 427 641 l 427 534 l 320 534 l 320 1068 l 0 1068 l 0 961 l 106 961 l 106 106 l 0 106 l 0 0 l 320 0 l 320 320 m 399 259 l 381 259 l 381 -61 l 7 -61 l -26 -28 l -28 -28 l -28 134 l 79 134 l 79 900 l 7 900 l -26 933 l -28 933 l -28 1096 l 348 1096 l 348 1095 l 381 1061 l 381 562 l 399 562 l 399 669 l 506 669 l 506 775 l 775 775 l 775 774 l 808 741 l 808 580 l 702 580 l 702 473 l 595 473 l 595 348 l 669 348 l 669 347 l 702 313 l 702 241 l 775 241 l 775 240 l 808 207 l 808 -61 l 541 -61 l 507 -28 l 506 -28 l 506 153 l 434 153 l 401 186 l 399 186 l 399 259 z "},"l":{"ha":961,"x_min":186,"x_max":702,"o":"m 641 106 l 534 106 l 534 1068 l 214 1068 l 214 961 l 320 961 l 320 106 l 214 106 l 214 0 l 641 0 l 641 106 m 669 133 l 702 100 l 702 -61 l 220 -61 l 187 -28 l 186 -28 l 186 134 l 292 134 l 292 900 l 220 900 l 187 933 l 186 933 l 186 1096 l 562 1096 l 562 1095 l 595 1061 l 595 134 l 669 134 l 669 133 z "},"m":{"ha":961,"x_min":-28,"x_max":916,"o":"m 214 534 l 320 534 l 320 0 l 534 0 l 534 534 l 641 534 l 641 0 l 854 0 l 854 641 l 747 641 l 747 747 l 534 747 l 534 641 l 320 641 l 320 747 l 0 747 l 0 0 l 214 0 l 214 534 m 292 473 l 275 473 l 275 -61 l 7 -61 l -26 -28 l -28 -28 l -28 775 l 348 775 l 348 774 l 381 741 l 381 669 l 506 669 l 506 775 l 775 775 l 775 774 l 808 741 l 808 669 l 882 669 l 882 667 l 916 634 l 916 -61 l 648 -61 l 614 -28 l 613 -28 l 613 473 l 595 473 l 595 -61 l 327 -61 l 294 -28 l 292 -28 l 292 473 z "},"n":{"ha":961,"x_min":-28,"x_max":808,"o":"m 747 641 l 641 641 l 641 747 l 320 747 l 320 641 l 214 641 l 214 747 l 0 747 l 0 641 l 106 641 l 106 0 l 320 0 l 320 641 l 534 641 l 534 0 l 747 0 l 747 641 m 775 667 l 808 634 l 808 -61 l 541 -61 l 507 -28 l 506 -28 l 506 580 l 381 580 l 381 -61 l 113 -61 l 80 -28 l 79 -28 l 79 580 l 7 580 l -26 613 l -28 613 l -28 775 l 241 775 l 241 774 l 275 741 l 275 669 l 292 669 l 292 775 l 669 775 l 669 774 l 702 741 l 702 669 l 775 669 l 775 667 z "},"o":{"ha":961,"x_min":-28,"x_max":808,"o":"m 214 641 l 534 641 l 534 106 l 214 106 l 214 641 m 641 106 l 747 106 l 747 641 l 641 641 l 641 747 l 106 747 l 106 641 l 0 641 l 0 106 l 106 106 l 106 0 l 641 0 l 641 106 m 506 580 l 275 580 l 275 134 l 506 134 l 506 580 m 775 667 l 808 634 l 808 45 l 702 45 l 702 -61 l 113 -61 l 80 -28 l 79 -28 l 79 45 l 7 45 l -26 79 l -28 79 l -28 669 l 79 669 l 79 775 l 669 775 l 669 774 l 702 741 l 702 669 l 775 669 l 775 667 z "},"p":{"ha":961,"x_min":-28,"x_max":808,"o":"m 534 106 l 320 106 l 320 641 l 534 641 l 534 106 m 427 -214 l 320 -214 l 320 0 l 641 0 l 641 106 l 747 106 l 747 641 l 641 641 l 641 747 l 320 747 l 320 641 l 214 641 l 214 747 l 0 747 l 0 641 l 106 641 l 106 -214 l 0 -214 l 0 -320 l 427 -320 l 427 -214 m 506 134 l 506 580 l 381 580 l 381 134 l 506 134 m 455 -186 l 455 -187 l 488 -220 l 488 -381 l 7 -381 l -26 -348 l -28 -348 l -28 -186 l 79 -186 l 79 580 l 7 580 l -26 613 l -28 613 l -28 775 l 241 775 l 241 774 l 275 741 l 275 669 l 292 669 l 292 775 l 669 775 l 669 774 l 702 741 l 702 669 l 775 669 l 775 667 l 808 634 l 808 45 l 702 45 l 702 -61 l 381 -61 l 381 -186 l 455 -186 z "},"q":{"ha":961,"x_min":-28,"x_max":808,"o":"m 214 106 l 214 641 l 427 641 l 427 106 l 214 106 m 747 -214 l 641 -214 l 641 641 l 747 641 l 747 747 l 534 747 l 534 641 l 427 641 l 427 747 l 106 747 l 106 641 l 0 641 l 0 106 l 106 106 l 106 0 l 427 0 l 427 -214 l 320 -214 l 320 -320 l 747 -320 l 747 -214 m 399 580 l 275 580 l 275 134 l 399 134 l 399 580 m 775 -186 l 775 -187 l 808 -220 l 808 -381 l 327 -381 l 294 -348 l 292 -348 l 292 -186 l 399 -186 l 399 -61 l 113 -61 l 80 -28 l 79 -28 l 79 45 l 7 45 l -26 79 l -28 79 l -28 669 l 79 669 l 79 775 l 455 775 l 455 774 l 488 741 l 488 669 l 506 669 l 506 775 l 775 775 l 775 774 l 808 741 l 808 580 l 702 580 l 702 -186 l 775 -186 z "},"r":{"ha":961,"x_min":-28,"x_max":808,"o":"m 427 106 l 320 106 l 320 534 l 427 534 l 427 641 l 534 641 l 534 427 l 747 427 l 747 641 l 641 641 l 641 747 l 320 747 l 320 641 l 214 641 l 214 747 l 0 747 l 0 641 l 106 641 l 106 106 l 0 106 l 0 0 l 427 0 l 427 106 m 455 133 l 488 100 l 488 -61 l 7 -61 l -26 -28 l -28 -28 l -28 134 l 79 134 l 79 580 l 7 580 l -26 613 l -28 613 l -28 775 l 241 775 l 241 774 l 275 741 l 275 669 l 292 669 l 292 775 l 669 775 l 669 774 l 702 741 l 702 669 l 775 669 l 775 667 l 808 634 l 808 366 l 541 366 l 507 399 l 506 399 l 506 580 l 488 580 l 488 473 l 381 473 l 381 134 l 455 134 l 455 133 z "},"s":{"ha":961,"x_min":-28,"x_max":808,"o":"m 641 106 l 747 106 l 747 214 l 641 214 l 641 320 l 534 320 l 534 427 l 320 427 l 320 534 l 214 534 l 214 641 l 534 641 l 534 534 l 747 534 l 747 641 l 641 641 l 641 747 l 106 747 l 106 641 l 0 641 l 0 534 l 106 534 l 106 427 l 214 427 l 214 320 l 427 320 l 427 214 l 534 214 l 534 106 l 214 106 l 214 214 l 0 214 l 0 106 l 106 106 l 106 0 l 641 0 l 641 106 m 775 240 l 808 207 l 808 45 l 702 45 l 702 -61 l 113 -61 l 80 -28 l 79 -28 l 79 45 l 7 45 l -26 79 l -28 79 l -28 241 l 241 241 l 241 240 l 275 207 l 275 134 l 506 134 l 506 153 l 434 153 l 401 186 l 399 186 l 399 259 l 220 259 l 187 292 l 186 292 l 186 366 l 113 366 l 80 399 l 79 399 l 79 473 l 7 473 l -26 506 l -28 506 l -28 669 l 79 669 l 79 775 l 669 775 l 669 774 l 702 741 l 702 669 l 775 669 l 775 667 l 808 634 l 808 473 l 541 473 l 507 506 l 506 506 l 506 580 l 275 580 l 275 562 l 348 562 l 348 560 l 381 527 l 381 455 l 562 455 l 562 454 l 595 420 l 595 348 l 669 348 l 669 347 l 702 313 l 702 241 l 775 241 l 775 240 z "},"t":{"ha":961,"x_min":-28,"x_max":808,"o":"m 641 106 l 747 106 l 747 214 l 534 214 l 534 106 l 427 106 l 427 641 l 641 641 l 641 747 l 427 747 l 427 1068 l 320 1068 l 320 961 l 214 961 l 214 747 l 0 747 l 0 641 l 214 641 l 214 106 l 320 106 l 320 0 l 641 0 l 641 106 m 775 240 l 808 207 l 808 45 l 702 45 l 702 -61 l 327 -61 l 294 -28 l 292 -28 l 292 45 l 220 45 l 187 79 l 186 79 l 186 580 l 7 580 l -26 613 l -28 613 l -28 775 l 186 775 l 186 989 l 292 989 l 292 1096 l 455 1096 l 455 1095 l 488 1061 l 488 775 l 669 775 l 669 774 l 702 741 l 702 580 l 488 580 l 488 134 l 506 134 l 506 241 l 775 241 l 775 240 z "},"u":{"ha":961,"x_min":-28,"x_max":808,"o":"m 747 106 l 641 106 l 641 747 l 427 747 l 427 106 l 214 106 l 214 747 l 0 747 l 0 106 l 106 106 l 106 0 l 427 0 l 427 106 l 534 106 l 534 0 l 747 0 l 747 106 m 775 133 l 808 100 l 808 -61 l 541 -61 l 507 -28 l 506 -28 l 506 45 l 488 45 l 488 -61 l 113 -61 l 80 -28 l 79 -28 l 79 45 l 7 45 l -26 79 l -28 79 l -28 775 l 241 775 l 241 774 l 275 741 l 275 134 l 399 134 l 399 775 l 669 775 l 669 774 l 702 741 l 702 134 l 775 134 l 775 133 z "},"v":{"ha":961,"x_min":-28,"x_max":916,"o":"m 534 106 l 641 106 l 641 214 l 747 214 l 747 320 l 854 320 l 854 747 l 641 747 l 641 320 l 534 320 l 534 214 l 320 214 l 320 320 l 214 320 l 214 747 l 0 747 l 0 320 l 106 320 l 106 214 l 214 214 l 214 106 l 320 106 l 320 0 l 534 0 l 534 106 m 882 774 l 916 741 l 916 259 l 808 259 l 808 153 l 702 153 l 702 45 l 595 45 l 595 -61 l 327 -61 l 294 -28 l 292 -28 l 292 45 l 220 45 l 187 79 l 186 79 l 186 153 l 113 153 l 80 186 l 79 186 l 79 259 l 7 259 l -26 292 l -28 292 l -28 775 l 241 775 l 241 774 l 275 741 l 275 348 l 348 348 l 348 347 l 381 313 l 381 241 l 506 241 l 506 348 l 613 348 l 613 775 l 882 775 l 882 774 z "},"w":{"ha":961,"x_min":-28,"x_max":916,"o":"m 320 106 l 534 106 l 534 0 l 747 0 l 747 106 l 854 106 l 854 747 l 641 747 l 641 214 l 534 214 l 534 427 l 320 427 l 320 214 l 214 214 l 214 747 l 0 747 l 0 106 l 106 106 l 106 0 l 320 0 l 320 106 m 506 45 l 381 45 l 381 -61 l 113 -61 l 80 -28 l 79 -28 l 79 45 l 7 45 l -26 79 l -28 79 l -28 775 l 241 775 l 241 774 l 275 741 l 275 241 l 292 241 l 292 455 l 562 455 l 562 454 l 595 420 l 595 241 l 613 241 l 613 775 l 882 775 l 882 774 l 916 741 l 916 45 l 808 45 l 808 -61 l 541 -61 l 507 -28 l 506 -28 l 506 45 z "},"x":{"ha":961,"x_min":-28,"x_max":916,"o":"m 214 106 l 320 106 l 320 214 l 534 214 l 534 106 l 641 106 l 641 0 l 854 0 l 854 106 l 747 106 l 747 214 l 641 214 l 641 320 l 534 320 l 534 427 l 641 427 l 641 534 l 747 534 l 747 641 l 854 641 l 854 747 l 641 747 l 641 641 l 534 641 l 534 534 l 320 534 l 320 641 l 214 641 l 214 747 l 0 747 l 0 641 l 106 641 l 106 534 l 214 534 l 214 427 l 320 427 l 320 320 l 214 320 l 214 214 l 106 214 l 106 106 l 0 106 l 0 0 l 214 0 l 214 106 m 506 153 l 381 153 l 381 45 l 275 45 l 275 -61 l 7 -61 l -26 -28 l -28 -28 l -28 134 l 79 134 l 79 241 l 186 241 l 186 348 l 292 348 l 292 366 l 220 366 l 187 399 l 186 399 l 186 473 l 113 473 l 80 506 l 79 506 l 79 580 l 7 580 l -26 613 l -28 613 l -28 775 l 241 775 l 241 774 l 275 741 l 275 669 l 348 669 l 348 667 l 381 634 l 381 562 l 506 562 l 506 669 l 613 669 l 613 775 l 882 775 l 882 774 l 916 741 l 916 580 l 808 580 l 808 473 l 702 473 l 702 366 l 595 366 l 595 348 l 669 348 l 669 347 l 702 313 l 702 241 l 775 241 l 775 240 l 808 207 l 808 134 l 882 134 l 882 133 l 916 100 l 916 -61 l 648 -61 l 614 -28 l 613 -28 l 613 45 l 541 45 l 507 79 l 506 79 l 506 153 z "},"y":{"ha":961,"x_min":-28,"x_max":808,"o":"m 534 -214 l 641 -214 l 641 -106 l 747 -106 l 747 747 l 534 747 l 534 106 l 214 106 l 214 747 l 0 747 l 0 106 l 106 106 l 106 0 l 534 0 l 534 -106 l 427 -106 l 427 -214 l 0 -214 l 0 -320 l 534 -320 l 534 -214 m 775 774 l 808 741 l 808 -168 l 702 -168 l 702 -275 l 595 -275 l 595 -381 l 7 -381 l -26 -348 l -28 -348 l -28 -186 l 399 -186 l 399 -79 l 506 -79 l 506 -61 l 113 -61 l 80 -28 l 79 -28 l 79 45 l 7 45 l -26 79 l -28 79 l -28 775 l 241 775 l 241 774 l 275 741 l 275 134 l 506 134 l 506 775 l 775 775 l 775 774 z "},"z":{"ha":961,"x_min":-28,"x_max":808,"o":"m 747 214 l 534 214 l 534 106 l 214 106 l 214 214 l 320 214 l 320 320 l 427 320 l 427 427 l 534 427 l 534 534 l 641 534 l 641 641 l 747 641 l 747 747 l 0 747 l 0 534 l 214 534 l 214 641 l 427 641 l 427 534 l 320 534 l 320 427 l 214 427 l 214 320 l 106 320 l 106 214 l 0 214 l 0 0 l 747 0 l 747 214 m 775 240 l 808 207 l 808 -61 l 7 -61 l -26 -28 l -28 -28 l -28 241 l 79 241 l 79 348 l 186 348 l 186 455 l 292 455 l 292 562 l 399 562 l 399 580 l 275 580 l 275 473 l 7 473 l -26 506 l -28 506 l -28 775 l 775 775 l 775 774 l 808 741 l 808 580 l 702 580 l 702 473 l 595 473 l 595 366 l 488 366 l 488 259 l 381 259 l 381 153 l 275 153 l 275 134 l 506 134 l 506 241 l 775 241 l 775 240 z "},"{":{"ha":961,"x_min":79,"x_max":808,"o":"m 747 106 l 534 106 l 534 534 l 427 534 l 427 641 l 534 641 l 534 961 l 747 961 l 747 1068 l 427 1068 l 427 961 l 320 961 l 320 641 l 106 641 l 106 534 l 320 534 l 320 106 l 427 106 l 427 0 l 747 0 l 747 106 m 775 133 l 808 100 l 808 -61 l 434 -61 l 401 -28 l 399 -28 l 399 45 l 327 45 l 294 79 l 292 79 l 292 473 l 113 473 l 80 506 l 79 506 l 79 669 l 292 669 l 292 989 l 399 989 l 399 1096 l 775 1096 l 775 1095 l 808 1061 l 808 900 l 595 900 l 595 580 l 488 580 l 488 562 l 562 562 l 562 560 l 595 527 l 595 134 l 775 134 l 775 133 z "},"|":{"ha":961,"x_min":292,"x_max":595,"o":"m 534 534 l 320 534 l 320 0 l 534 0 l 534 534 m 534 1068 l 320 1068 l 320 641 l 534 641 l 534 1068 m 562 560 l 595 527 l 595 -61 l 327 -61 l 294 -28 l 292 -28 l 292 562 l 562 562 l 562 560 m 562 1095 l 595 1061 l 595 580 l 327 580 l 294 613 l 292 613 l 292 1096 l 562 1096 l 562 1095 z "},"}":{"ha":961,"x_min":79,"x_max":808,"o":"m 427 106 l 534 106 l 534 534 l 747 534 l 747 641 l 534 641 l 534 961 l 427 961 l 427 1068 l 106 1068 l 106 961 l 320 961 l 320 641 l 427 641 l 427 534 l 320 534 l 320 106 l 106 106 l 106 0 l 427 0 l 427 106 m 775 667 l 808 634 l 808 473 l 595 473 l 595 45 l 488 45 l 488 -61 l 113 -61 l 80 -28 l 79 -28 l 79 134 l 292 134 l 292 562 l 399 562 l 399 580 l 327 580 l 294 613 l 292 613 l 292 900 l 113 900 l 80 933 l 79 933 l 79 1096 l 455 1096 l 455 1095 l 488 1061 l 488 989 l 562 989 l 562 987 l 595 954 l 595 669 l 775 669 l 775 667 z "},"~":{"ha":961,"x_min":-28,"x_max":808,"o":"m 214 961 l 320 961 l 320 854 l 641 854 l 641 961 l 747 961 l 747 1068 l 534 1068 l 534 961 l 427 961 l 427 1068 l 106 1068 l 106 961 l 0 961 l 0 854 l 214 854 l 214 961 m 292 900 l 275 900 l 275 793 l 7 793 l -26 827 l -28 827 l -28 989 l 79 989 l 79 1096 l 455 1096 l 455 1095 l 488 1061 l 488 989 l 506 989 l 506 1096 l 775 1096 l 775 1095 l 808 1061 l 808 900 l 702 900 l 702 793 l 327 793 l 294 827 l 292 827 l 292 900 z "},"":{"ha":961,"x_min":0,"x_max":0,"o":""},"":{"ha":961,"x_min":186,"x_max":702,"o":"m 534 106 l 641 106 l 641 427 l 534 427 l 534 747 l 320 747 l 320 427 l 214 427 l 214 106 l 320 106 l 320 0 l 534 0 l 534 106 m 534 1068 l 320 1068 l 320 854 l 534 854 l 534 1068 m 669 454 l 702 420 l 702 45 l 595 45 l 595 -61 l 327 -61 l 294 -28 l 292 -28 l 292 45 l 220 45 l 187 79 l 186 79 l 186 455 l 292 455 l 292 775 l 562 775 l 562 774 l 595 741 l 595 455 l 669 455 l 669 454 m 562 1095 l 595 1061 l 595 793 l 327 793 l 294 827 l 292 827 l 292 1096 l 562 1096 l 562 1095 z "},"":{"ha":961,"x_min":-28,"x_max":916,"o":"m 534 214 l 747 214 l 747 320 l 854 320 l 854 427 l 641 427 l 641 320 l 214 320 l 214 854 l 641 854 l 641 747 l 854 747 l 854 854 l 747 854 l 747 961 l 534 961 l 534 1175 l 320 1175 l 320 961 l 106 961 l 106 854 l 0 854 l 0 320 l 106 320 l 106 214 l 320 214 l 320 0 l 534 0 l 534 214 m 882 454 l 916 420 l 916 259 l 808 259 l 808 153 l 595 153 l 595 -61 l 327 -61 l 294 -28 l 292 -28 l 292 153 l 113 153 l 80 186 l 79 186 l 79 259 l 7 259 l -26 292 l -28 292 l -28 882 l 79 882 l 79 989 l 292 989 l 292 1202 l 562 1202 l 562 1201 l 595 1168 l 595 989 l 775 989 l 775 987 l 808 954 l 808 882 l 882 882 l 882 881 l 916 848 l 916 686 l 648 686 l 614 720 l 613 720 l 613 793 l 275 793 l 275 348 l 613 348 l 613 455 l 882 455 l 882 454 z "},"":{"ha":961,"x_min":-28,"x_max":808,"o":"m 641 106 l 747 106 l 747 214 l 534 214 l 534 106 l 320 106 l 320 641 l 427 641 l 427 747 l 320 747 l 320 1068 l 427 1068 l 427 961 l 534 961 l 534 854 l 641 854 l 641 1068 l 534 1068 l 534 1175 l 214 1175 l 214 1068 l 106 1068 l 106 747 l 0 747 l 0 641 l 106 641 l 106 214 l 0 214 l 0 0 l 641 0 l 641 106 m 775 240 l 808 207 l 808 45 l 702 45 l 702 -61 l 7 -61 l -26 -28 l -28 -28 l -28 241 l 79 241 l 79 580 l 7 580 l -26 613 l -28 613 l -28 775 l 79 775 l 79 1096 l 186 1096 l 186 1202 l 562 1202 l 562 1201 l 595 1168 l 595 1096 l 669 1096 l 669 1095 l 702 1061 l 702 793 l 541 793 l 507 827 l 506 827 l 506 900 l 434 900 l 401 933 l 399 933 l 399 1007 l 381 1007 l 381 775 l 455 775 l 455 774 l 488 741 l 488 580 l 381 580 l 381 134 l 506 134 l 506 241 l 775 241 l 775 240 z "},"":{"ha":961,"x_min":-28,"x_max":808,"o":"m 214 641 l 534 641 l 534 214 l 214 214 l 214 641 m 214 106 l 534 106 l 534 0 l 747 0 l 747 106 l 641 106 l 641 214 l 747 214 l 747 641 l 641 641 l 641 747 l 747 747 l 747 854 l 534 854 l 534 747 l 214 747 l 214 854 l 0 854 l 0 747 l 106 747 l 106 641 l 0 641 l 0 214 l 106 214 l 106 106 l 0 106 l 0 0 l 214 0 l 214 106 m 506 580 l 275 580 l 275 241 l 506 241 l 506 580 m 506 45 l 275 45 l 275 -61 l 7 -61 l -26 -28 l -28 -28 l -28 134 l 79 134 l 79 153 l 7 153 l -26 186 l -28 186 l -28 669 l 79 669 l 79 686 l 7 686 l -26 720 l -28 720 l -28 882 l 241 882 l 241 881 l 275 848 l 275 775 l 506 775 l 506 882 l 775 882 l 775 881 l 808 848 l 808 686 l 702 686 l 702 669 l 775 669 l 775 667 l 808 634 l 808 153 l 702 153 l 702 134 l 775 134 l 775 133 l 808 100 l 808 -61 l 541 -61 l 507 -28 l 506 -28 l 506 45 z "},"":{"ha":961,"x_min":-28,"x_max":916,"o":"m 534 320 l 854 320 l 854 427 l 534 427 l 534 534 l 854 534 l 854 641 l 534 641 l 534 747 l 641 747 l 641 854 l 747 854 l 747 961 l 854 961 l 854 1068 l 641 1068 l 641 961 l 534 961 l 534 854 l 320 854 l 320 961 l 214 961 l 214 1068 l 0 1068 l 0 961 l 106 961 l 106 854 l 214 854 l 214 747 l 320 747 l 320 641 l 0 641 l 0 534 l 320 534 l 320 427 l 0 427 l 0 320 l 320 320 l 320 0 l 534 0 l 534 320 m 882 454 l 916 420 l 916 259 l 595 259 l 595 -61 l 327 -61 l 294 -28 l 292 -28 l 292 259 l 7 259 l -26 292 l -28 292 l -28 455 l 292 455 l 292 473 l 7 473 l -26 506 l -28 506 l -28 669 l 292 669 l 292 686 l 220 686 l 187 720 l 186 720 l 186 793 l 113 793 l 80 827 l 79 827 l 79 900 l 7 900 l -26 933 l -28 933 l -28 1096 l 241 1096 l 241 1095 l 275 1061 l 275 989 l 348 989 l 348 987 l 381 954 l 381 882 l 506 882 l 506 989 l 613 989 l 613 1096 l 882 1096 l 882 1095 l 916 1061 l 916 900 l 808 900 l 808 793 l 702 793 l 702 686 l 595 686 l 595 669 l 882 669 l 882 667 l 916 634 l 916 473 l 595 473 l 595 455 l 882 455 l 882 454 z "},"":{"ha":961,"x_min":292,"x_max":595,"o":"m 534 534 l 320 534 l 320 0 l 534 0 l 534 534 m 534 1068 l 320 1068 l 320 641 l 534 641 l 534 1068 m 562 560 l 595 527 l 595 -61 l 327 -61 l 294 -28 l 292 -28 l 292 562 l 562 562 l 562 560 m 562 1095 l 595 1061 l 595 580 l 327 580 l 294 613 l 292 613 l 292 1096 l 562 1096 l 562 1095 z "},"":{"ha":961,"x_min":-28,"x_max":808,"o":"m 320 427 l 214 427 l 214 641 l 320 641 l 320 747 l 427 747 l 427 641 l 534 641 l 534 427 l 427 427 l 427 320 l 320 320 l 320 427 m 641 0 l 747 0 l 747 106 l 641 106 l 641 214 l 534 214 l 534 320 l 641 320 l 641 427 l 747 427 l 747 641 l 641 641 l 641 747 l 534 747 l 534 854 l 320 854 l 320 961 l 214 961 l 214 1068 l 534 1068 l 534 961 l 747 961 l 747 1068 l 641 1068 l 641 1175 l 106 1175 l 106 1068 l 0 1068 l 0 961 l 106 961 l 106 854 l 214 854 l 214 747 l 106 747 l 106 641 l 0 641 l 0 427 l 106 427 l 106 320 l 214 320 l 214 214 l 427 214 l 427 106 l 534 106 l 534 0 l 214 0 l 214 106 l 0 106 l 0 0 l 106 0 l 106 -106 l 641 -106 l 641 0 m 348 455 l 348 454 l 381 420 l 381 348 l 399 348 l 399 455 l 506 455 l 506 580 l 434 580 l 401 613 l 399 613 l 399 686 l 381 686 l 381 580 l 275 580 l 275 455 l 348 455 m 775 133 l 808 100 l 808 -61 l 702 -61 l 702 -168 l 113 -168 l 80 -134 l 79 -134 l 79 -61 l 7 -61 l -26 -28 l -28 -28 l -28 134 l 241 134 l 241 133 l 275 100 l 275 28 l 506 28 l 506 45 l 434 45 l 401 79 l 399 79 l 399 153 l 220 153 l 187 186 l 186 186 l 186 259 l 113 259 l 80 292 l 79 292 l 79 366 l 7 366 l -26 399 l -28 399 l -28 669 l 79 669 l 79 775 l 186 775 l 186 793 l 113 793 l 80 827 l 79 827 l 79 900 l 7 900 l -26 933 l -28 933 l -28 1096 l 79 1096 l 79 1202 l 669 1202 l 669 1201 l 702 1168 l 702 1096 l 775 1096 l 775 1095 l 808 1061 l 808 900 l 541 900 l 507 933 l 506 933 l 506 1007 l 275 1007 l 275 989 l 348 989 l 348 987 l 381 954 l 381 882 l 562 882 l 562 881 l 595 848 l 595 775 l 669 775 l 669 774 l 702 741 l 702 669 l 775 669 l 775 667 l 808 634 l 808 366 l 702 366 l 702 259 l 595 259 l 595 241 l 669 241 l 669 240 l 702 207 l 702 134 l 775 134 l 775 133 z "},"":{"ha":961,"x_min":-28,"x_max":808,"o":"m 214 1175 l 0 1175 l 0 1068 l 214 1068 l 214 1175 m 747 1175 l 534 1175 l 534 1068 l 747 1068 l 747 1175 m 241 1201 l 275 1168 l 275 1007 l 7 1007 l -26 1040 l -28 1040 l -28 1202 l 241 1202 l 241 1201 m 775 1201 l 808 1168 l 808 1007 l 541 1007 l 507 1040 l 506 1040 l 506 1202 l 775 1202 l 775 1201 z "},"":{"ha":961,"x_min":-28,"x_max":808,"o":"m 106 106 l 106 961 l 641 961 l 641 106 l 106 106 m 0 106 l 106 106 l 106 0 l 641 0 l 641 106 l 747 106 l 747 961 l 641 961 l 641 1068 l 106 1068 l 106 961 l 0 961 l 0 106 m 214 320 l 320 320 l 320 214 l 534 214 l 534 320 l 320 320 l 320 747 l 534 747 l 534 854 l 320 854 l 320 747 l 214 747 l 214 320 m 613 900 l 168 900 l 168 134 l 613 134 l 613 900 m -28 79 l -28 989 l 79 989 l 79 1096 l 669 1096 l 669 1095 l 702 1061 l 702 989 l 775 989 l 775 987 l 808 954 l 808 45 l 702 45 l 702 -61 l 113 -61 l 80 -28 l 79 -28 l 79 45 l 7 45 l -26 79 l -28 79 m 186 292 l 186 775 l 292 775 l 292 882 l 562 882 l 562 881 l 595 848 l 595 686 l 381 686 l 381 348 l 562 348 l 562 347 l 595 313 l 595 153 l 327 153 l 294 186 l 292 186 l 292 259 l 220 259 l 187 292 l 186 292 z "},"":{"ha":961,"x_min":79,"x_max":808,"o":"m 747 641 l 106 641 l 106 534 l 747 534 l 747 641 m 320 1068 l 427 1068 l 427 854 l 320 854 l 320 1068 m 747 854 l 641 854 l 641 1175 l 214 1175 l 214 1068 l 106 1068 l 106 854 l 214 854 l 214 747 l 747 747 l 747 854 m 399 1007 l 381 1007 l 381 882 l 399 882 l 399 1007 m 775 669 l 775 667 l 808 634 l 808 473 l 113 473 l 80 506 l 79 506 l 79 669 l 775 669 m 775 882 l 775 881 l 808 848 l 808 686 l 220 686 l 187 720 l 186 720 l 186 793 l 113 793 l 80 827 l 79 827 l 79 1096 l 186 1096 l 186 1202 l 669 1202 l 669 1201 l 702 1168 l 702 882 l 775 882 z "},"":{"ha":961,"x_min":-28,"x_max":808,"o":"m 214 534 l 320 534 l 320 427 l 214 427 l 214 534 m 320 427 l 427 427 l 427 320 l 320 320 l 320 427 m 427 641 l 427 534 l 320 534 l 320 641 l 427 641 m 747 320 l 641 320 l 641 427 l 534 427 l 534 534 l 641 534 l 641 641 l 747 641 l 747 747 l 534 747 l 534 641 l 427 641 l 427 747 l 214 747 l 214 641 l 106 641 l 106 534 l 0 534 l 0 427 l 106 427 l 106 320 l 214 320 l 214 214 l 427 214 l 427 320 l 534 320 l 534 214 l 747 214 l 747 320 m 292 473 l 275 473 l 275 455 l 292 455 l 292 473 m 399 366 l 381 366 l 381 348 l 399 348 l 399 366 m 399 580 l 381 580 l 381 562 l 399 562 l 399 580 m 775 348 l 775 347 l 808 313 l 808 153 l 541 153 l 507 186 l 506 186 l 506 259 l 488 259 l 488 153 l 220 153 l 187 186 l 186 186 l 186 259 l 113 259 l 80 292 l 79 292 l 79 366 l 7 366 l -26 399 l -28 399 l -28 562 l 79 562 l 79 669 l 186 669 l 186 775 l 455 775 l 455 774 l 488 741 l 488 669 l 506 669 l 506 775 l 775 775 l 775 774 l 808 741 l 808 580 l 702 580 l 702 473 l 595 473 l 595 455 l 669 455 l 669 454 l 702 420 l 702 348 l 775 348 z "},"":{"ha":961,"x_min":-28,"x_max":808,"o":"m 747 641 l 0 641 l 0 534 l 534 534 l 534 106 l 747 106 l 747 641 m 775 667 l 808 634 l 808 45 l 541 45 l 507 79 l 506 79 l 506 473 l 7 473 l -26 506 l -28 506 l -28 669 l 775 669 l 775 667 z "},"":{"ha":961,"x_min":-28,"x_max":808,"o":"m 747 534 l 0 534 l 0 427 l 747 427 l 747 534 m 775 560 l 808 527 l 808 366 l 7 366 l -26 399 l -28 399 l -28 562 l 775 562 l 775 560 z "},"":{"ha":961,"x_min":-28,"x_max":808,"o":"m 106 214 l 106 961 l 641 961 l 641 214 l 106 214 m 320 641 l 320 747 l 427 747 l 427 641 l 320 641 m 0 214 l 106 214 l 106 106 l 641 106 l 641 214 l 747 214 l 747 961 l 641 961 l 641 1068 l 106 1068 l 106 961 l 0 961 l 0 214 m 320 534 l 427 534 l 427 320 l 534 320 l 534 534 l 427 534 l 427 641 l 534 641 l 534 747 l 427 747 l 427 854 l 214 854 l 214 320 l 320 320 l 320 534 m 613 900 l 168 900 l 168 241 l 613 241 l 613 900 m 399 686 l 381 686 l 381 669 l 399 669 l 399 686 m -28 186 l -28 989 l 79 989 l 79 1096 l 669 1096 l 669 1095 l 702 1061 l 702 989 l 775 989 l 775 987 l 808 954 l 808 153 l 702 153 l 702 45 l 113 45 l 80 79 l 79 79 l 79 153 l 7 153 l -26 186 l -28 186 m 399 473 l 381 473 l 381 259 l 220 259 l 187 292 l 186 292 l 186 882 l 455 882 l 455 881 l 488 848 l 488 775 l 562 775 l 562 774 l 595 741 l 595 580 l 488 580 l 488 562 l 562 562 l 562 560 l 595 527 l 595 259 l 434 259 l 401 292 l 399 292 l 399 473 z "},"":{"ha":961,"x_min":-28,"x_max":916,"o":"m 854 1175 l 0 1175 l 0 1068 l 854 1068 l 854 1175 m 882 1201 l 916 1168 l 916 1007 l 7 1007 l -26 1040 l -28 1040 l -28 1202 l 882 1202 l 882 1201 z "},"":{"ha":961,"x_min":79,"x_max":702,"o":"m 320 1068 l 427 1068 l 427 854 l 320 854 l 320 1068 m 534 854 l 641 854 l 641 1068 l 534 1068 l 534 1175 l 214 1175 l 214 1068 l 106 1068 l 106 854 l 214 854 l 214 747 l 534 747 l 534 854 m 399 1007 l 381 1007 l 381 882 l 399 882 l 399 1007 m 669 1095 l 702 1061 l 702 793 l 595 793 l 595 686 l 220 686 l 187 720 l 186 720 l 186 793 l 113 793 l 80 827 l 79 827 l 79 1096 l 186 1096 l 186 1202 l 562 1202 l 562 1201 l 595 1168 l 595 1096 l 669 1096 l 669 1095 z "},"":{"ha":961,"x_min":-28,"x_max":916,"o":"m 854 106 l 0 106 l 0 0 l 854 0 l 854 106 m 534 534 l 747 534 l 747 641 l 534 641 l 534 854 l 320 854 l 320 641 l 106 641 l 106 534 l 320 534 l 320 320 l 534 320 l 534 534 m 882 133 l 916 100 l 916 -61 l 7 -61 l -26 -28 l -28 -28 l -28 134 l 882 134 l 882 133 m 775 667 l 808 634 l 808 473 l 595 473 l 595 259 l 327 259 l 294 292 l 292 292 l 292 473 l 113 473 l 80 506 l 79 506 l 79 669 l 292 669 l 292 882 l 562 882 l 562 881 l 595 848 l 595 669 l 775 669 l 775 667 z "},"":{"ha":961,"x_min":-28,"x_max":595,"o":"m 320 1068 l 320 961 l 214 961 l 214 1068 l 320 1068 m 534 747 l 427 747 l 427 641 l 214 641 l 214 747 l 320 747 l 320 854 l 427 854 l 427 961 l 534 961 l 534 1068 l 427 1068 l 427 1175 l 106 1175 l 106 1068 l 0 1068 l 0 961 l 214 961 l 214 854 l 106 854 l 106 747 l 0 747 l 0 534 l 534 534 l 534 747 m 292 1007 l 275 1007 l 275 989 l 292 989 l 292 1007 m 562 775 l 562 774 l 595 741 l 595 473 l 7 473 l -26 506 l -28 506 l -28 775 l 79 775 l 79 882 l 186 882 l 186 900 l 7 900 l -26 933 l -28 933 l -28 1096 l 79 1096 l 79 1202 l 455 1202 l 455 1201 l 488 1168 l 488 1096 l 562 1096 l 562 1095 l 595 1061 l 595 900 l 488 900 l 488 793 l 381 793 l 381 686 l 275 686 l 275 669 l 399 669 l 399 775 l 562 775 z "},"":{"ha":961,"x_min":-28,"x_max":595,"o":"m 427 641 l 534 641 l 534 854 l 427 854 l 427 961 l 534 961 l 534 1068 l 427 1068 l 427 1175 l 0 1175 l 0 1068 l 320 1068 l 320 961 l 106 961 l 106 854 l 320 854 l 320 641 l 0 641 l 0 534 l 427 534 l 427 641 m 562 881 l 595 848 l 595 580 l 488 580 l 488 473 l 7 473 l -26 506 l -28 506 l -28 669 l 292 669 l 292 793 l 113 793 l 80 827 l 79 827 l 79 989 l 292 989 l 292 1007 l 7 1007 l -26 1040 l -28 1040 l -28 1202 l 455 1202 l 455 1201 l 488 1168 l 488 1096 l 562 1096 l 562 1095 l 595 1061 l 595 900 l 488 900 l 488 882 l 562 882 l 562 881 z "},"":{"ha":961,"x_min":186,"x_max":702,"o":"m 427 961 l 534 961 l 534 1068 l 641 1068 l 641 1175 l 427 1175 l 427 1068 l 320 1068 l 320 961 l 214 961 l 214 854 l 427 854 l 427 961 m 669 1201 l 702 1168 l 702 1007 l 595 1007 l 595 900 l 488 900 l 488 793 l 220 793 l 187 827 l 186 827 l 186 989 l 292 989 l 292 1096 l 399 1096 l 399 1202 l 669 1202 l 669 1201 z "},"":{"ha":961,"x_min":-28,"x_max":808,"o":"m 214 0 l 320 0 l 320 214 l 641 214 l 641 320 l 747 320 l 747 854 l 534 854 l 534 320 l 320 320 l 320 854 l 106 854 l 106 0 l 0 0 l 0 -106 l 214 -106 l 214 0 m 775 881 l 808 848 l 808 259 l 702 259 l 702 153 l 381 153 l 381 -61 l 275 -61 l 275 -168 l 7 -168 l -26 -134 l -28 -134 l -28 28 l 79 28 l 79 882 l 348 882 l 348 881 l 381 848 l 381 348 l 506 348 l 506 882 l 775 882 l 775 881 z "},"":{"ha":961,"x_min":-28,"x_max":916,"o":"m 214 961 l 320 961 l 320 641 l 214 641 l 214 961 m 534 961 l 641 961 l 641 0 l 854 0 l 854 1068 l 106 1068 l 106 961 l 0 961 l 0 641 l 106 641 l 106 534 l 320 534 l 320 0 l 534 0 l 534 961 m 292 900 l 275 900 l 275 669 l 292 669 l 292 900 m 613 900 l 595 900 l 595 -61 l 327 -61 l 294 -28 l 292 -28 l 292 473 l 113 473 l 80 506 l 79 506 l 79 580 l 7 580 l -26 613 l -28 613 l -28 989 l 79 989 l 79 1096 l 882 1096 l 882 1095 l 916 1061 l 916 -61 l 648 -61 l 614 -28 l 613 -28 l 613 900 z "},"":{"ha":961,"x_min":292,"x_max":595,"o":"m 534 427 l 320 427 l 320 320 l 534 320 l 534 427 m 562 454 l 595 420 l 595 259 l 327 259 l 294 292 l 292 292 l 292 455 l 562 455 l 562 454 z "},"":{"ha":961,"x_min":79,"x_max":702,"o":"m 534 -106 l 641 -106 l 641 0 l 534 0 l 534 106 l 320 106 l 320 0 l 427 0 l 427 -106 l 106 -106 l 106 -214 l 534 -214 l 534 -106 m 669 26 l 702 -7 l 702 -168 l 595 -168 l 595 -275 l 113 -275 l 80 -241 l 79 -241 l 79 -79 l 399 -79 l 399 -61 l 327 -61 l 294 -28 l 292 -28 l 292 134 l 562 134 l 562 133 l 595 100 l 595 28 l 669 28 l 669 26 z "},"":{"ha":961,"x_min":79,"x_max":595,"o":"m 534 641 l 427 641 l 427 1175 l 214 1175 l 214 1068 l 106 1068 l 106 961 l 214 961 l 214 641 l 106 641 l 106 534 l 534 534 l 534 641 m 562 667 l 595 634 l 595 473 l 113 473 l 80 506 l 79 506 l 79 669 l 186 669 l 186 900 l 113 900 l 80 933 l 79 933 l 79 1096 l 186 1096 l 186 1202 l 455 1202 l 455 1201 l 488 1168 l 488 669 l 562 669 l 562 667 z "},"":{"ha":961,"x_min":79,"x_max":702,"o":"m 641 641 l 106 641 l 106 534 l 641 534 l 641 641 m 320 1068 l 427 1068 l 427 854 l 320 854 l 320 1068 m 534 854 l 641 854 l 641 1068 l 534 1068 l 534 1175 l 214 1175 l 214 1068 l 106 1068 l 106 854 l 214 854 l 214 747 l 534 747 l 534 854 m 399 1007 l 381 1007 l 381 882 l 399 882 l 399 1007 m 669 669 l 669 667 l 702 634 l 702 473 l 113 473 l 80 506 l 79 506 l 79 669 l 669 669 m 669 1095 l 702 1061 l 702 793 l 595 793 l 595 686 l 220 686 l 187 720 l 186 720 l 186 793 l 113 793 l 80 827 l 79 827 l 79 1096 l 186 1096 l 186 1202 l 562 1202 l 562 1201 l 595 1168 l 595 1096 l 669 1096 l 669 1095 z "},"":{"ha":961,"x_min":-28,"x_max":808,"o":"m 427 427 l 427 320 l 320 320 l 320 427 l 427 427 m 320 641 l 427 641 l 427 534 l 320 534 l 320 641 m 534 534 l 534 427 l 427 427 l 427 534 l 534 534 m 534 320 l 641 320 l 641 427 l 747 427 l 747 534 l 641 534 l 641 641 l 534 641 l 534 747 l 320 747 l 320 641 l 214 641 l 214 747 l 0 747 l 0 641 l 106 641 l 106 534 l 214 534 l 214 427 l 106 427 l 106 320 l 0 320 l 0 214 l 214 214 l 214 320 l 320 320 l 320 214 l 534 214 l 534 320 m 399 366 l 381 366 l 381 348 l 399 348 l 399 366 m 399 580 l 381 580 l 381 562 l 399 562 l 399 580 m 506 473 l 488 473 l 488 455 l 506 455 l 506 473 m 775 560 l 808 527 l 808 366 l 702 366 l 702 259 l 595 259 l 595 153 l 327 153 l 294 186 l 292 186 l 292 259 l 275 259 l 275 153 l 7 153 l -26 186 l -28 186 l -28 348 l 79 348 l 79 455 l 186 455 l 186 473 l 113 473 l 80 506 l 79 506 l 79 580 l 7 580 l -26 613 l -28 613 l -28 775 l 241 775 l 241 774 l 275 741 l 275 669 l 292 669 l 292 775 l 562 775 l 562 774 l 595 741 l 595 669 l 669 669 l 669 667 l 702 634 l 702 562 l 775 562 l 775 560 z "},"":{"ha":961,"x_min":-28,"x_max":808,"o":"m 534 106 l 427 106 l 427 214 l 534 214 l 534 106 m 747 427 l 534 427 l 534 320 l 427 320 l 427 214 l 320 214 l 320 106 l 214 106 l 214 0 l 534 0 l 534 -214 l 747 -214 l 747 427 m 106 214 l 214 214 l 214 320 l 320 320 l 320 427 l 427 427 l 427 534 l 534 534 l 534 641 l 641 641 l 641 747 l 747 747 l 747 961 l 641 961 l 641 854 l 534 854 l 534 747 l 427 747 l 427 641 l 320 641 l 320 534 l 214 534 l 214 427 l 106 427 l 106 320 l 0 320 l 0 106 l 106 106 l 106 214 m 214 1175 l 0 1175 l 0 641 l 214 641 l 214 1175 m 506 134 l 506 153 l 488 153 l 488 134 l 506 134 m 775 455 l 775 454 l 808 420 l 808 -275 l 541 -275 l 507 -241 l 506 -241 l 506 -61 l 220 -61 l 187 -28 l 186 -28 l 186 134 l 292 134 l 292 241 l 399 241 l 399 348 l 506 348 l 506 455 l 775 455 m 775 987 l 808 954 l 808 686 l 702 686 l 702 580 l 595 580 l 595 473 l 488 473 l 488 366 l 381 366 l 381 259 l 275 259 l 275 153 l 168 153 l 168 45 l 7 45 l -26 79 l -28 79 l -28 348 l 79 348 l 79 455 l 186 455 l 186 562 l 292 562 l 292 669 l 399 669 l 399 775 l 506 775 l 506 882 l 613 882 l 613 989 l 775 989 l 775 987 m 241 1202 l 241 1201 l 275 1168 l 275 580 l 7 580 l -26 613 l -28 613 l -28 1202 l 241 1202 z "},"":{"ha":961,"x_min":-28,"x_max":916,"o":"m 641 214 l 641 106 l 534 106 l 534 214 l 641 214 m 854 -106 l 641 -106 l 641 0 l 747 0 l 747 106 l 854 106 l 854 214 l 747 214 l 747 320 l 427 320 l 427 214 l 320 214 l 320 106 l 534 106 l 534 0 l 427 0 l 427 -106 l 320 -106 l 320 -214 l 854 -214 l 854 -106 m 106 214 l 214 214 l 214 320 l 320 320 l 320 427 l 427 427 l 427 534 l 534 534 l 534 641 l 641 641 l 641 747 l 747 747 l 747 961 l 641 961 l 641 854 l 534 854 l 534 747 l 427 747 l 427 641 l 320 641 l 320 534 l 214 534 l 214 427 l 106 427 l 106 320 l 0 320 l 0 106 l 106 106 l 106 214 m 214 1175 l 0 1175 l 0 641 l 214 641 l 214 1175 m 613 153 l 595 153 l 595 134 l 613 134 l 613 153 m 882 -79 l 882 -80 l 916 -113 l 916 -275 l 327 -275 l 294 -241 l 292 -241 l 292 -79 l 399 -79 l 399 28 l 506 28 l 506 45 l 327 45 l 294 79 l 292 79 l 292 241 l 399 241 l 399 348 l 775 348 l 775 347 l 808 313 l 808 241 l 882 241 l 882 240 l 916 207 l 916 45 l 808 45 l 808 -61 l 702 -61 l 702 -79 l 882 -79 m 775 987 l 808 954 l 808 686 l 702 686 l 702 580 l 595 580 l 595 473 l 488 473 l 488 366 l 381 366 l 381 259 l 275 259 l 275 153 l 168 153 l 168 45 l 7 45 l -26 79 l -28 79 l -28 348 l 79 348 l 79 455 l 186 455 l 186 562 l 292 562 l 292 669 l 399 669 l 399 775 l 506 775 l 506 882 l 613 882 l 613 989 l 775 989 l 775 987 m 241 1202 l 241 1201 l 275 1168 l 275 580 l 7 580 l -26 613 l -28 613 l -28 1202 l 241 1202 z "},"":{"ha":961,"x_min":-28,"x_max":808,"o":"m 534 106 l 427 106 l 427 214 l 534 214 l 534 106 m 320 641 l 320 747 l 427 747 l 427 641 l 320 641 m 747 427 l 534 427 l 534 320 l 427 320 l 427 214 l 320 214 l 320 106 l 214 106 l 214 0 l 534 0 l 534 -214 l 747 -214 l 747 427 m 320 534 l 214 534 l 214 427 l 106 427 l 106 320 l 0 320 l 0 106 l 106 106 l 106 214 l 214 214 l 214 320 l 320 320 l 320 427 l 427 427 l 427 534 l 534 534 l 534 641 l 641 641 l 641 747 l 747 747 l 747 961 l 641 961 l 641 854 l 534 854 l 534 747 l 427 747 l 427 854 l 320 854 l 320 961 l 427 961 l 427 1068 l 320 1068 l 320 1175 l 0 1175 l 0 1068 l 214 1068 l 214 961 l 106 961 l 106 854 l 214 854 l 214 747 l 0 747 l 0 641 l 320 641 l 320 534 m 506 134 l 506 153 l 488 153 l 488 134 l 506 134 m 399 686 l 381 686 l 381 669 l 399 669 l 399 686 m 775 455 l 775 454 l 808 420 l 808 -275 l 541 -275 l 507 -241 l 506 -241 l 506 -61 l 220 -61 l 187 -28 l 186 -28 l 186 134 l 292 134 l 292 241 l 399 241 l 399 348 l 506 348 l 506 455 l 775 455 m 292 562 l 292 580 l 7 580 l -26 613 l -28 613 l -28 775 l 186 775 l 186 793 l 113 793 l 80 827 l 79 827 l 79 989 l 186 989 l 186 1007 l 7 1007 l -26 1040 l -28 1040 l -28 1202 l 348 1202 l 348 1201 l 381 1168 l 381 1096 l 455 1096 l 455 1095 l 488 1061 l 488 900 l 381 900 l 381 882 l 455 882 l 455 881 l 488 848 l 488 775 l 506 775 l 506 882 l 613 882 l 613 989 l 775 989 l 775 987 l 808 954 l 808 686 l 702 686 l 702 580 l 595 580 l 595 473 l 488 473 l 488 366 l 381 366 l 381 259 l 275 259 l 275 153 l 168 153 l 168 45 l 7 45 l -26 79 l -28 79 l -28 348 l 79 348 l 79 455 l 186 455 l 186 562 l 292 562 z "},"":{"ha":961,"x_min":-28,"x_max":808,"o":"m 641 106 l 747 106 l 747 320 l 534 320 l 534 106 l 214 106 l 214 427 l 320 427 l 320 534 l 427 534 l 427 747 l 214 747 l 214 534 l 106 534 l 106 427 l 0 427 l 0 106 l 106 106 l 106 0 l 641 0 l 641 106 m 427 1068 l 214 1068 l 214 854 l 427 854 l 427 1068 m 775 347 l 808 313 l 808 45 l 702 45 l 702 -61 l 113 -61 l 80 -28 l 79 -28 l 79 45 l 7 45 l -26 79 l -28 79 l -28 455 l 79 455 l 79 562 l 186 562 l 186 775 l 455 775 l 455 774 l 488 741 l 488 473 l 381 473 l 381 366 l 275 366 l 275 134 l 506 134 l 506 348 l 775 348 l 775 347 m 455 1095 l 488 1061 l 488 793 l 220 793 l 187 827 l 186 827 l 186 1096 l 455 1096 l 455 1095 z "},"":{"ha":961,"x_min":-28,"x_max":808,"o":"m 214 747 l 320 747 l 320 854 l 427 854 l 427 747 l 534 747 l 534 534 l 214 534 l 214 747 m 214 427 l 534 427 l 534 0 l 747 0 l 747 747 l 641 747 l 641 854 l 534 854 l 534 961 l 427 961 l 427 1068 l 320 1068 l 320 961 l 214 961 l 214 854 l 106 854 l 106 747 l 0 747 l 0 0 l 214 0 l 214 427 m 747 1175 l 641 1175 l 641 1282 l 427 1282 l 427 1175 l 534 1175 l 534 1068 l 747 1068 l 747 1175 m 399 793 l 381 793 l 381 686 l 275 686 l 275 562 l 506 562 l 506 686 l 434 686 l 401 720 l 399 720 l 399 793 m 506 366 l 275 366 l 275 -61 l 7 -61 l -26 -28 l -28 -28 l -28 775 l 79 775 l 79 882 l 186 882 l 186 989 l 292 989 l 292 1096 l 455 1096 l 455 1095 l 488 1061 l 488 989 l 562 989 l 562 987 l 595 954 l 595 882 l 669 882 l 669 881 l 702 848 l 702 775 l 775 775 l 775 774 l 808 741 l 808 -61 l 541 -61 l 507 -28 l 506 -28 l 506 366 m 775 1202 l 775 1201 l 808 1168 l 808 1007 l 541 1007 l 507 1040 l 506 1040 l 506 1114 l 434 1114 l 401 1147 l 399 1147 l 399 1310 l 669 1310 l 669 1308 l 702 1275 l 702 1202 l 775 1202 z "},"":{"ha":961,"x_min":-28,"x_max":808,"o":"m 214 747 l 320 747 l 320 854 l 427 854 l 427 747 l 534 747 l 534 534 l 214 534 l 214 747 m 214 427 l 534 427 l 534 0 l 747 0 l 747 747 l 641 747 l 641 854 l 534 854 l 534 961 l 427 961 l 427 1068 l 320 1068 l 320 961 l 214 961 l 214 854 l 106 854 l 106 747 l 0 747 l 0 0 l 214 0 l 214 427 m 214 1175 l 320 1175 l 320 1282 l 106 1282 l 106 1175 l 0 1175 l 0 1068 l 214 1068 l 214 1175 m 399 793 l 381 793 l 381 686 l 275 686 l 275 562 l 506 562 l 506 686 l 434 686 l 401 720 l 399 720 l 399 793 m 506 366 l 275 366 l 275 -61 l 7 -61 l -26 -28 l -28 -28 l -28 775 l 79 775 l 79 882 l 186 882 l 186 989 l 292 989 l 292 1096 l 455 1096 l 455 1095 l 488 1061 l 488 989 l 562 989 l 562 987 l 595 954 l 595 882 l 669 882 l 669 881 l 702 848 l 702 775 l 775 775 l 775 774 l 808 741 l 808 -61 l 541 -61 l 507 -28 l 506 -28 l 506 366 m 348 1308 l 381 1275 l 381 1114 l 275 1114 l 275 1007 l 7 1007 l -26 1040 l -28 1040 l -28 1202 l 79 1202 l 79 1310 l 348 1310 l 348 1308 z "},"":{"ha":961,"x_min":-28,"x_max":808,"o":"m 214 747 l 320 747 l 320 854 l 427 854 l 427 747 l 534 747 l 534 534 l 214 534 l 214 747 m 214 427 l 534 427 l 534 0 l 747 0 l 747 747 l 641 747 l 641 854 l 534 854 l 534 961 l 427 961 l 427 1068 l 320 1068 l 320 961 l 214 961 l 214 854 l 106 854 l 106 747 l 0 747 l 0 0 l 214 0 l 214 427 m 214 1175 l 534 1175 l 534 1068 l 747 1068 l 747 1175 l 641 1175 l 641 1282 l 106 1282 l 106 1175 l 0 1175 l 0 1068 l 214 1068 l 214 1175 m 399 793 l 381 793 l 381 686 l 275 686 l 275 562 l 506 562 l 506 686 l 434 686 l 401 720 l 399 720 l 399 793 m 506 366 l 275 366 l 275 -61 l 7 -61 l -26 -28 l -28 -28 l -28 775 l 79 775 l 79 882 l 186 882 l 186 989 l 292 989 l 292 1096 l 455 1096 l 455 1095 l 488 1061 l 488 989 l 562 989 l 562 987 l 595 954 l 595 882 l 669 882 l 669 881 l 702 848 l 702 775 l 775 775 l 775 774 l 808 741 l 808 -61 l 541 -61 l 507 -28 l 506 -28 l 506 366 m 506 1114 l 275 1114 l 275 1007 l 7 1007 l -26 1040 l -28 1040 l -28 1202 l 79 1202 l 79 1310 l 669 1310 l 669 1308 l 702 1275 l 702 1202 l 775 1202 l 775 1201 l 808 1168 l 808 1007 l 541 1007 l 507 1040 l 506 1040 l 506 1114 z "},"":{"ha":961,"x_min":-28,"x_max":808,"o":"m 214 641 l 320 641 l 320 747 l 427 747 l 427 641 l 534 641 l 534 427 l 214 427 l 214 641 m 214 320 l 534 320 l 534 0 l 747 0 l 747 641 l 641 641 l 641 747 l 534 747 l 534 854 l 427 854 l 427 961 l 320 961 l 320 854 l 214 854 l 214 747 l 106 747 l 106 641 l 0 641 l 0 0 l 214 0 l 214 320 m 214 1175 l 320 1175 l 320 1068 l 641 1068 l 641 1175 l 747 1175 l 747 1282 l 534 1282 l 534 1175 l 427 1175 l 427 1282 l 106 1282 l 106 1175 l 0 1175 l 0 1068 l 214 1068 l 214 1175 m 399 686 l 381 686 l 381 580 l 275 580 l 275 455 l 506 455 l 506 580 l 434 580 l 401 613 l 399 613 l 399 686 m 506 259 l 275 259 l 275 -61 l 7 -61 l -26 -28 l -28 -28 l -28 669 l 79 669 l 79 775 l 186 775 l 186 882 l 292 882 l 292 989 l 455 989 l 455 987 l 488 954 l 488 882 l 562 882 l 562 881 l 595 848 l 595 775 l 669 775 l 669 774 l 702 741 l 702 669 l 775 669 l 775 667 l 808 634 l 808 -61 l 541 -61 l 507 -28 l 506 -28 l 506 259 m 292 1114 l 275 1114 l 275 1007 l 7 1007 l -26 1040 l -28 1040 l -28 1202 l 79 1202 l 79 1310 l 455 1310 l 455 1308 l 488 1275 l 488 1202 l 506 1202 l 506 1310 l 775 1310 l 775 1308 l 808 1275 l 808 1114 l 702 1114 l 702 1007 l 327 1007 l 294 1040 l 292 1040 l 292 1114 z "},"":{"ha":961,"x_min":-28,"x_max":808,"o":"m 214 641 l 320 641 l 320 747 l 427 747 l 427 641 l 534 641 l 534 427 l 214 427 l 214 641 m 214 320 l 534 320 l 534 0 l 747 0 l 747 641 l 641 641 l 641 747 l 534 747 l 534 854 l 427 854 l 427 961 l 320 961 l 320 854 l 214 854 l 214 747 l 106 747 l 106 641 l 0 641 l 0 0 l 214 0 l 214 320 m 214 1175 l 0 1175 l 0 1068 l 214 1068 l 214 1175 m 747 1175 l 534 1175 l 534 1068 l 747 1068 l 747 1175 m 399 686 l 381 686 l 381 580 l 275 580 l 275 455 l 506 455 l 506 580 l 434 580 l 401 613 l 399 613 l 399 686 m 506 259 l 275 259 l 275 -61 l 7 -61 l -26 -28 l -28 -28 l -28 669 l 79 669 l 79 775 l 186 775 l 186 882 l 292 882 l 292 989 l 455 989 l 455 987 l 488 954 l 488 882 l 562 882 l 562 881 l 595 848 l 595 775 l 669 775 l 669 774 l 702 741 l 702 669 l 775 669 l 775 667 l 808 634 l 808 -61 l 541 -61 l 507 -28 l 506 -28 l 506 259 m 241 1202 l 241 1201 l 275 1168 l 275 1007 l 7 1007 l -26 1040 l -28 1040 l -28 1202 l 241 1202 m 775 1202 l 775 1201 l 808 1168 l 808 1007 l 541 1007 l 507 1040 l 506 1040 l 506 1202 l 775 1202 z "},"":{"ha":961,"x_min":-28,"x_max":808,"o":"m 214 641 l 320 641 l 320 747 l 427 747 l 427 641 l 534 641 l 534 427 l 214 427 l 214 641 m 214 320 l 534 320 l 534 0 l 747 0 l 747 641 l 641 641 l 641 747 l 534 747 l 534 854 l 214 854 l 214 747 l 106 747 l 106 641 l 0 641 l 0 0 l 214 0 l 214 320 m 320 1175 l 427 1175 l 427 1068 l 320 1068 l 320 1175 m 534 1068 l 641 1068 l 641 1175 l 534 1175 l 534 1282 l 214 1282 l 214 1175 l 106 1175 l 106 1068 l 214 1068 l 214 961 l 534 961 l 534 1068 m 399 686 l 381 686 l 381 580 l 275 580 l 275 455 l 506 455 l 506 580 l 434 580 l 401 613 l 399 613 l 399 686 m 399 1114 l 381 1114 l 381 1096 l 399 1096 l 399 1114 m 506 259 l 275 259 l 275 -61 l 7 -61 l -26 -28 l -28 -28 l -28 669 l 79 669 l 79 775 l 186 775 l 186 882 l 562 882 l 562 881 l 595 848 l 595 775 l 669 775 l 669 774 l 702 741 l 702 669 l 775 669 l 775 667 l 808 634 l 808 -61 l 541 -61 l 507 -28 l 506 -28 l 506 259 m 669 1201 l 702 1168 l 702 1007 l 595 1007 l 595 900 l 220 900 l 187 933 l 186 933 l 186 1007 l 113 1007 l 80 1040 l 79 1040 l 79 1202 l 186 1202 l 186 1310 l 562 1310 l 562 1308 l 595 1275 l 595 1202 l 669 1202 l 669 1201 z "},"":{"ha":961,"x_min":-28,"x_max":808,"o":"m 214 854 l 320 854 l 320 961 l 427 961 l 427 641 l 214 641 l 214 854 m 214 534 l 427 534 l 427 0 l 747 0 l 747 106 l 641 106 l 641 534 l 747 534 l 747 641 l 641 641 l 641 961 l 747 961 l 747 1068 l 214 1068 l 214 961 l 106 961 l 106 854 l 0 854 l 0 0 l 214 0 l 214 534 m 399 900 l 381 900 l 381 793 l 275 793 l 275 669 l 399 669 l 399 900 m 399 473 l 275 473 l 275 -61 l 7 -61 l -26 -28 l -28 -28 l -28 882 l 79 882 l 79 989 l 186 989 l 186 1096 l 775 1096 l 775 1095 l 808 1061 l 808 900 l 702 900 l 702 669 l 775 669 l 775 667 l 808 634 l 808 473 l 702 473 l 702 134 l 775 134 l 775 133 l 808 100 l 808 -61 l 434 -61 l 401 -28 l 399 -28 l 399 473 z "},"":{"ha":961,"x_min":-28,"x_max":808,"o":"m 641 -106 l 747 -106 l 747 0 l 641 0 l 641 214 l 747 214 l 747 427 l 641 427 l 641 320 l 534 320 l 534 214 l 320 214 l 320 320 l 214 320 l 214 854 l 320 854 l 320 961 l 534 961 l 534 854 l 641 854 l 641 747 l 747 747 l 747 961 l 641 961 l 641 1068 l 214 1068 l 214 961 l 106 961 l 106 854 l 0 854 l 0 320 l 106 320 l 106 214 l 214 214 l 214 106 l 427 106 l 427 0 l 534 0 l 534 -106 l 106 -106 l 106 -214 l 641 -214 l 641 -106 m 775 26 l 808 -7 l 808 -168 l 702 -168 l 702 -275 l 113 -275 l 80 -241 l 79 -241 l 79 -79 l 506 -79 l 506 -61 l 434 -61 l 401 -28 l 399 -28 l 399 45 l 220 45 l 187 79 l 186 79 l 186 153 l 113 153 l 80 186 l 79 186 l 79 259 l 7 259 l -26 292 l -28 292 l -28 882 l 79 882 l 79 989 l 186 989 l 186 1096 l 669 1096 l 669 1095 l 702 1061 l 702 989 l 775 989 l 775 987 l 808 954 l 808 686 l 648 686 l 614 720 l 613 720 l 613 793 l 541 793 l 507 827 l 506 827 l 506 900 l 381 900 l 381 793 l 275 793 l 275 348 l 348 348 l 348 347 l 381 313 l 381 241 l 506 241 l 506 348 l 613 348 l 613 455 l 775 455 l 775 454 l 808 420 l 808 153 l 702 153 l 702 28 l 775 28 l 775 26 z "},"":{"ha":961,"x_min":-28,"x_max":808,"o":"m 747 320 l 641 320 l 641 214 l 534 214 l 534 106 l 320 106 l 320 427 l 427 427 l 427 320 l 534 320 l 534 641 l 427 641 l 427 534 l 320 534 l 320 854 l 534 854 l 534 747 l 641 747 l 641 641 l 747 641 l 747 961 l 0 961 l 0 854 l 106 854 l 106 106 l 0 106 l 0 0 l 747 0 l 747 320 m 534 1175 l 427 1175 l 427 1282 l 214 1282 l 214 1175 l 320 1175 l 320 1068 l 534 1068 l 534 1175 m 775 347 l 808 313 l 808 -61 l 7 -61 l -26 -28 l -28 -28 l -28 134 l 79 134 l 79 793 l 7 793 l -26 827 l -28 827 l -28 989 l 775 989 l 775 987 l 808 954 l 808 580 l 648 580 l 614 613 l 613 613 l 613 686 l 541 686 l 507 720 l 506 720 l 506 793 l 381 793 l 381 562 l 399 562 l 399 669 l 562 669 l 562 667 l 595 634 l 595 259 l 434 259 l 401 292 l 399 292 l 399 366 l 381 366 l 381 134 l 506 134 l 506 241 l 613 241 l 613 348 l 775 348 l 775 347 m 562 1201 l 595 1168 l 595 1007 l 327 1007 l 294 1040 l 292 1040 l 292 1114 l 220 1114 l 187 1147 l 186 1147 l 186 1310 l 455 1310 l 455 1308 l 488 1275 l 488 1202 l 562 1202 l 562 1201 z "},"":{"ha":961,"x_min":-28,"x_max":808,"o":"m 747 214 l 534 214 l 534 106 l 320 106 l 320 427 l 641 427 l 641 534 l 320 534 l 320 747 l 534 747 l 534 641 l 747 641 l 747 854 l 0 854 l 0 747 l 106 747 l 106 106 l 0 106 l 0 0 l 747 0 l 747 214 m 320 1068 l 427 1068 l 427 1175 l 534 1175 l 534 1282 l 320 1282 l 320 1175 l 214 1175 l 214 1068 l 106 1068 l 106 961 l 320 961 l 320 1068 m 775 240 l 808 207 l 808 -61 l 7 -61 l -26 -28 l -28 -28 l -28 134 l 79 134 l 79 686 l 7 686 l -26 720 l -28 720 l -28 882 l 775 882 l 775 881 l 808 848 l 808 580 l 541 580 l 507 613 l 506 613 l 506 686 l 381 686 l 381 562 l 669 562 l 669 560 l 702 527 l 702 366 l 381 366 l 381 134 l 506 134 l 506 241 l 775 241 l 775 240 m 562 1308 l 595 1275 l 595 1114 l 488 1114 l 488 1007 l 381 1007 l 381 900 l 113 900 l 80 933 l 79 933 l 79 1096 l 186 1096 l 186 1202 l 292 1202 l 292 1310 l 562 1310 l 562 1308 z "},"":{"ha":961,"x_min":-28,"x_max":808,"o":"m 747 320 l 641 320 l 641 214 l 534 214 l 534 106 l 320 106 l 320 427 l 427 427 l 427 320 l 534 320 l 534 641 l 427 641 l 427 534 l 320 534 l 320 854 l 534 854 l 534 747 l 641 747 l 641 641 l 747 641 l 747 961 l 0 961 l 0 854 l 106 854 l 106 106 l 0 106 l 0 0 l 747 0 l 747 320 m 320 1175 l 427 1175 l 427 1068 l 641 1068 l 641 1175 l 534 1175 l 534 1282 l 214 1282 l 214 1175 l 106 1175 l 106 1068 l 320 1068 l 320 1175 m 775 347 l 808 313 l 808 -61 l 7 -61 l -26 -28 l -28 -28 l -28 134 l 79 134 l 79 793 l 7 793 l -26 827 l -28 827 l -28 989 l 775 989 l 775 987 l 808 954 l 808 580 l 648 580 l 614 613 l 613 613 l 613 686 l 541 686 l 507 720 l 506 720 l 506 793 l 381 793 l 381 562 l 399 562 l 399 669 l 562 669 l 562 667 l 595 634 l 595 259 l 434 259 l 401 292 l 399 292 l 399 366 l 381 366 l 381 134 l 506 134 l 506 241 l 613 241 l 613 348 l 775 348 l 775 347 m 399 1114 l 381 1114 l 381 1007 l 113 1007 l 80 1040 l 79 1040 l 79 1202 l 186 1202 l 186 1310 l 562 1310 l 562 1308 l 595 1275 l 595 1202 l 669 1202 l 669 1201 l 702 1168 l 702 1007 l 434 1007 l 401 1040 l 399 1040 l 399 1114 z "},"":{"ha":961,"x_min":-28,"x_max":808,"o":"m 747 320 l 641 320 l 641 214 l 534 214 l 534 106 l 320 106 l 320 427 l 427 427 l 427 320 l 534 320 l 534 641 l 427 641 l 427 534 l 320 534 l 320 854 l 534 854 l 534 747 l 641 747 l 641 641 l 747 641 l 747 961 l 0 961 l 0 854 l 106 854 l 106 106 l 0 106 l 0 0 l 747 0 l 747 320 m 214 1175 l 0 1175 l 0 1068 l 214 1068 l 214 1175 m 747 1175 l 534 1175 l 534 1068 l 747 1068 l 747 1175 m 775 347 l 808 313 l 808 -61 l 7 -61 l -26 -28 l -28 -28 l -28 134 l 79 134 l 79 793 l 7 793 l -26 827 l -28 827 l -28 989 l 775 989 l 775 987 l 808 954 l 808 580 l 648 580 l 614 613 l 613 613 l 613 686 l 541 686 l 507 720 l 506 720 l 506 793 l 381 793 l 381 562 l 399 562 l 399 669 l 562 669 l 562 667 l 595 634 l 595 259 l 434 259 l 401 292 l 399 292 l 399 366 l 381 366 l 381 134 l 506 134 l 506 241 l 613 241 l 613 348 l 775 348 l 775 347 m 241 1201 l 275 1168 l 275 1007 l 7 1007 l -26 1040 l -28 1040 l -28 1202 l 241 1202 l 241 1201 m 775 1201 l 808 1168 l 808 1007 l 541 1007 l 507 1040 l 506 1040 l 506 1202 l 775 1202 l 775 1201 z "},"":{"ha":961,"x_min":186,"x_max":702,"o":"m 641 106 l 534 106 l 534 854 l 641 854 l 641 961 l 214 961 l 214 854 l 320 854 l 320 106 l 214 106 l 214 0 l 641 0 l 641 106 m 534 1175 l 427 1175 l 427 1282 l 214 1282 l 214 1175 l 320 1175 l 320 1068 l 534 1068 l 534 1175 m 669 133 l 702 100 l 702 -61 l 220 -61 l 187 -28 l 186 -28 l 186 134 l 292 134 l 292 793 l 220 793 l 187 827 l 186 827 l 186 989 l 669 989 l 669 987 l 702 954 l 702 793 l 595 793 l 595 134 l 669 134 l 669 133 m 562 1201 l 595 1168 l 595 1007 l 327 1007 l 294 1040 l 292 1040 l 292 1114 l 220 1114 l 187 1147 l 186 1147 l 186 1310 l 455 1310 l 455 1308 l 488 1275 l 488 1202 l 562 1202 l 562 1201 z "},"":{"ha":961,"x_min":186,"x_max":702,"o":"m 641 106 l 534 106 l 534 854 l 641 854 l 641 961 l 214 961 l 214 854 l 320 854 l 320 106 l 214 106 l 214 0 l 641 0 l 641 106 m 534 1175 l 641 1175 l 641 1282 l 427 1282 l 427 1175 l 320 1175 l 320 1068 l 534 1068 l 534 1175 m 669 133 l 702 100 l 702 -61 l 220 -61 l 187 -28 l 186 -28 l 186 134 l 292 134 l 292 793 l 220 793 l 187 827 l 186 827 l 186 989 l 669 989 l 669 987 l 702 954 l 702 793 l 595 793 l 595 134 l 669 134 l 669 133 m 669 1308 l 702 1275 l 702 1114 l 595 1114 l 595 1007 l 327 1007 l 294 1040 l 292 1040 l 292 1202 l 399 1202 l 399 1310 l 669 1310 l 669 1308 z "},"":{"ha":961,"x_min":79,"x_max":808,"o":"m 641 106 l 534 106 l 534 854 l 641 854 l 641 961 l 214 961 l 214 854 l 320 854 l 320 106 l 214 106 l 214 0 l 641 0 l 641 106 m 320 1175 l 534 1175 l 534 1068 l 747 1068 l 747 1175 l 641 1175 l 641 1282 l 214 1282 l 214 1175 l 106 1175 l 106 1068 l 320 1068 l 320 1175 m 669 133 l 702 100 l 702 -61 l 220 -61 l 187 -28 l 186 -28 l 186 134 l 292 134 l 292 793 l 220 793 l 187 827 l 186 827 l 186 989 l 669 989 l 669 987 l 702 954 l 702 793 l 595 793 l 595 134 l 669 134 l 669 133 m 506 1114 l 381 1114 l 381 1007 l 113 1007 l 80 1040 l 79 1040 l 79 1202 l 186 1202 l 186 1310 l 669 1310 l 669 1308 l 702 1275 l 702 1202 l 775 1202 l 775 1201 l 808 1168 l 808 1007 l 541 1007 l 507 1040 l 506 1040 l 506 1114 z "},"":{"ha":961,"x_min":79,"x_max":808,"o":"m 641 106 l 534 106 l 534 854 l 641 854 l 641 961 l 214 961 l 214 854 l 320 854 l 320 106 l 214 106 l 214 0 l 641 0 l 641 106 m 320 1175 l 106 1175 l 106 1068 l 320 1068 l 320 1175 m 747 1175 l 534 1175 l 534 1068 l 747 1068 l 747 1175 m 669 133 l 702 100 l 702 -61 l 220 -61 l 187 -28 l 186 -28 l 186 134 l 292 134 l 292 793 l 220 793 l 187 827 l 186 827 l 186 989 l 669 989 l 669 987 l 702 954 l 702 793 l 595 793 l 595 134 l 669 134 l 669 133 m 348 1201 l 381 1168 l 381 1007 l 113 1007 l 80 1040 l 79 1040 l 79 1202 l 348 1202 l 348 1201 m 775 1201 l 808 1168 l 808 1007 l 541 1007 l 507 1040 l 506 1040 l 506 1202 l 775 1202 l 775 1201 z "},"":{"ha":961,"x_min":-28,"x_max":808,"o":"m 320 534 l 427 534 l 427 641 l 320 641 l 320 961 l 427 961 l 427 854 l 534 854 l 534 214 l 427 214 l 427 106 l 320 106 l 320 534 m 534 106 l 641 106 l 641 214 l 747 214 l 747 854 l 641 854 l 641 961 l 534 961 l 534 1068 l 0 1068 l 0 961 l 106 961 l 106 641 l 0 641 l 0 534 l 106 534 l 106 106 l 0 106 l 0 0 l 534 0 l 534 106 m 455 667 l 488 634 l 488 473 l 381 473 l 381 134 l 399 134 l 399 241 l 506 241 l 506 793 l 434 793 l 401 827 l 399 827 l 399 900 l 381 900 l 381 669 l 455 669 l 455 667 m 775 881 l 808 848 l 808 153 l 702 153 l 702 45 l 595 45 l 595 -61 l 7 -61 l -26 -28 l -28 -28 l -28 134 l 79 134 l 79 473 l 7 473 l -26 506 l -28 506 l -28 669 l 79 669 l 79 900 l 7 900 l -26 933 l -28 933 l -28 1096 l 562 1096 l 562 1095 l 595 1061 l 595 989 l 669 989 l 669 987 l 702 954 l 702 882 l 775 882 l 775 881 z "},"":{"ha":961,"x_min":-28,"x_max":808,"o":"m 214 534 l 320 534 l 320 427 l 427 427 l 427 320 l 534 320 l 534 0 l 747 0 l 747 961 l 534 961 l 534 641 l 427 641 l 427 747 l 320 747 l 320 854 l 214 854 l 214 961 l 0 961 l 0 0 l 214 0 l 214 534 m 214 1175 l 320 1175 l 320 1068 l 641 1068 l 641 1175 l 747 1175 l 747 1282 l 534 1282 l 534 1175 l 427 1175 l 427 1282 l 106 1282 l 106 1175 l 0 1175 l 0 1068 l 214 1068 l 214 1175 m 292 473 l 275 473 l 275 -61 l 7 -61 l -26 -28 l -28 -28 l -28 989 l 241 989 l 241 987 l 275 954 l 275 882 l 348 882 l 348 881 l 381 848 l 381 775 l 455 775 l 455 774 l 488 741 l 488 669 l 506 669 l 506 989 l 775 989 l 775 987 l 808 954 l 808 -61 l 541 -61 l 507 -28 l 506 -28 l 506 259 l 434 259 l 401 292 l 399 292 l 399 366 l 327 366 l 294 399 l 292 399 l 292 473 m 292 1114 l 275 1114 l 275 1007 l 7 1007 l -26 1040 l -28 1040 l -28 1202 l 79 1202 l 79 1310 l 455 1310 l 455 1308 l 488 1275 l 488 1202 l 506 1202 l 506 1310 l 775 1310 l 775 1308 l 808 1275 l 808 1114 l 702 1114 l 702 1007 l 327 1007 l 294 1040 l 292 1040 l 292 1114 z "},"":{"ha":961,"x_min":-28,"x_max":808,"o":"m 214 854 l 534 854 l 534 106 l 214 106 l 214 854 m 641 106 l 747 106 l 747 854 l 641 854 l 641 961 l 106 961 l 106 854 l 0 854 l 0 106 l 106 106 l 106 0 l 641 0 l 641 106 m 534 1175 l 427 1175 l 427 1282 l 214 1282 l 214 1175 l 320 1175 l 320 1068 l 534 1068 l 534 1175 m 506 793 l 275 793 l 275 134 l 506 134 l 506 793 m 775 881 l 808 848 l 808 45 l 702 45 l 702 -61 l 113 -61 l 80 -28 l 79 -28 l 79 45 l 7 45 l -26 79 l -28 79 l -28 882 l 79 882 l 79 989 l 669 989 l 669 987 l 702 954 l 702 882 l 775 882 l 775 881 m 562 1202 l 562 1201 l 595 1168 l 595 1007 l 327 1007 l 294 1040 l 292 1040 l 292 1114 l 220 1114 l 187 1147 l 186 1147 l 186 1310 l 455 1310 l 455 1308 l 488 1275 l 488 1202 l 562 1202 z "},"":{"ha":961,"x_min":-28,"x_max":808,"o":"m 214 854 l 534 854 l 534 106 l 214 106 l 214 854 m 641 106 l 747 106 l 747 854 l 641 854 l 641 961 l 106 961 l 106 854 l 0 854 l 0 106 l 106 106 l 106 0 l 641 0 l 641 106 m 427 1175 l 534 1175 l 534 1282 l 320 1282 l 320 1175 l 214 1175 l 214 1068 l 427 1068 l 427 1175 m 506 793 l 275 793 l 275 134 l 506 134 l 506 793 m 775 881 l 808 848 l 808 45 l 702 45 l 702 -61 l 113 -61 l 80 -28 l 79 -28 l 79 45 l 7 45 l -26 79 l -28 79 l -28 882 l 79 882 l 79 989 l 669 989 l 669 987 l 702 954 l 702 882 l 775 882 l 775 881 m 562 1308 l 595 1275 l 595 1114 l 488 1114 l 488 1007 l 220 1007 l 187 1040 l 186 1040 l 186 1202 l 292 1202 l 292 1310 l 562 1310 l 562 1308 z "},"":{"ha":961,"x_min":-28,"x_max":808,"o":"m 214 854 l 534 854 l 534 106 l 214 106 l 214 854 m 641 106 l 747 106 l 747 854 l 641 854 l 641 961 l 106 961 l 106 854 l 0 854 l 0 106 l 106 106 l 106 0 l 641 0 l 641 106 m 320 1175 l 427 1175 l 427 1068 l 641 1068 l 641 1175 l 534 1175 l 534 1282 l 214 1282 l 214 1175 l 106 1175 l 106 1068 l 320 1068 l 320 1175 m 506 793 l 275 793 l 275 134 l 506 134 l 506 793 m 775 881 l 808 848 l 808 45 l 702 45 l 702 -61 l 113 -61 l 80 -28 l 79 -28 l 79 45 l 7 45 l -26 79 l -28 79 l -28 882 l 79 882 l 79 989 l 669 989 l 669 987 l 702 954 l 702 882 l 775 882 l 775 881 m 399 1114 l 381 1114 l 381 1007 l 113 1007 l 80 1040 l 79 1040 l 79 1202 l 186 1202 l 186 1310 l 562 1310 l 562 1308 l 595 1275 l 595 1202 l 669 1202 l 669 1201 l 702 1168 l 702 1007 l 434 1007 l 401 1040 l 399 1040 l 399 1114 z "},"":{"ha":961,"x_min":-28,"x_max":808,"o":"m 214 854 l 534 854 l 534 106 l 214 106 l 214 854 m 641 106 l 747 106 l 747 854 l 641 854 l 641 961 l 106 961 l 106 854 l 0 854 l 0 106 l 106 106 l 106 0 l 641 0 l 641 106 m 214 1175 l 320 1175 l 320 1068 l 641 1068 l 641 1175 l 747 1175 l 747 1282 l 534 1282 l 534 1175 l 427 1175 l 427 1282 l 106 1282 l 106 1175 l 0 1175 l 0 1068 l 214 1068 l 214 1175 m 506 793 l 275 793 l 275 134 l 506 134 l 506 793 m 775 881 l 808 848 l 808 45 l 702 45 l 702 -61 l 113 -61 l 80 -28 l 79 -28 l 79 45 l 7 45 l -26 79 l -28 79 l -28 882 l 79 882 l 79 989 l 669 989 l 669 987 l 702 954 l 702 882 l 775 882 l 775 881 m 292 1114 l 275 1114 l 275 1007 l 7 1007 l -26 1040 l -28 1040 l -28 1202 l 79 1202 l 79 1310 l 455 1310 l 455 1308 l 488 1275 l 488 1202 l 506 1202 l 506 1310 l 775 1310 l 775 1308 l 808 1275 l 808 1114 l 702 1114 l 702 1007 l 327 1007 l 294 1040 l 292 1040 l 292 1114 z "},"":{"ha":961,"x_min":-28,"x_max":808,"o":"m 214 854 l 534 854 l 534 106 l 214 106 l 214 854 m 641 106 l 747 106 l 747 854 l 641 854 l 641 961 l 106 961 l 106 854 l 0 854 l 0 106 l 106 106 l 106 0 l 641 0 l 641 106 m 214 1175 l 0 1175 l 0 1068 l 214 1068 l 214 1175 m 747 1175 l 534 1175 l 534 1068 l 747 1068 l 747 1175 m 506 793 l 275 793 l 275 134 l 506 134 l 506 793 m 775 881 l 808 848 l 808 45 l 702 45 l 702 -61 l 113 -61 l 80 -28 l 79 -28 l 79 45 l 7 45 l -26 79 l -28 79 l -28 882 l 79 882 l 79 989 l 669 989 l 669 987 l 702 954 l 702 882 l 775 882 l 775 881 m 241 1202 l 241 1201 l 275 1168 l 275 1007 l 7 1007 l -26 1040 l -28 1040 l -28 1202 l 241 1202 m 775 1202 l 775 1201 l 808 1168 l 808 1007 l 541 1007 l 507 1040 l 506 1040 l 506 1202 l 775 1202 z "},"":{"ha":961,"x_min":-28,"x_max":808,"o":"m 214 214 l 320 214 l 320 320 l 427 320 l 427 214 l 534 214 l 534 106 l 747 106 l 747 214 l 641 214 l 641 320 l 534 320 l 534 534 l 641 534 l 641 641 l 747 641 l 747 747 l 534 747 l 534 641 l 427 641 l 427 534 l 320 534 l 320 641 l 214 641 l 214 747 l 0 747 l 0 641 l 106 641 l 106 534 l 214 534 l 214 320 l 106 320 l 106 214 l 0 214 l 0 106 l 214 106 l 214 214 m 399 259 l 381 259 l 381 153 l 275 153 l 275 45 l 7 45 l -26 79 l -28 79 l -28 241 l 79 241 l 79 348 l 186 348 l 186 473 l 113 473 l 80 506 l 79 506 l 79 580 l 7 580 l -26 613 l -28 613 l -28 775 l 241 775 l 241 774 l 275 741 l 275 669 l 348 669 l 348 667 l 381 634 l 381 562 l 399 562 l 399 669 l 506 669 l 506 775 l 775 775 l 775 774 l 808 741 l 808 580 l 702 580 l 702 473 l 595 473 l 595 348 l 669 348 l 669 347 l 702 313 l 702 241 l 775 241 l 775 240 l 808 207 l 808 45 l 541 45 l 507 79 l 506 79 l 506 153 l 434 153 l 401 186 l 399 186 l 399 259 z "},"":{"ha":961,"x_min":-28,"x_max":808,"o":"m 427 747 l 320 747 l 320 320 l 427 320 l 427 747 m 320 320 l 214 320 l 214 961 l 427 961 l 427 747 l 534 747 l 534 106 l 320 106 l 320 320 m 214 0 l 641 0 l 641 106 l 747 106 l 747 961 l 641 961 l 641 1175 l 534 1175 l 534 1068 l 106 1068 l 106 961 l 0 961 l 0 106 l 106 106 l 106 -106 l 214 -106 l 214 0 m 506 686 l 488 686 l 488 259 l 381 259 l 381 134 l 506 134 l 506 686 m 399 900 l 275 900 l 275 348 l 292 348 l 292 775 l 399 775 l 399 900 m 775 987 l 808 954 l 808 45 l 702 45 l 702 -61 l 275 -61 l 275 -168 l 113 -168 l 80 -134 l 79 -134 l 79 45 l 7 45 l -26 79 l -28 79 l -28 989 l 79 989 l 79 1096 l 506 1096 l 506 1202 l 669 1202 l 669 1201 l 702 1168 l 702 989 l 775 989 l 775 987 z "},"":{"ha":961,"x_min":-28,"x_max":808,"o":"m 641 106 l 747 106 l 747 961 l 534 961 l 534 106 l 214 106 l 214 961 l 0 961 l 0 106 l 106 106 l 106 0 l 641 0 l 641 106 m 534 1175 l 427 1175 l 427 1282 l 214 1282 l 214 1175 l 320 1175 l 320 1068 l 534 1068 l 534 1175 m 775 987 l 808 954 l 808 45 l 702 45 l 702 -61 l 113 -61 l 80 -28 l 79 -28 l 79 45 l 7 45 l -26 79 l -28 79 l -28 989 l 241 989 l 241 987 l 275 954 l 275 134 l 506 134 l 506 989 l 775 989 l 775 987 m 562 1201 l 595 1168 l 595 1007 l 327 1007 l 294 1040 l 292 1040 l 292 1114 l 220 1114 l 187 1147 l 186 1147 l 186 1310 l 455 1310 l 455 1308 l 488 1275 l 488 1202 l 562 1202 l 562 1201 z "},"":{"ha":961,"x_min":-28,"x_max":808,"o":"m 641 106 l 747 106 l 747 961 l 534 961 l 534 106 l 214 106 l 214 961 l 0 961 l 0 106 l 106 106 l 106 0 l 641 0 l 641 106 m 427 1175 l 534 1175 l 534 1282 l 320 1282 l 320 1175 l 214 1175 l 214 1068 l 427 1068 l 427 1175 m 775 987 l 808 954 l 808 45 l 702 45 l 702 -61 l 113 -61 l 80 -28 l 79 -28 l 79 45 l 7 45 l -26 79 l -28 79 l -28 989 l 241 989 l 241 987 l 275 954 l 275 134 l 506 134 l 506 989 l 775 989 l 775 987 m 562 1308 l 595 1275 l 595 1114 l 488 1114 l 488 1007 l 220 1007 l 187 1040 l 186 1040 l 186 1202 l 292 1202 l 292 1310 l 562 1310 l 562 1308 z "},"":{"ha":961,"x_min":-28,"x_max":808,"o":"m 641 106 l 747 106 l 747 961 l 534 961 l 534 106 l 214 106 l 214 961 l 0 961 l 0 106 l 106 106 l 106 0 l 641 0 l 641 106 m 320 1175 l 427 1175 l 427 1068 l 641 1068 l 641 1175 l 534 1175 l 534 1282 l 214 1282 l 214 1175 l 106 1175 l 106 1068 l 320 1068 l 320 1175 m 775 987 l 808 954 l 808 45 l 702 45 l 702 -61 l 113 -61 l 80 -28 l 79 -28 l 79 45 l 7 45 l -26 79 l -28 79 l -28 989 l 241 989 l 241 987 l 275 954 l 275 134 l 506 134 l 506 989 l 775 989 l 775 987 m 399 1114 l 381 1114 l 381 1007 l 113 1007 l 80 1040 l 79 1040 l 79 1202 l 186 1202 l 186 1310 l 562 1310 l 562 1308 l 595 1275 l 595 1202 l 669 1202 l 669 1201 l 702 1168 l 702 1007 l 434 1007 l 401 1040 l 399 1040 l 399 1114 z "},"":{"ha":961,"x_min":-28,"x_max":808,"o":"m 641 106 l 747 106 l 747 961 l 534 961 l 534 106 l 214 106 l 214 961 l 0 961 l 0 106 l 106 106 l 106 0 l 641 0 l 641 106 m 214 1175 l 0 1175 l 0 1068 l 214 1068 l 214 1175 m 747 1175 l 534 1175 l 534 1068 l 747 1068 l 747 1175 m 775 987 l 808 954 l 808 45 l 702 45 l 702 -61 l 113 -61 l 80 -28 l 79 -28 l 79 45 l 7 45 l -26 79 l -28 79 l -28 989 l 241 989 l 241 987 l 275 954 l 275 134 l 506 134 l 506 989 l 775 989 l 775 987 m 241 1201 l 275 1168 l 275 1007 l 7 1007 l -26 1040 l -28 1040 l -28 1202 l 241 1202 l 241 1201 m 775 1201 l 808 1168 l 808 1007 l 541 1007 l 507 1040 l 506 1040 l 506 1202 l 775 1202 l 775 1201 z "},"":{"ha":961,"x_min":-28,"x_max":916,"o":"m 641 106 l 534 106 l 534 534 l 641 534 l 641 641 l 747 641 l 747 747 l 854 747 l 854 1068 l 641 1068 l 641 747 l 534 747 l 534 641 l 320 641 l 320 747 l 214 747 l 214 1068 l 0 1068 l 0 747 l 106 747 l 106 641 l 214 641 l 214 534 l 320 534 l 320 106 l 214 106 l 214 0 l 641 0 l 641 106 m 534 1175 l 641 1175 l 641 1282 l 427 1282 l 427 1175 l 320 1175 l 320 1068 l 534 1068 l 534 1175 m 669 133 l 702 100 l 702 -61 l 220 -61 l 187 -28 l 186 -28 l 186 134 l 292 134 l 292 473 l 220 473 l 187 506 l 186 506 l 186 580 l 113 580 l 80 613 l 79 613 l 79 686 l 7 686 l -26 720 l -28 720 l -28 1096 l 241 1096 l 241 1095 l 275 1061 l 275 775 l 348 775 l 348 774 l 381 741 l 381 669 l 506 669 l 506 775 l 613 775 l 613 1096 l 882 1096 l 882 1095 l 916 1061 l 916 686 l 808 686 l 808 580 l 702 580 l 702 473 l 595 473 l 595 134 l 669 134 l 669 133 m 669 1308 l 702 1275 l 702 1114 l 595 1114 l 595 1007 l 327 1007 l 294 1040 l 292 1040 l 292 1202 l 399 1202 l 399 1310 l 669 1310 l 669 1308 z "},"":{"ha":961,"x_min":-28,"x_max":808,"o":"m 320 747 l 534 747 l 534 320 l 320 320 l 320 747 m 427 106 l 320 106 l 320 214 l 641 214 l 641 320 l 747 320 l 747 747 l 641 747 l 641 854 l 320 854 l 320 961 l 427 961 l 427 1068 l 0 1068 l 0 961 l 106 961 l 106 106 l 0 106 l 0 0 l 427 0 l 427 106 m 506 686 l 381 686 l 381 348 l 506 348 l 506 686 m 455 134 l 455 133 l 488 100 l 488 -61 l 7 -61 l -26 -28 l -28 -28 l -28 134 l 79 134 l 79 900 l 7 900 l -26 933 l -28 933 l -28 1096 l 455 1096 l 455 1095 l 488 1061 l 488 900 l 381 900 l 381 882 l 669 882 l 669 881 l 702 848 l 702 775 l 775 775 l 775 774 l 808 741 l 808 259 l 702 259 l 702 153 l 381 153 l 381 134 l 455 134 z "},"":{"ha":961,"x_min":-28,"x_max":808,"o":"m 214 961 l 427 961 l 427 641 l 320 641 l 320 534 l 427 534 l 427 427 l 534 427 l 534 106 l 427 106 l 427 0 l 641 0 l 641 106 l 747 106 l 747 427 l 641 427 l 641 534 l 534 534 l 534 641 l 641 641 l 641 961 l 534 961 l 534 1068 l 106 1068 l 106 961 l 0 961 l 0 0 l 214 0 l 214 961 m 399 900 l 275 900 l 275 -61 l 7 -61 l -26 -28 l -28 -28 l -28 989 l 79 989 l 79 1096 l 562 1096 l 562 1095 l 595 1061 l 595 989 l 669 989 l 669 987 l 702 954 l 702 580 l 595 580 l 595 562 l 669 562 l 669 560 l 702 527 l 702 455 l 775 455 l 775 454 l 808 420 l 808 45 l 702 45 l 702 -61 l 434 -61 l 401 -28 l 399 -28 l 399 134 l 506 134 l 506 366 l 434 366 l 401 399 l 399 399 l 399 473 l 327 473 l 294 506 l 292 506 l 292 669 l 399 669 l 399 900 z "},"":{"ha":961,"x_min":-28,"x_max":808,"o":"m 214 427 l 427 427 l 427 106 l 214 106 l 214 427 m 427 106 l 534 106 l 534 0 l 747 0 l 747 106 l 641 106 l 641 641 l 534 641 l 534 747 l 106 747 l 106 641 l 427 641 l 427 534 l 106 534 l 106 427 l 0 427 l 0 106 l 106 106 l 106 0 l 427 0 l 427 106 m 534 961 l 427 961 l 427 1068 l 320 1068 l 320 1175 l 106 1175 l 106 1068 l 214 1068 l 214 961 l 320 961 l 320 854 l 534 854 l 534 961 m 399 366 l 275 366 l 275 134 l 399 134 l 399 366 m 506 45 l 488 45 l 488 -61 l 113 -61 l 80 -28 l 79 -28 l 79 45 l 7 45 l -26 79 l -28 79 l -28 455 l 79 455 l 79 562 l 399 562 l 399 580 l 113 580 l 80 613 l 79 613 l 79 775 l 562 775 l 562 774 l 595 741 l 595 669 l 669 669 l 669 667 l 702 634 l 702 134 l 775 134 l 775 133 l 808 100 l 808 -61 l 541 -61 l 507 -28 l 506 -28 l 506 45 m 562 989 l 562 987 l 595 954 l 595 793 l 327 793 l 294 827 l 292 827 l 292 900 l 220 900 l 187 933 l 186 933 l 186 1007 l 113 1007 l 80 1040 l 79 1040 l 79 1202 l 348 1202 l 348 1201 l 381 1168 l 381 1096 l 455 1096 l 455 1095 l 488 1061 l 488 989 l 562 989 z "},"":{"ha":961,"x_min":-28,"x_max":808,"o":"m 214 427 l 427 427 l 427 106 l 214 106 l 214 427 m 427 106 l 534 106 l 534 0 l 747 0 l 747 106 l 641 106 l 641 641 l 534 641 l 534 747 l 106 747 l 106 641 l 427 641 l 427 534 l 106 534 l 106 427 l 0 427 l 0 106 l 106 106 l 106 0 l 427 0 l 427 106 m 320 961 l 427 961 l 427 1068 l 534 1068 l 534 1175 l 320 1175 l 320 1068 l 214 1068 l 214 961 l 106 961 l 106 854 l 320 854 l 320 961 m 399 366 l 275 366 l 275 134 l 399 134 l 399 366 m 506 45 l 488 45 l 488 -61 l 113 -61 l 80 -28 l 79 -28 l 79 45 l 7 45 l -26 79 l -28 79 l -28 455 l 79 455 l 79 562 l 399 562 l 399 580 l 113 580 l 80 613 l 79 613 l 79 775 l 562 775 l 562 774 l 595 741 l 595 669 l 669 669 l 669 667 l 702 634 l 702 134 l 775 134 l 775 133 l 808 100 l 808 -61 l 541 -61 l 507 -28 l 506 -28 l 506 45 m 562 1201 l 595 1168 l 595 1007 l 488 1007 l 488 900 l 381 900 l 381 793 l 113 793 l 80 827 l 79 827 l 79 989 l 186 989 l 186 1096 l 292 1096 l 292 1202 l 562 1202 l 562 1201 z "},"":{"ha":961,"x_min":-28,"x_max":808,"o":"m 214 427 l 427 427 l 427 106 l 214 106 l 214 427 m 427 106 l 534 106 l 534 0 l 747 0 l 747 106 l 641 106 l 641 641 l 534 641 l 534 747 l 106 747 l 106 641 l 427 641 l 427 534 l 106 534 l 106 427 l 0 427 l 0 106 l 106 106 l 106 0 l 427 0 l 427 106 m 320 961 l 427 961 l 427 854 l 641 854 l 641 961 l 534 961 l 534 1068 l 427 1068 l 427 1175 l 320 1175 l 320 1068 l 214 1068 l 214 961 l 106 961 l 106 854 l 320 854 l 320 961 m 399 366 l 275 366 l 275 134 l 399 134 l 399 366 m 506 45 l 488 45 l 488 -61 l 113 -61 l 80 -28 l 79 -28 l 79 45 l 7 45 l -26 79 l -28 79 l -28 455 l 79 455 l 79 562 l 399 562 l 399 580 l 113 580 l 80 613 l 79 613 l 79 775 l 562 775 l 562 774 l 595 741 l 595 669 l 669 669 l 669 667 l 702 634 l 702 134 l 775 134 l 775 133 l 808 100 l 808 -61 l 541 -61 l 507 -28 l 506 -28 l 506 45 m 399 900 l 381 900 l 381 793 l 113 793 l 80 827 l 79 827 l 79 989 l 186 989 l 186 1096 l 292 1096 l 292 1202 l 455 1202 l 455 1201 l 488 1168 l 488 1096 l 562 1096 l 562 1095 l 595 1061 l 595 989 l 669 989 l 669 987 l 702 954 l 702 793 l 434 793 l 401 827 l 399 827 l 399 900 z "},"":{"ha":961,"x_min":-28,"x_max":808,"o":"m 214 427 l 427 427 l 427 106 l 214 106 l 214 427 m 427 106 l 534 106 l 534 0 l 747 0 l 747 106 l 641 106 l 641 641 l 534 641 l 534 747 l 106 747 l 106 641 l 427 641 l 427 534 l 106 534 l 106 427 l 0 427 l 0 106 l 106 106 l 106 0 l 427 0 l 427 106 m 214 961 l 320 961 l 320 854 l 641 854 l 641 961 l 747 961 l 747 1068 l 534 1068 l 534 961 l 427 961 l 427 1068 l 106 1068 l 106 961 l 0 961 l 0 854 l 214 854 l 214 961 m 399 366 l 275 366 l 275 134 l 399 134 l 399 366 m 506 45 l 488 45 l 488 -61 l 113 -61 l 80 -28 l 79 -28 l 79 45 l 7 45 l -26 79 l -28 79 l -28 455 l 79 455 l 79 562 l 399 562 l 399 580 l 113 580 l 80 613 l 79 613 l 79 775 l 562 775 l 562 774 l 595 741 l 595 669 l 669 669 l 669 667 l 702 634 l 702 134 l 775 134 l 775 133 l 808 100 l 808 -61 l 541 -61 l 507 -28 l 506 -28 l 506 45 m 292 900 l 275 900 l 275 793 l 7 793 l -26 827 l -28 827 l -28 989 l 79 989 l 79 1096 l 455 1096 l 455 1095 l 488 1061 l 488 989 l 506 989 l 506 1096 l 775 1096 l 775 1095 l 808 1061 l 808 900 l 702 900 l 702 793 l 327 793 l 294 827 l 292 827 l 292 900 z "},"":{"ha":961,"x_min":-28,"x_max":808,"o":"m 214 427 l 427 427 l 427 106 l 214 106 l 214 427 m 427 106 l 534 106 l 534 0 l 747 0 l 747 106 l 641 106 l 641 641 l 534 641 l 534 747 l 106 747 l 106 641 l 427 641 l 427 534 l 106 534 l 106 427 l 0 427 l 0 106 l 106 106 l 106 0 l 427 0 l 427 106 m 214 1068 l 0 1068 l 0 961 l 214 961 l 214 1068 m 641 1068 l 427 1068 l 427 961 l 641 961 l 641 1068 m 399 366 l 275 366 l 275 134 l 399 134 l 399 366 m 506 45 l 488 45 l 488 -61 l 113 -61 l 80 -28 l 79 -28 l 79 45 l 7 45 l -26 79 l -28 79 l -28 455 l 79 455 l 79 562 l 399 562 l 399 580 l 113 580 l 80 613 l 79 613 l 79 775 l 562 775 l 562 774 l 595 741 l 595 669 l 669 669 l 669 667 l 702 634 l 702 134 l 775 134 l 775 133 l 808 100 l 808 -61 l 541 -61 l 507 -28 l 506 -28 l 506 45 m 241 1096 l 241 1095 l 275 1061 l 275 900 l 7 900 l -26 933 l -28 933 l -28 1096 l 241 1096 m 669 1096 l 669 1095 l 702 1061 l 702 900 l 434 900 l 401 933 l 399 933 l 399 1096 l 669 1096 z "},"":{"ha":961,"x_min":-28,"x_max":808,"o":"m 214 427 l 427 427 l 427 106 l 214 106 l 214 427 m 320 1068 l 427 1068 l 427 961 l 320 961 l 320 1068 m 427 106 l 534 106 l 534 0 l 747 0 l 747 106 l 641 106 l 641 641 l 534 641 l 534 747 l 106 747 l 106 641 l 427 641 l 427 534 l 106 534 l 106 427 l 0 427 l 0 106 l 106 106 l 106 0 l 427 0 l 427 106 m 534 961 l 641 961 l 641 1068 l 534 1068 l 534 1175 l 214 1175 l 214 1068 l 106 1068 l 106 961 l 214 961 l 214 854 l 534 854 l 534 961 m 399 366 l 275 366 l 275 134 l 399 134 l 399 366 m 399 1007 l 381 1007 l 381 989 l 399 989 l 399 1007 m 506 45 l 488 45 l 488 -61 l 113 -61 l 80 -28 l 79 -28 l 79 45 l 7 45 l -26 79 l -28 79 l -28 455 l 79 455 l 79 562 l 399 562 l 399 580 l 113 580 l 80 613 l 79 613 l 79 775 l 562 775 l 562 774 l 595 741 l 595 669 l 669 669 l 669 667 l 702 634 l 702 134 l 775 134 l 775 133 l 808 100 l 808 -61 l 541 -61 l 507 -28 l 506 -28 l 506 45 m 669 1095 l 702 1061 l 702 900 l 595 900 l 595 793 l 220 793 l 187 827 l 186 827 l 186 900 l 113 900 l 80 933 l 79 933 l 79 1096 l 186 1096 l 186 1202 l 562 1202 l 562 1201 l 595 1168 l 595 1096 l 669 1096 l 669 1095 z "},"":{"ha":961,"x_min":-28,"x_max":916,"o":"m 214 320 l 320 320 l 320 106 l 214 106 l 214 320 m 534 641 l 641 641 l 641 427 l 534 427 l 534 641 m 427 106 l 534 106 l 534 0 l 854 0 l 854 106 l 641 106 l 641 214 l 534 214 l 534 320 l 747 320 l 747 427 l 854 427 l 854 641 l 747 641 l 747 747 l 427 747 l 427 641 l 320 641 l 320 747 l 106 747 l 106 641 l 214 641 l 214 534 l 320 534 l 320 427 l 106 427 l 106 320 l 0 320 l 0 106 l 106 106 l 106 0 l 427 0 l 427 106 m 292 259 l 275 259 l 275 134 l 292 134 l 292 259 m 613 580 l 595 580 l 595 455 l 613 455 l 613 580 m 506 45 l 488 45 l 488 -61 l 113 -61 l 80 -28 l 79 -28 l 79 45 l 7 45 l -26 79 l -28 79 l -28 348 l 79 348 l 79 455 l 292 455 l 292 473 l 220 473 l 187 506 l 186 506 l 186 580 l 113 580 l 80 613 l 79 613 l 79 775 l 348 775 l 348 774 l 381 741 l 381 669 l 399 669 l 399 775 l 775 775 l 775 774 l 808 741 l 808 669 l 882 669 l 882 667 l 916 634 l 916 366 l 808 366 l 808 259 l 595 259 l 595 241 l 669 241 l 669 240 l 702 207 l 702 134 l 882 134 l 882 133 l 916 100 l 916 -61 l 541 -61 l 507 -28 l 506 -28 l 506 45 z "},"":{"ha":961,"x_min":79,"x_max":808,"o":"m 641 0 l 747 0 l 747 106 l 641 106 l 641 320 l 747 320 l 747 427 l 534 427 l 534 320 l 320 320 l 320 747 l 534 747 l 534 641 l 747 641 l 747 747 l 641 747 l 641 854 l 214 854 l 214 747 l 106 747 l 106 320 l 214 320 l 214 214 l 427 214 l 427 106 l 534 106 l 534 0 l 214 0 l 214 -106 l 641 -106 l 641 0 m 775 133 l 808 100 l 808 -61 l 702 -61 l 702 -168 l 220 -168 l 187 -134 l 186 -134 l 186 28 l 506 28 l 506 45 l 434 45 l 401 79 l 399 79 l 399 153 l 220 153 l 187 186 l 186 186 l 186 259 l 113 259 l 80 292 l 79 292 l 79 775 l 186 775 l 186 882 l 669 882 l 669 881 l 702 848 l 702 775 l 775 775 l 775 774 l 808 741 l 808 580 l 541 580 l 507 613 l 506 613 l 506 686 l 381 686 l 381 348 l 506 348 l 506 455 l 775 455 l 775 454 l 808 420 l 808 259 l 702 259 l 702 134 l 775 134 l 775 133 z "},"":{"ha":961,"x_min":-28,"x_max":808,"o":"m 214 641 l 534 641 l 534 534 l 214 534 l 214 641 m 641 106 l 747 106 l 747 214 l 534 214 l 534 106 l 214 106 l 214 427 l 747 427 l 747 641 l 641 641 l 641 747 l 106 747 l 106 641 l 0 641 l 0 106 l 106 106 l 106 0 l 641 0 l 641 106 m 534 961 l 427 961 l 427 1068 l 320 1068 l 320 1175 l 106 1175 l 106 1068 l 214 1068 l 214 961 l 320 961 l 320 854 l 534 854 l 534 961 m 506 580 l 275 580 l 275 562 l 506 562 l 506 580 m 775 240 l 808 207 l 808 45 l 702 45 l 702 -61 l 113 -61 l 80 -28 l 79 -28 l 79 45 l 7 45 l -26 79 l -28 79 l -28 669 l 79 669 l 79 775 l 669 775 l 669 774 l 702 741 l 702 669 l 775 669 l 775 667 l 808 634 l 808 366 l 275 366 l 275 134 l 506 134 l 506 241 l 775 241 l 775 240 m 562 989 l 562 987 l 595 954 l 595 793 l 327 793 l 294 827 l 292 827 l 292 900 l 220 900 l 187 933 l 186 933 l 186 1007 l 113 1007 l 80 1040 l 79 1040 l 79 1202 l 348 1202 l 348 1201 l 381 1168 l 381 1096 l 455 1096 l 455 1095 l 488 1061 l 488 989 l 562 989 z "},"":{"ha":961,"x_min":-28,"x_max":808,"o":"m 214 641 l 534 641 l 534 534 l 214 534 l 214 641 m 641 106 l 747 106 l 747 214 l 534 214 l 534 106 l 214 106 l 214 427 l 747 427 l 747 641 l 641 641 l 641 747 l 106 747 l 106 641 l 0 641 l 0 106 l 106 106 l 106 0 l 641 0 l 641 106 m 427 961 l 534 961 l 534 1068 l 641 1068 l 641 1175 l 427 1175 l 427 1068 l 320 1068 l 320 961 l 214 961 l 214 854 l 427 854 l 427 961 m 506 580 l 275 580 l 275 562 l 506 562 l 506 580 m 775 240 l 808 207 l 808 45 l 702 45 l 702 -61 l 113 -61 l 80 -28 l 79 -28 l 79 45 l 7 45 l -26 79 l -28 79 l -28 669 l 79 669 l 79 775 l 669 775 l 669 774 l 702 741 l 702 669 l 775 669 l 775 667 l 808 634 l 808 366 l 275 366 l 275 134 l 506 134 l 506 241 l 775 241 l 775 240 m 669 1201 l 702 1168 l 702 1007 l 595 1007 l 595 900 l 488 900 l 488 793 l 220 793 l 187 827 l 186 827 l 186 989 l 292 989 l 292 1096 l 399 1096 l 399 1202 l 669 1202 l 669 1201 z "},"":{"ha":961,"x_min":-28,"x_max":808,"o":"m 214 641 l 534 641 l 534 534 l 214 534 l 214 641 m 641 106 l 747 106 l 747 214 l 534 214 l 534 106 l 214 106 l 214 427 l 747 427 l 747 641 l 641 641 l 641 747 l 106 747 l 106 641 l 0 641 l 0 106 l 106 106 l 106 0 l 641 0 l 641 106 m 320 961 l 427 961 l 427 854 l 641 854 l 641 961 l 534 961 l 534 1068 l 427 1068 l 427 1175 l 320 1175 l 320 1068 l 214 1068 l 214 961 l 106 961 l 106 854 l 320 854 l 320 961 m 506 580 l 275 580 l 275 562 l 506 562 l 506 580 m 775 240 l 808 207 l 808 45 l 702 45 l 702 -61 l 113 -61 l 80 -28 l 79 -28 l 79 45 l 7 45 l -26 79 l -28 79 l -28 669 l 79 669 l 79 775 l 669 775 l 669 774 l 702 741 l 702 669 l 775 669 l 775 667 l 808 634 l 808 366 l 275 366 l 275 134 l 506 134 l 506 241 l 775 241 l 775 240 m 399 900 l 381 900 l 381 793 l 113 793 l 80 827 l 79 827 l 79 989 l 186 989 l 186 1096 l 292 1096 l 292 1202 l 455 1202 l 455 1201 l 488 1168 l 488 1096 l 562 1096 l 562 1095 l 595 1061 l 595 989 l 669 989 l 669 987 l 702 954 l 702 793 l 434 793 l 401 827 l 399 827 l 399 900 z "},"":{"ha":961,"x_min":-28,"x_max":808,"o":"m 214 641 l 534 641 l 534 534 l 214 534 l 214 641 m 641 106 l 747 106 l 747 214 l 534 214 l 534 106 l 214 106 l 214 427 l 747 427 l 747 641 l 641 641 l 641 747 l 106 747 l 106 641 l 0 641 l 0 106 l 106 106 l 106 0 l 641 0 l 641 106 m 214 1068 l 0 1068 l 0 961 l 214 961 l 214 1068 m 747 1068 l 534 1068 l 534 961 l 747 961 l 747 1068 m 506 580 l 275 580 l 275 562 l 506 562 l 506 580 m 775 240 l 808 207 l 808 45 l 702 45 l 702 -61 l 113 -61 l 80 -28 l 79 -28 l 79 45 l 7 45 l -26 79 l -28 79 l -28 669 l 79 669 l 79 775 l 669 775 l 669 774 l 702 741 l 702 669 l 775 669 l 775 667 l 808 634 l 808 366 l 275 366 l 275 134 l 506 134 l 506 241 l 775 241 l 775 240 m 241 1096 l 241 1095 l 275 1061 l 275 900 l 7 900 l -26 933 l -28 933 l -28 1096 l 241 1096 m 775 1096 l 775 1095 l 808 1061 l 808 900 l 541 900 l 507 933 l 506 933 l 506 1096 l 775 1096 z "},"":{"ha":961,"x_min":79,"x_max":702,"o":"m 641 106 l 534 106 l 534 747 l 214 747 l 214 641 l 320 641 l 320 106 l 214 106 l 214 0 l 641 0 l 641 106 m 534 961 l 427 961 l 427 1068 l 320 1068 l 320 1175 l 106 1175 l 106 1068 l 214 1068 l 214 961 l 320 961 l 320 854 l 534 854 l 534 961 m 669 133 l 702 100 l 702 -61 l 220 -61 l 187 -28 l 186 -28 l 186 134 l 292 134 l 292 580 l 220 580 l 187 613 l 186 613 l 186 775 l 562 775 l 562 774 l 595 741 l 595 134 l 669 134 l 669 133 m 562 987 l 595 954 l 595 793 l 327 793 l 294 827 l 292 827 l 292 900 l 220 900 l 187 933 l 186 933 l 186 1007 l 113 1007 l 80 1040 l 79 1040 l 79 1202 l 348 1202 l 348 1201 l 381 1168 l 381 1096 l 455 1096 l 455 1095 l 488 1061 l 488 989 l 562 989 l 562 987 z "},"":{"ha":961,"x_min":186,"x_max":702,"o":"m 641 106 l 534 106 l 534 747 l 214 747 l 214 641 l 320 641 l 320 106 l 214 106 l 214 0 l 641 0 l 641 106 m 427 961 l 534 961 l 534 1068 l 641 1068 l 641 1175 l 427 1175 l 427 1068 l 320 1068 l 320 961 l 214 961 l 214 854 l 427 854 l 427 961 m 669 133 l 702 100 l 702 -61 l 220 -61 l 187 -28 l 186 -28 l 186 134 l 292 134 l 292 580 l 220 580 l 187 613 l 186 613 l 186 775 l 562 775 l 562 774 l 595 741 l 595 134 l 669 134 l 669 133 m 669 1201 l 702 1168 l 702 1007 l 595 1007 l 595 900 l 488 900 l 488 793 l 220 793 l 187 827 l 186 827 l 186 989 l 292 989 l 292 1096 l 399 1096 l 399 1202 l 669 1202 l 669 1201 z "},"":{"ha":961,"x_min":79,"x_max":808,"o":"m 641 106 l 534 106 l 534 747 l 214 747 l 214 641 l 320 641 l 320 106 l 214 106 l 214 0 l 641 0 l 641 106 m 320 961 l 534 961 l 534 854 l 747 854 l 747 961 l 641 961 l 641 1068 l 534 1068 l 534 1175 l 320 1175 l 320 1068 l 214 1068 l 214 961 l 106 961 l 106 854 l 320 854 l 320 961 m 669 133 l 702 100 l 702 -61 l 220 -61 l 187 -28 l 186 -28 l 186 134 l 292 134 l 292 580 l 220 580 l 187 613 l 186 613 l 186 775 l 562 775 l 562 774 l 595 741 l 595 134 l 669 134 l 669 133 m 506 900 l 381 900 l 381 793 l 113 793 l 80 827 l 79 827 l 79 989 l 186 989 l 186 1096 l 292 1096 l 292 1202 l 562 1202 l 562 1201 l 595 1168 l 595 1096 l 669 1096 l 669 1095 l 702 1061 l 702 989 l 775 989 l 775 987 l 808 954 l 808 793 l 541 793 l 507 827 l 506 827 l 506 900 z "},"":{"ha":961,"x_min":79,"x_max":808,"o":"m 641 106 l 534 106 l 534 747 l 214 747 l 214 641 l 320 641 l 320 106 l 214 106 l 214 0 l 641 0 l 641 106 m 320 1068 l 106 1068 l 106 961 l 320 961 l 320 1068 m 747 1068 l 534 1068 l 534 961 l 747 961 l 747 1068 m 669 133 l 702 100 l 702 -61 l 220 -61 l 187 -28 l 186 -28 l 186 134 l 292 134 l 292 580 l 220 580 l 187 613 l 186 613 l 186 775 l 562 775 l 562 774 l 595 741 l 595 134 l 669 134 l 669 133 m 348 1095 l 381 1061 l 381 900 l 113 900 l 80 933 l 79 933 l 79 1096 l 348 1096 l 348 1095 m 775 1095 l 808 1061 l 808 900 l 541 900 l 507 933 l 506 933 l 506 1096 l 775 1096 l 775 1095 z "},"":{"ha":961,"x_min":79,"x_max":808,"o":"m 320 534 l 534 534 l 534 106 l 320 106 l 320 534 m 427 1068 l 214 1068 l 214 961 l 320 961 l 320 854 l 214 854 l 214 747 l 320 747 l 320 854 l 427 854 l 427 747 l 534 747 l 534 641 l 214 641 l 214 534 l 106 534 l 106 106 l 214 106 l 214 0 l 641 0 l 641 106 l 747 106 l 747 747 l 641 747 l 641 854 l 534 854 l 534 961 l 641 961 l 641 1068 l 534 1068 l 534 961 l 427 961 l 427 1068 m 506 473 l 381 473 l 381 134 l 506 134 l 506 473 m 455 1096 l 455 1095 l 488 1061 l 488 989 l 506 989 l 506 1096 l 669 1096 l 669 1095 l 702 1061 l 702 900 l 595 900 l 595 882 l 669 882 l 669 881 l 702 848 l 702 775 l 775 775 l 775 774 l 808 741 l 808 45 l 702 45 l 702 -61 l 220 -61 l 187 -28 l 186 -28 l 186 45 l 113 45 l 80 79 l 79 79 l 79 562 l 186 562 l 186 669 l 506 669 l 506 686 l 434 686 l 401 720 l 399 720 l 399 793 l 381 793 l 381 686 l 220 686 l 187 720 l 186 720 l 186 882 l 292 882 l 292 900 l 220 900 l 187 933 l 186 933 l 186 1096 l 455 1096 z "},"":{"ha":961,"x_min":-28,"x_max":808,"o":"m 747 641 l 641 641 l 641 747 l 320 747 l 320 641 l 214 641 l 214 747 l 0 747 l 0 641 l 106 641 l 106 0 l 320 0 l 320 641 l 534 641 l 534 0 l 747 0 l 747 641 m 214 961 l 320 961 l 320 854 l 641 854 l 641 961 l 747 961 l 747 1068 l 534 1068 l 534 961 l 427 961 l 427 1068 l 106 1068 l 106 961 l 0 961 l 0 854 l 214 854 l 214 961 m 775 667 l 808 634 l 808 -61 l 541 -61 l 507 -28 l 506 -28 l 506 580 l 381 580 l 381 -61 l 113 -61 l 80 -28 l 79 -28 l 79 580 l 7 580 l -26 613 l -28 613 l -28 775 l 241 775 l 241 774 l 275 741 l 275 669 l 292 669 l 292 775 l 669 775 l 669 774 l 702 741 l 702 669 l 775 669 l 775 667 m 292 900 l 275 900 l 275 793 l 7 793 l -26 827 l -28 827 l -28 989 l 79 989 l 79 1096 l 455 1096 l 455 1095 l 488 1061 l 488 989 l 506 989 l 506 1096 l 775 1096 l 775 1095 l 808 1061 l 808 900 l 702 900 l 702 793 l 327 793 l 294 827 l 292 827 l 292 900 z "},"":{"ha":961,"x_min":-28,"x_max":808,"o":"m 214 641 l 534 641 l 534 106 l 214 106 l 214 641 m 641 106 l 747 106 l 747 641 l 641 641 l 641 747 l 106 747 l 106 641 l 0 641 l 0 106 l 106 106 l 106 0 l 641 0 l 641 106 m 534 961 l 427 961 l 427 1068 l 320 1068 l 320 1175 l 106 1175 l 106 1068 l 214 1068 l 214 961 l 320 961 l 320 854 l 534 854 l 534 961 m 506 580 l 275 580 l 275 134 l 506 134 l 506 580 m 775 667 l 808 634 l 808 45 l 702 45 l 702 -61 l 113 -61 l 80 -28 l 79 -28 l 79 45 l 7 45 l -26 79 l -28 79 l -28 669 l 79 669 l 79 775 l 669 775 l 669 774 l 702 741 l 702 669 l 775 669 l 775 667 m 562 989 l 562 987 l 595 954 l 595 793 l 327 793 l 294 827 l 292 827 l 292 900 l 220 900 l 187 933 l 186 933 l 186 1007 l 113 1007 l 80 1040 l 79 1040 l 79 1202 l 348 1202 l 348 1201 l 381 1168 l 381 1096 l 455 1096 l 455 1095 l 488 1061 l 488 989 l 562 989 z "},"":{"ha":961,"x_min":-28,"x_max":808,"o":"m 214 641 l 534 641 l 534 106 l 214 106 l 214 641 m 641 106 l 747 106 l 747 641 l 641 641 l 641 747 l 106 747 l 106 641 l 0 641 l 0 106 l 106 106 l 106 0 l 641 0 l 641 106 m 320 961 l 427 961 l 427 1068 l 534 1068 l 534 1175 l 320 1175 l 320 1068 l 214 1068 l 214 961 l 106 961 l 106 854 l 320 854 l 320 961 m 506 580 l 275 580 l 275 134 l 506 134 l 506 580 m 775 667 l 808 634 l 808 45 l 702 45 l 702 -61 l 113 -61 l 80 -28 l 79 -28 l 79 45 l 7 45 l -26 79 l -28 79 l -28 669 l 79 669 l 79 775 l 669 775 l 669 774 l 702 741 l 702 669 l 775 669 l 775 667 m 562 1201 l 595 1168 l 595 1007 l 488 1007 l 488 900 l 381 900 l 381 793 l 113 793 l 80 827 l 79 827 l 79 989 l 186 989 l 186 1096 l 292 1096 l 292 1202 l 562 1202 l 562 1201 z "},"":{"ha":961,"x_min":-28,"x_max":808,"o":"m 214 641 l 534 641 l 534 106 l 214 106 l 214 641 m 641 106 l 747 106 l 747 641 l 641 641 l 641 747 l 106 747 l 106 641 l 0 641 l 0 106 l 106 106 l 106 0 l 641 0 l 641 106 m 320 961 l 427 961 l 427 854 l 641 854 l 641 961 l 534 961 l 534 1068 l 427 1068 l 427 1175 l 320 1175 l 320 1068 l 214 1068 l 214 961 l 106 961 l 106 854 l 320 854 l 320 961 m 506 580 l 275 580 l 275 134 l 506 134 l 506 580 m 775 667 l 808 634 l 808 45 l 702 45 l 702 -61 l 113 -61 l 80 -28 l 79 -28 l 79 45 l 7 45 l -26 79 l -28 79 l -28 669 l 79 669 l 79 775 l 669 775 l 669 774 l 702 741 l 702 669 l 775 669 l 775 667 m 399 900 l 381 900 l 381 793 l 113 793 l 80 827 l 79 827 l 79 989 l 186 989 l 186 1096 l 292 1096 l 292 1202 l 455 1202 l 455 1201 l 488 1168 l 488 1096 l 562 1096 l 562 1095 l 595 1061 l 595 989 l 669 989 l 669 987 l 702 954 l 702 793 l 434 793 l 401 827 l 399 827 l 399 900 z "},"":{"ha":961,"x_min":-28,"x_max":808,"o":"m 214 641 l 534 641 l 534 106 l 214 106 l 214 641 m 641 106 l 747 106 l 747 641 l 641 641 l 641 747 l 106 747 l 106 641 l 0 641 l 0 106 l 106 106 l 106 0 l 641 0 l 641 106 m 214 961 l 320 961 l 320 854 l 641 854 l 641 961 l 747 961 l 747 1068 l 534 1068 l 534 961 l 427 961 l 427 1068 l 106 1068 l 106 961 l 0 961 l 0 854 l 214 854 l 214 961 m 506 580 l 275 580 l 275 134 l 506 134 l 506 580 m 775 667 l 808 634 l 808 45 l 702 45 l 702 -61 l 113 -61 l 80 -28 l 79 -28 l 79 45 l 7 45 l -26 79 l -28 79 l -28 669 l 79 669 l 79 775 l 669 775 l 669 774 l 702 741 l 702 669 l 775 669 l 775 667 m 292 900 l 275 900 l 275 793 l 7 793 l -26 827 l -28 827 l -28 989 l 79 989 l 79 1096 l 455 1096 l 455 1095 l 488 1061 l 488 989 l 506 989 l 506 1096 l 775 1096 l 775 1095 l 808 1061 l 808 900 l 702 900 l 702 793 l 327 793 l 294 827 l 292 827 l 292 900 z "},"":{"ha":961,"x_min":-28,"x_max":808,"o":"m 214 641 l 534 641 l 534 106 l 214 106 l 214 641 m 641 106 l 747 106 l 747 641 l 641 641 l 641 747 l 106 747 l 106 641 l 0 641 l 0 106 l 106 106 l 106 0 l 641 0 l 641 106 m 214 1068 l 0 1068 l 0 961 l 214 961 l 214 1068 m 747 1068 l 534 1068 l 534 961 l 747 961 l 747 1068 m 506 580 l 275 580 l 275 134 l 506 134 l 506 580 m 775 667 l 808 634 l 808 45 l 702 45 l 702 -61 l 113 -61 l 80 -28 l 79 -28 l 79 45 l 7 45 l -26 79 l -28 79 l -28 669 l 79 669 l 79 775 l 669 775 l 669 774 l 702 741 l 702 669 l 775 669 l 775 667 m 241 1096 l 241 1095 l 275 1061 l 275 900 l 7 900 l -26 933 l -28 933 l -28 1096 l 241 1096 m 775 1096 l 775 1095 l 808 1061 l 808 900 l 541 900 l 507 933 l 506 933 l 506 1096 l 775 1096 z "},"":{"ha":961,"x_min":79,"x_max":808,"o":"m 534 320 l 320 320 l 320 106 l 534 106 l 534 320 m 747 534 l 106 534 l 106 427 l 747 427 l 747 534 m 534 854 l 320 854 l 320 641 l 534 641 l 534 854 m 562 347 l 595 313 l 595 45 l 327 45 l 294 79 l 292 79 l 292 348 l 562 348 l 562 347 m 775 560 l 808 527 l 808 366 l 113 366 l 80 399 l 79 399 l 79 562 l 775 562 l 775 560 m 562 881 l 595 848 l 595 580 l 327 580 l 294 613 l 292 613 l 292 882 l 562 882 l 562 881 z "},"":{"ha":961,"x_min":-28,"x_max":808,"o":"m 214 214 l 320 214 l 320 320 l 427 320 l 427 427 l 534 427 l 534 106 l 214 106 l 214 214 m 214 641 l 427 641 l 427 534 l 320 534 l 320 427 l 214 427 l 214 641 m 641 106 l 747 106 l 747 641 l 641 641 l 641 747 l 106 747 l 106 641 l 0 641 l 0 106 l 106 106 l 106 0 l 641 0 l 641 106 m 506 366 l 488 366 l 488 259 l 381 259 l 381 153 l 275 153 l 275 134 l 506 134 l 506 366 m 399 580 l 275 580 l 275 455 l 292 455 l 292 562 l 399 562 l 399 580 m 775 667 l 808 634 l 808 45 l 702 45 l 702 -61 l 113 -61 l 80 -28 l 79 -28 l 79 45 l 7 45 l -26 79 l -28 79 l -28 669 l 79 669 l 79 775 l 669 775 l 669 774 l 702 741 l 702 669 l 775 669 l 775 667 z "},"":{"ha":961,"x_min":-28,"x_max":808,"o":"m 747 106 l 641 106 l 641 747 l 427 747 l 427 106 l 214 106 l 214 747 l 0 747 l 0 106 l 106 106 l 106 0 l 427 0 l 427 106 l 534 106 l 534 0 l 747 0 l 747 106 m 534 961 l 427 961 l 427 1068 l 320 1068 l 320 1175 l 106 1175 l 106 1068 l 214 1068 l 214 961 l 320 961 l 320 854 l 534 854 l 534 961 m 775 133 l 808 100 l 808 -61 l 541 -61 l 507 -28 l 506 -28 l 506 45 l 488 45 l 488 -61 l 113 -61 l 80 -28 l 79 -28 l 79 45 l 7 45 l -26 79 l -28 79 l -28 775 l 241 775 l 241 774 l 275 741 l 275 134 l 399 134 l 399 775 l 669 775 l 669 774 l 702 741 l 702 134 l 775 134 l 775 133 m 562 987 l 595 954 l 595 793 l 327 793 l 294 827 l 292 827 l 292 900 l 220 900 l 187 933 l 186 933 l 186 1007 l 113 1007 l 80 1040 l 79 1040 l 79 1202 l 348 1202 l 348 1201 l 381 1168 l 381 1096 l 455 1096 l 455 1095 l 488 1061 l 488 989 l 562 989 l 562 987 z "},"":{"ha":961,"x_min":-28,"x_max":808,"o":"m 747 106 l 641 106 l 641 747 l 427 747 l 427 106 l 214 106 l 214 747 l 0 747 l 0 106 l 106 106 l 106 0 l 427 0 l 427 106 l 534 106 l 534 0 l 747 0 l 747 106 m 320 961 l 427 961 l 427 1068 l 534 1068 l 534 1175 l 320 1175 l 320 1068 l 214 1068 l 214 961 l 106 961 l 106 854 l 320 854 l 320 961 m 775 133 l 808 100 l 808 -61 l 541 -61 l 507 -28 l 506 -28 l 506 45 l 488 45 l 488 -61 l 113 -61 l 80 -28 l 79 -28 l 79 45 l 7 45 l -26 79 l -28 79 l -28 775 l 241 775 l 241 774 l 275 741 l 275 134 l 399 134 l 399 775 l 669 775 l 669 774 l 702 741 l 702 134 l 775 134 l 775 133 m 562 1201 l 595 1168 l 595 1007 l 488 1007 l 488 900 l 381 900 l 381 793 l 113 793 l 80 827 l 79 827 l 79 989 l 186 989 l 186 1096 l 292 1096 l 292 1202 l 562 1202 l 562 1201 z "},"":{"ha":961,"x_min":-28,"x_max":808,"o":"m 747 106 l 641 106 l 641 747 l 427 747 l 427 106 l 214 106 l 214 747 l 0 747 l 0 106 l 106 106 l 106 0 l 427 0 l 427 106 l 534 106 l 534 0 l 747 0 l 747 106 m 214 961 l 427 961 l 427 854 l 641 854 l 641 961 l 534 961 l 534 1068 l 427 1068 l 427 1175 l 214 1175 l 214 1068 l 106 1068 l 106 961 l 0 961 l 0 854 l 214 854 l 214 961 m 775 133 l 808 100 l 808 -61 l 541 -61 l 507 -28 l 506 -28 l 506 45 l 488 45 l 488 -61 l 113 -61 l 80 -28 l 79 -28 l 79 45 l 7 45 l -26 79 l -28 79 l -28 775 l 241 775 l 241 774 l 275 741 l 275 134 l 399 134 l 399 775 l 669 775 l 669 774 l 702 741 l 702 134 l 775 134 l 775 133 m 399 900 l 275 900 l 275 793 l 7 793 l -26 827 l -28 827 l -28 989 l 79 989 l 79 1096 l 186 1096 l 186 1202 l 455 1202 l 455 1201 l 488 1168 l 488 1096 l 562 1096 l 562 1095 l 595 1061 l 595 989 l 669 989 l 669 987 l 702 954 l 702 793 l 434 793 l 401 827 l 399 827 l 399 900 z "},"":{"ha":961,"x_min":-28,"x_max":808,"o":"m 747 106 l 641 106 l 641 747 l 427 747 l 427 106 l 214 106 l 214 747 l 0 747 l 0 106 l 106 106 l 106 0 l 427 0 l 427 106 l 534 106 l 534 0 l 747 0 l 747 106 m 214 1068 l 0 1068 l 0 961 l 214 961 l 214 1068 m 641 1068 l 427 1068 l 427 961 l 641 961 l 641 1068 m 775 133 l 808 100 l 808 -61 l 541 -61 l 507 -28 l 506 -28 l 506 45 l 488 45 l 488 -61 l 113 -61 l 80 -28 l 79 -28 l 79 45 l 7 45 l -26 79 l -28 79 l -28 775 l 241 775 l 241 774 l 275 741 l 275 134 l 399 134 l 399 775 l 669 775 l 669 774 l 702 741 l 702 134 l 775 134 l 775 133 m 241 1095 l 275 1061 l 275 900 l 7 900 l -26 933 l -28 933 l -28 1096 l 241 1096 l 241 1095 m 669 1095 l 702 1061 l 702 900 l 434 900 l 401 933 l 399 933 l 399 1096 l 669 1096 l 669 1095 z "},"":{"ha":961,"x_min":-28,"x_max":808,"o":"m 534 -214 l 641 -214 l 641 -106 l 747 -106 l 747 747 l 534 747 l 534 106 l 214 106 l 214 747 l 0 747 l 0 106 l 106 106 l 106 0 l 534 0 l 534 -106 l 427 -106 l 427 -214 l 0 -214 l 0 -320 l 534 -320 l 534 -214 m 427 961 l 534 961 l 534 1068 l 641 1068 l 641 1175 l 427 1175 l 427 1068 l 320 1068 l 320 961 l 214 961 l 214 854 l 427 854 l 427 961 m 775 774 l 808 741 l 808 -168 l 702 -168 l 702 -275 l 595 -275 l 595 -381 l 7 -381 l -26 -348 l -28 -348 l -28 -186 l 399 -186 l 399 -79 l 506 -79 l 506 -61 l 113 -61 l 80 -28 l 79 -28 l 79 45 l 7 45 l -26 79 l -28 79 l -28 775 l 241 775 l 241 774 l 275 741 l 275 134 l 506 134 l 506 775 l 775 775 l 775 774 m 669 1201 l 702 1168 l 702 1007 l 595 1007 l 595 900 l 488 900 l 488 793 l 220 793 l 187 827 l 186 827 l 186 989 l 292 989 l 292 1096 l 399 1096 l 399 1202 l 669 1202 l 669 1201 z "},"":{"ha":961,"x_min":-28,"x_max":808,"o":"m 320 641 l 534 641 l 534 106 l 320 106 l 320 641 m 427 -214 l 320 -214 l 320 0 l 641 0 l 641 106 l 747 106 l 747 641 l 641 641 l 641 747 l 320 747 l 320 1068 l 0 1068 l 0 961 l 106 961 l 106 -214 l 0 -214 l 0 -320 l 427 -320 l 427 -214 m 506 580 l 381 580 l 381 134 l 506 134 l 506 580 m 455 -186 l 455 -187 l 488 -220 l 488 -381 l 7 -381 l -26 -348 l -28 -348 l -28 -186 l 79 -186 l 79 900 l 7 900 l -26 933 l -28 933 l -28 1096 l 348 1096 l 348 1095 l 381 1061 l 381 775 l 669 775 l 669 774 l 702 741 l 702 669 l 775 669 l 775 667 l 808 634 l 808 45 l 702 45 l 702 -61 l 381 -61 l 381 -186 l 455 -186 z "},"":{"ha":961,"x_min":-28,"x_max":808,"o":"m 534 -214 l 641 -214 l 641 -106 l 747 -106 l 747 747 l 534 747 l 534 106 l 214 106 l 214 747 l 0 747 l 0 106 l 106 106 l 106 0 l 534 0 l 534 -106 l 427 -106 l 427 -214 l 0 -214 l 0 -320 l 534 -320 l 534 -214 m 214 1068 l 0 1068 l 0 961 l 214 961 l 214 1068 m 747 1068 l 534 1068 l 534 961 l 747 961 l 747 1068 m 775 774 l 808 741 l 808 -168 l 702 -168 l 702 -275 l 595 -275 l 595 -381 l 7 -381 l -26 -348 l -28 -348 l -28 -186 l 399 -186 l 399 -79 l 506 -79 l 506 -61 l 113 -61 l 80 -28 l 79 -28 l 79 45 l 7 45 l -26 79 l -28 79 l -28 775 l 241 775 l 241 774 l 275 741 l 275 134 l 506 134 l 506 775 l 775 775 l 775 774 m 241 1095 l 275 1061 l 275 900 l 7 900 l -26 933 l -28 933 l -28 1096 l 241 1096 l 241 1095 m 775 1095 l 808 1061 l 808 900 l 541 900 l 507 933 l 506 933 l 506 1096 l 775 1096 l 775 1095 z "},"":{"ha":961,"x_min":-28,"x_max":808,"o":"m 214 747 l 320 747 l 320 854 l 427 854 l 427 747 l 534 747 l 534 534 l 214 534 l 214 747 m 214 427 l 534 427 l 534 0 l 747 0 l 747 747 l 641 747 l 641 854 l 534 854 l 534 961 l 427 961 l 427 1068 l 320 1068 l 320 961 l 214 961 l 214 854 l 106 854 l 106 747 l 0 747 l 0 0 l 214 0 l 214 427 m 641 1282 l 106 1282 l 106 1175 l 641 1175 l 641 1282 m 399 793 l 381 793 l 381 686 l 275 686 l 275 562 l 506 562 l 506 686 l 434 686 l 401 720 l 399 720 l 399 793 m 506 366 l 275 366 l 275 -61 l 7 -61 l -26 -28 l -28 -28 l -28 775 l 79 775 l 79 882 l 186 882 l 186 989 l 292 989 l 292 1096 l 455 1096 l 455 1095 l 488 1061 l 488 989 l 562 989 l 562 987 l 595 954 l 595 882 l 669 882 l 669 881 l 702 848 l 702 775 l 775 775 l 775 774 l 808 741 l 808 -61 l 541 -61 l 507 -28 l 506 -28 l 506 366 m 669 1310 l 669 1308 l 702 1275 l 702 1114 l 113 1114 l 80 1147 l 79 1147 l 79 1310 l 669 1310 z "},"":{"ha":961,"x_min":-28,"x_max":808,"o":"m 214 427 l 427 427 l 427 106 l 214 106 l 214 427 m 427 106 l 534 106 l 534 0 l 747 0 l 747 106 l 641 106 l 641 641 l 534 641 l 534 747 l 106 747 l 106 641 l 427 641 l 427 534 l 106 534 l 106 427 l 0 427 l 0 106 l 106 106 l 106 0 l 427 0 l 427 106 m 641 1068 l 106 1068 l 106 961 l 641 961 l 641 1068 m 399 366 l 275 366 l 275 134 l 399 134 l 399 366 m 506 45 l 488 45 l 488 -61 l 113 -61 l 80 -28 l 79 -28 l 79 45 l 7 45 l -26 79 l -28 79 l -28 455 l 79 455 l 79 562 l 399 562 l 399 580 l 113 580 l 80 613 l 79 613 l 79 775 l 562 775 l 562 774 l 595 741 l 595 669 l 669 669 l 669 667 l 702 634 l 702 134 l 775 134 l 775 133 l 808 100 l 808 -61 l 541 -61 l 507 -28 l 506 -28 l 506 45 m 669 1096 l 669 1095 l 702 1061 l 702 900 l 113 900 l 80 933 l 79 933 l 79 1096 l 669 1096 z "},"":{"ha":961,"x_min":-28,"x_max":808,"o":"m 214 641 l 320 641 l 320 747 l 427 747 l 427 641 l 534 641 l 534 427 l 214 427 l 214 641 m 214 320 l 534 320 l 534 0 l 747 0 l 747 641 l 641 641 l 641 747 l 534 747 l 534 854 l 427 854 l 427 961 l 320 961 l 320 854 l 214 854 l 214 747 l 106 747 l 106 641 l 0 641 l 0 0 l 214 0 l 214 320 m 641 1175 l 747 1175 l 747 1282 l 534 1282 l 534 1175 l 214 1175 l 214 1282 l 0 1282 l 0 1175 l 106 1175 l 106 1068 l 641 1068 l 641 1175 m 399 686 l 381 686 l 381 580 l 275 580 l 275 455 l 506 455 l 506 580 l 434 580 l 401 613 l 399 613 l 399 686 m 506 259 l 275 259 l 275 -61 l 7 -61 l -26 -28 l -28 -28 l -28 669 l 79 669 l 79 775 l 186 775 l 186 882 l 292 882 l 292 989 l 455 989 l 455 987 l 488 954 l 488 882 l 562 882 l 562 881 l 595 848 l 595 775 l 669 775 l 669 774 l 702 741 l 702 669 l 775 669 l 775 667 l 808 634 l 808 -61 l 541 -61 l 507 -28 l 506 -28 l 506 259 m 775 1308 l 808 1275 l 808 1114 l 702 1114 l 702 1007 l 113 1007 l 80 1040 l 79 1040 l 79 1114 l 7 1114 l -26 1147 l -28 1147 l -28 1310 l 241 1310 l 241 1308 l 275 1275 l 275 1202 l 506 1202 l 506 1310 l 775 1310 l 775 1308 z "},"":{"ha":961,"x_min":-28,"x_max":808,"o":"m 214 427 l 427 427 l 427 106 l 214 106 l 214 427 m 427 106 l 534 106 l 534 0 l 747 0 l 747 106 l 641 106 l 641 641 l 534 641 l 534 747 l 106 747 l 106 641 l 427 641 l 427 534 l 106 534 l 106 427 l 0 427 l 0 106 l 106 106 l 106 0 l 427 0 l 427 106 m 399 366 l 275 366 l 275 134 l 399 134 l 399 366 m 506 45 l 488 45 l 488 -61 l 113 -61 l 80 -28 l 79 -28 l 79 45 l 7 45 l -26 79 l -28 79 l -28 455 l 79 455 l 79 562 l 399 562 l 399 580 l 113 580 l 80 613 l 79 613 l 79 775 l 562 775 l 562 774 l 595 741 l 595 669 l 669 669 l 669 667 l 702 634 l 702 134 l 775 134 l 775 133 l 808 100 l 808 -61 l 541 -61 l 507 -28 l 506 -28 l 506 45 z "},"":{"ha":961,"x_min":-28,"x_max":808,"o":"m 214 747 l 320 747 l 320 854 l 427 854 l 427 747 l 534 747 l 534 534 l 214 534 l 214 747 m 214 427 l 534 427 l 534 0 l 320 0 l 320 -106 l 214 -106 l 214 -214 l 320 -214 l 320 -320 l 747 -320 l 747 -214 l 427 -214 l 427 -106 l 534 -106 l 534 0 l 747 0 l 747 747 l 641 747 l 641 854 l 534 854 l 534 961 l 427 961 l 427 1068 l 320 1068 l 320 961 l 214 961 l 214 854 l 106 854 l 106 747 l 0 747 l 0 0 l 214 0 l 214 427 m 399 793 l 381 793 l 381 686 l 275 686 l 275 562 l 506 562 l 506 686 l 434 686 l 401 720 l 399 720 l 399 793 m 506 366 l 275 366 l 275 -61 l 7 -61 l -26 -28 l -28 -28 l -28 775 l 79 775 l 79 882 l 186 882 l 186 989 l 292 989 l 292 1096 l 455 1096 l 455 1095 l 488 1061 l 488 989 l 562 989 l 562 987 l 595 954 l 595 882 l 669 882 l 669 881 l 702 848 l 702 775 l 775 775 l 775 774 l 808 741 l 808 -61 l 595 -61 l 595 -168 l 488 -168 l 488 -186 l 775 -186 l 775 -187 l 808 -220 l 808 -381 l 327 -381 l 294 -348 l 292 -348 l 292 -275 l 220 -275 l 187 -241 l 186 -241 l 186 -79 l 292 -79 l 292 28 l 506 28 l 506 366 z "},"":{"ha":961,"x_min":-28,"x_max":808,"o":"m 427 106 l 534 106 l 534 0 l 427 0 l 427 106 m 214 427 l 427 427 l 427 106 l 214 106 l 214 427 m 747 -214 l 427 -214 l 427 -106 l 534 -106 l 534 0 l 747 0 l 747 106 l 641 106 l 641 641 l 534 641 l 534 747 l 106 747 l 106 641 l 427 641 l 427 534 l 106 534 l 106 427 l 0 427 l 0 106 l 106 106 l 106 0 l 320 0 l 320 -106 l 214 -106 l 214 -214 l 320 -214 l 320 -320 l 747 -320 l 747 -214 m 506 45 l 488 45 l 488 28 l 506 28 l 506 45 m 399 366 l 275 366 l 275 134 l 399 134 l 399 366 m 775 -186 l 775 -187 l 808 -220 l 808 -381 l 327 -381 l 294 -348 l 292 -348 l 292 -275 l 220 -275 l 187 -241 l 186 -241 l 186 -79 l 292 -79 l 292 -61 l 113 -61 l 80 -28 l 79 -28 l 79 45 l 7 45 l -26 79 l -28 79 l -28 455 l 79 455 l 79 562 l 399 562 l 399 580 l 113 580 l 80 613 l 79 613 l 79 775 l 562 775 l 562 774 l 595 741 l 595 669 l 669 669 l 669 667 l 702 634 l 702 134 l 775 134 l 775 133 l 808 100 l 808 -61 l 595 -61 l 595 -168 l 488 -168 l 488 -186 l 775 -186 z "},"":{"ha":961,"x_min":-28,"x_max":808,"o":"m 641 106 l 747 106 l 747 320 l 641 320 l 641 214 l 534 214 l 534 106 l 320 106 l 320 214 l 214 214 l 214 747 l 320 747 l 320 854 l 534 854 l 534 747 l 641 747 l 641 641 l 747 641 l 747 854 l 641 854 l 641 961 l 214 961 l 214 854 l 106 854 l 106 747 l 0 747 l 0 214 l 106 214 l 106 106 l 214 106 l 214 0 l 641 0 l 641 106 m 534 1175 l 641 1175 l 641 1282 l 427 1282 l 427 1175 l 320 1175 l 320 1068 l 534 1068 l 534 1175 m 775 347 l 808 313 l 808 45 l 702 45 l 702 -61 l 220 -61 l 187 -28 l 186 -28 l 186 45 l 113 45 l 80 79 l 79 79 l 79 153 l 7 153 l -26 186 l -28 186 l -28 775 l 79 775 l 79 882 l 186 882 l 186 989 l 669 989 l 669 987 l 702 954 l 702 882 l 775 882 l 775 881 l 808 848 l 808 580 l 648 580 l 614 613 l 613 613 l 613 686 l 541 686 l 507 720 l 506 720 l 506 793 l 381 793 l 381 686 l 275 686 l 275 241 l 348 241 l 348 240 l 381 207 l 381 134 l 506 134 l 506 241 l 613 241 l 613 348 l 775 348 l 775 347 m 669 1308 l 702 1275 l 702 1114 l 595 1114 l 595 1007 l 327 1007 l 294 1040 l 292 1040 l 292 1202 l 399 1202 l 399 1310 l 669 1310 l 669 1308 z "},"":{"ha":961,"x_min":-28,"x_max":808,"o":"m 641 106 l 747 106 l 747 214 l 534 214 l 534 106 l 214 106 l 214 641 l 534 641 l 534 534 l 747 534 l 747 641 l 641 641 l 641 747 l 106 747 l 106 641 l 0 641 l 0 106 l 106 106 l 106 0 l 641 0 l 641 106 m 427 961 l 534 961 l 534 1068 l 641 1068 l 641 1175 l 427 1175 l 427 1068 l 320 1068 l 320 961 l 214 961 l 214 854 l 427 854 l 427 961 m 775 240 l 808 207 l 808 45 l 702 45 l 702 -61 l 113 -61 l 80 -28 l 79 -28 l 79 45 l 7 45 l -26 79 l -28 79 l -28 669 l 79 669 l 79 775 l 669 775 l 669 774 l 702 741 l 702 669 l 775 669 l 775 667 l 808 634 l 808 473 l 541 473 l 507 506 l 506 506 l 506 580 l 275 580 l 275 134 l 506 134 l 506 241 l 775 241 l 775 240 m 669 1201 l 702 1168 l 702 1007 l 595 1007 l 595 900 l 488 900 l 488 793 l 220 793 l 187 827 l 186 827 l 186 989 l 292 989 l 292 1096 l 399 1096 l 399 1202 l 669 1202 l 669 1201 z "},"":{"ha":961,"x_min":-28,"x_max":808,"o":"m 641 106 l 747 106 l 747 320 l 641 320 l 641 214 l 534 214 l 534 106 l 320 106 l 320 214 l 214 214 l 214 747 l 320 747 l 320 854 l 534 854 l 534 747 l 641 747 l 641 641 l 747 641 l 747 854 l 641 854 l 641 961 l 214 961 l 214 854 l 106 854 l 106 747 l 0 747 l 0 214 l 106 214 l 106 106 l 214 106 l 214 0 l 641 0 l 641 106 m 427 1175 l 534 1175 l 534 1068 l 747 1068 l 747 1175 l 641 1175 l 641 1282 l 320 1282 l 320 1175 l 214 1175 l 214 1068 l 427 1068 l 427 1175 m 775 347 l 808 313 l 808 45 l 702 45 l 702 -61 l 220 -61 l 187 -28 l 186 -28 l 186 45 l 113 45 l 80 79 l 79 79 l 79 153 l 7 153 l -26 186 l -28 186 l -28 775 l 79 775 l 79 882 l 186 882 l 186 989 l 669 989 l 669 987 l 702 954 l 702 882 l 775 882 l 775 881 l 808 848 l 808 580 l 648 580 l 614 613 l 613 613 l 613 686 l 541 686 l 507 720 l 506 720 l 506 793 l 381 793 l 381 686 l 275 686 l 275 241 l 348 241 l 348 240 l 381 207 l 381 134 l 506 134 l 506 241 l 613 241 l 613 348 l 775 348 l 775 347 m 506 1114 l 488 1114 l 488 1007 l 220 1007 l 187 1040 l 186 1040 l 186 1202 l 292 1202 l 292 1310 l 669 1310 l 669 1308 l 702 1275 l 702 1202 l 775 1202 l 775 1201 l 808 1168 l 808 1007 l 541 1007 l 507 1040 l 506 1040 l 506 1114 z "},"":{"ha":961,"x_min":-28,"x_max":808,"o":"m 641 106 l 747 106 l 747 214 l 534 214 l 534 106 l 214 106 l 214 641 l 534 641 l 534 534 l 747 534 l 747 641 l 641 641 l 641 747 l 106 747 l 106 641 l 0 641 l 0 106 l 106 106 l 106 0 l 641 0 l 641 106 m 320 961 l 427 961 l 427 854 l 641 854 l 641 961 l 534 961 l 534 1068 l 427 1068 l 427 1175 l 320 1175 l 320 1068 l 214 1068 l 214 961 l 106 961 l 106 854 l 320 854 l 320 961 m 775 240 l 808 207 l 808 45 l 702 45 l 702 -61 l 113 -61 l 80 -28 l 79 -28 l 79 45 l 7 45 l -26 79 l -28 79 l -28 669 l 79 669 l 79 775 l 669 775 l 669 774 l 702 741 l 702 669 l 775 669 l 775 667 l 808 634 l 808 473 l 541 473 l 507 506 l 506 506 l 506 580 l 275 580 l 275 134 l 506 134 l 506 241 l 775 241 l 775 240 m 399 900 l 381 900 l 381 793 l 113 793 l 80 827 l 79 827 l 79 989 l 186 989 l 186 1096 l 292 1096 l 292 1202 l 455 1202 l 455 1201 l 488 1168 l 488 1096 l 562 1096 l 562 1095 l 595 1061 l 595 989 l 669 989 l 669 987 l 702 954 l 702 793 l 434 793 l 401 827 l 399 827 l 399 900 z "},"":{"ha":961,"x_min":-28,"x_max":808,"o":"m 641 106 l 747 106 l 747 320 l 641 320 l 641 214 l 534 214 l 534 106 l 320 106 l 320 214 l 214 214 l 214 747 l 320 747 l 320 854 l 534 854 l 534 747 l 641 747 l 641 641 l 747 641 l 747 854 l 641 854 l 641 961 l 214 961 l 214 854 l 106 854 l 106 747 l 0 747 l 0 214 l 106 214 l 106 106 l 214 106 l 214 0 l 641 0 l 641 106 m 534 1282 l 320 1282 l 320 1068 l 534 1068 l 534 1282 m 775 347 l 808 313 l 808 45 l 702 45 l 702 -61 l 220 -61 l 187 -28 l 186 -28 l 186 45 l 113 45 l 80 79 l 79 79 l 79 153 l 7 153 l -26 186 l -28 186 l -28 775 l 79 775 l 79 882 l 186 882 l 186 989 l 669 989 l 669 987 l 702 954 l 702 882 l 775 882 l 775 881 l 808 848 l 808 580 l 648 580 l 614 613 l 613 613 l 613 686 l 541 686 l 507 720 l 506 720 l 506 793 l 381 793 l 381 686 l 275 686 l 275 241 l 348 241 l 348 240 l 381 207 l 381 134 l 506 134 l 506 241 l 613 241 l 613 348 l 775 348 l 775 347 m 562 1308 l 595 1275 l 595 1007 l 327 1007 l 294 1040 l 292 1040 l 292 1310 l 562 1310 l 562 1308 z "},"":{"ha":961,"x_min":-28,"x_max":808,"o":"m 641 106 l 747 106 l 747 214 l 534 214 l 534 106 l 214 106 l 214 641 l 534 641 l 534 534 l 747 534 l 747 641 l 641 641 l 641 747 l 106 747 l 106 641 l 0 641 l 0 106 l 106 106 l 106 0 l 641 0 l 641 106 m 534 1068 l 320 1068 l 320 854 l 534 854 l 534 1068 m 775 240 l 808 207 l 808 45 l 702 45 l 702 -61 l 113 -61 l 80 -28 l 79 -28 l 79 45 l 7 45 l -26 79 l -28 79 l -28 669 l 79 669 l 79 775 l 669 775 l 669 774 l 702 741 l 702 669 l 775 669 l 775 667 l 808 634 l 808 473 l 541 473 l 507 506 l 506 506 l 506 580 l 275 580 l 275 134 l 506 134 l 506 241 l 775 241 l 775 240 m 562 1095 l 595 1061 l 595 793 l 327 793 l 294 827 l 292 827 l 292 1096 l 562 1096 l 562 1095 z "},"":{"ha":961,"x_min":-28,"x_max":808,"o":"m 641 106 l 747 106 l 747 320 l 641 320 l 641 214 l 534 214 l 534 106 l 320 106 l 320 214 l 214 214 l 214 747 l 320 747 l 320 854 l 534 854 l 534 747 l 641 747 l 641 641 l 747 641 l 747 854 l 641 854 l 641 961 l 214 961 l 214 854 l 106 854 l 106 747 l 0 747 l 0 214 l 106 214 l 106 106 l 214 106 l 214 0 l 641 0 l 641 106 m 641 1175 l 747 1175 l 747 1282 l 534 1282 l 534 1175 l 320 1175 l 320 1282 l 106 1282 l 106 1175 l 214 1175 l 214 1068 l 641 1068 l 641 1175 m 775 347 l 808 313 l 808 45 l 702 45 l 702 -61 l 220 -61 l 187 -28 l 186 -28 l 186 45 l 113 45 l 80 79 l 79 79 l 79 153 l 7 153 l -26 186 l -28 186 l -28 775 l 79 775 l 79 882 l 186 882 l 186 989 l 669 989 l 669 987 l 702 954 l 702 882 l 775 882 l 775 881 l 808 848 l 808 580 l 648 580 l 614 613 l 613 613 l 613 686 l 541 686 l 507 720 l 506 720 l 506 793 l 381 793 l 381 686 l 275 686 l 275 241 l 348 241 l 348 240 l 381 207 l 381 134 l 506 134 l 506 241 l 613 241 l 613 348 l 775 348 l 775 347 m 775 1308 l 808 1275 l 808 1114 l 702 1114 l 702 1007 l 220 1007 l 187 1040 l 186 1040 l 186 1114 l 113 1114 l 80 1147 l 79 1147 l 79 1310 l 348 1310 l 348 1308 l 381 1275 l 381 1202 l 506 1202 l 506 1310 l 775 1310 l 775 1308 z "},"":{"ha":961,"x_min":-28,"x_max":808,"o":"m 641 106 l 747 106 l 747 214 l 534 214 l 534 106 l 214 106 l 214 641 l 534 641 l 534 534 l 747 534 l 747 641 l 641 641 l 641 747 l 106 747 l 106 641 l 0 641 l 0 106 l 106 106 l 106 0 l 641 0 l 641 106 m 534 961 l 641 961 l 641 1068 l 427 1068 l 427 961 l 320 961 l 320 1068 l 106 1068 l 106 961 l 214 961 l 214 854 l 534 854 l 534 961 m 775 240 l 808 207 l 808 45 l 702 45 l 702 -61 l 113 -61 l 80 -28 l 79 -28 l 79 45 l 7 45 l -26 79 l -28 79 l -28 669 l 79 669 l 79 775 l 669 775 l 669 774 l 702 741 l 702 669 l 775 669 l 775 667 l 808 634 l 808 473 l 541 473 l 507 506 l 506 506 l 506 580 l 275 580 l 275 134 l 506 134 l 506 241 l 775 241 l 775 240 m 669 1095 l 702 1061 l 702 900 l 595 900 l 595 793 l 220 793 l 187 827 l 186 827 l 186 900 l 113 900 l 80 933 l 79 933 l 79 1096 l 348 1096 l 348 1095 l 381 1061 l 381 989 l 399 989 l 399 1096 l 669 1096 l 669 1095 z "},"":{"ha":961,"x_min":-28,"x_max":808,"o":"m 320 854 l 427 854 l 427 747 l 534 747 l 534 214 l 427 214 l 427 106 l 320 106 l 320 854 m 534 106 l 641 106 l 641 214 l 747 214 l 747 747 l 641 747 l 641 854 l 534 854 l 534 961 l 0 961 l 0 854 l 106 854 l 106 106 l 0 106 l 0 0 l 534 0 l 534 106 m 534 1175 l 641 1175 l 641 1282 l 427 1282 l 427 1175 l 320 1175 l 320 1282 l 106 1282 l 106 1175 l 214 1175 l 214 1068 l 534 1068 l 534 1175 m 399 793 l 381 793 l 381 134 l 399 134 l 399 241 l 506 241 l 506 686 l 434 686 l 401 720 l 399 720 l 399 793 m 775 774 l 808 741 l 808 153 l 702 153 l 702 45 l 595 45 l 595 -61 l 7 -61 l -26 -28 l -28 -28 l -28 134 l 79 134 l 79 793 l 7 793 l -26 827 l -28 827 l -28 989 l 562 989 l 562 987 l 595 954 l 595 882 l 669 882 l 669 881 l 702 848 l 702 775 l 775 775 l 775 774 m 669 1308 l 702 1275 l 702 1114 l 595 1114 l 595 1007 l 220 1007 l 187 1040 l 186 1040 l 186 1114 l 113 1114 l 80 1147 l 79 1147 l 79 1310 l 348 1310 l 348 1308 l 381 1275 l 381 1202 l 399 1202 l 399 1310 l 669 1310 l 669 1308 z "},"":{"ha":961,"x_min":-28,"x_max":916,"o":"m 214 534 l 320 534 l 320 641 l 427 641 l 427 106 l 214 106 l 214 534 m 427 106 l 534 106 l 534 0 l 747 0 l 747 106 l 641 106 l 641 961 l 747 961 l 747 1068 l 854 1068 l 854 1282 l 641 1282 l 641 1068 l 320 1068 l 320 961 l 427 961 l 427 747 l 214 747 l 214 641 l 106 641 l 106 534 l 0 534 l 0 106 l 106 106 l 106 0 l 427 0 l 427 106 m 399 580 l 381 580 l 381 473 l 275 473 l 275 134 l 399 134 l 399 580 m 506 45 l 488 45 l 488 -61 l 113 -61 l 80 -28 l 79 -28 l 79 45 l 7 45 l -26 79 l -28 79 l -28 562 l 79 562 l 79 669 l 186 669 l 186 775 l 399 775 l 399 900 l 327 900 l 294 933 l 292 933 l 292 1096 l 613 1096 l 613 1310 l 882 1310 l 882 1308 l 916 1275 l 916 1007 l 808 1007 l 808 900 l 702 900 l 702 134 l 775 134 l 775 133 l 808 100 l 808 -61 l 541 -61 l 507 -28 l 506 -28 l 506 45 z "},"":{"ha":961,"x_min":-28,"x_max":808,"o":"m 320 534 l 427 534 l 427 641 l 320 641 l 320 961 l 427 961 l 427 854 l 534 854 l 534 214 l 427 214 l 427 106 l 320 106 l 320 534 m 534 106 l 641 106 l 641 214 l 747 214 l 747 854 l 641 854 l 641 961 l 534 961 l 534 1068 l 0 1068 l 0 961 l 106 961 l 106 641 l 0 641 l 0 534 l 106 534 l 106 106 l 0 106 l 0 0 l 534 0 l 534 106 m 455 667 l 488 634 l 488 473 l 381 473 l 381 134 l 399 134 l 399 241 l 506 241 l 506 793 l 434 793 l 401 827 l 399 827 l 399 900 l 381 900 l 381 669 l 455 669 l 455 667 m 775 881 l 808 848 l 808 153 l 702 153 l 702 45 l 595 45 l 595 -61 l 7 -61 l -26 -28 l -28 -28 l -28 134 l 79 134 l 79 473 l 7 473 l -26 506 l -28 506 l -28 669 l 79 669 l 79 900 l 7 900 l -26 933 l -28 933 l -28 1096 l 562 1096 l 562 1095 l 595 1061 l 595 989 l 669 989 l 669 987 l 702 954 l 702 882 l 775 882 l 775 881 z "},"":{"ha":961,"x_min":-28,"x_max":808,"o":"m 214 427 l 320 427 l 320 534 l 427 534 l 427 106 l 214 106 l 214 427 m 427 106 l 534 106 l 534 0 l 747 0 l 747 106 l 641 106 l 641 747 l 747 747 l 747 854 l 641 854 l 641 1068 l 427 1068 l 427 854 l 106 854 l 106 747 l 427 747 l 427 641 l 214 641 l 214 534 l 106 534 l 106 427 l 0 427 l 0 106 l 106 106 l 106 0 l 427 0 l 427 106 m 399 473 l 381 473 l 381 366 l 275 366 l 275 134 l 399 134 l 399 473 m 506 45 l 488 45 l 488 -61 l 113 -61 l 80 -28 l 79 -28 l 79 45 l 7 45 l -26 79 l -28 79 l -28 455 l 79 455 l 79 562 l 186 562 l 186 669 l 399 669 l 399 686 l 113 686 l 80 720 l 79 720 l 79 882 l 399 882 l 399 1096 l 669 1096 l 669 1095 l 702 1061 l 702 882 l 775 882 l 775 881 l 808 848 l 808 686 l 702 686 l 702 134 l 775 134 l 775 133 l 808 100 l 808 -61 l 541 -61 l 507 -28 l 506 -28 l 506 45 z "},"":{"ha":961,"x_min":-28,"x_max":808,"o":"m 747 320 l 641 320 l 641 214 l 534 214 l 534 106 l 320 106 l 320 534 l 427 534 l 427 427 l 534 427 l 534 747 l 427 747 l 427 641 l 320 641 l 320 961 l 534 961 l 534 854 l 641 854 l 641 747 l 747 747 l 747 1068 l 0 1068 l 0 961 l 106 961 l 106 106 l 0 106 l 0 0 l 747 0 l 747 320 m 641 1282 l 106 1282 l 106 1175 l 641 1175 l 641 1282 m 775 347 l 808 313 l 808 -61 l 7 -61 l -26 -28 l -28 -28 l -28 134 l 79 134 l 79 900 l 7 900 l -26 933 l -28 933 l -28 1096 l 775 1096 l 775 1095 l 808 1061 l 808 686 l 648 686 l 614 720 l 613 720 l 613 793 l 541 793 l 507 827 l 506 827 l 506 900 l 381 900 l 381 669 l 399 669 l 399 775 l 562 775 l 562 774 l 595 741 l 595 366 l 434 366 l 401 399 l 399 399 l 399 473 l 381 473 l 381 134 l 506 134 l 506 241 l 613 241 l 613 348 l 775 348 l 775 347 m 669 1308 l 702 1275 l 702 1114 l 113 1114 l 80 1147 l 79 1147 l 79 1310 l 669 1310 l 669 1308 z "},"":{"ha":961,"x_min":-28,"x_max":808,"o":"m 214 641 l 534 641 l 534 534 l 214 534 l 214 641 m 641 106 l 747 106 l 747 214 l 534 214 l 534 106 l 214 106 l 214 427 l 747 427 l 747 641 l 641 641 l 641 747 l 106 747 l 106 641 l 0 641 l 0 106 l 106 106 l 106 0 l 641 0 l 641 106 m 641 1068 l 106 1068 l 106 961 l 641 961 l 641 1068 m 506 580 l 275 580 l 275 562 l 506 562 l 506 580 m 775 240 l 808 207 l 808 45 l 702 45 l 702 -61 l 113 -61 l 80 -28 l 79 -28 l 79 45 l 7 45 l -26 79 l -28 79 l -28 669 l 79 669 l 79 775 l 669 775 l 669 774 l 702 741 l 702 669 l 775 669 l 775 667 l 808 634 l 808 366 l 275 366 l 275 134 l 506 134 l 506 241 l 775 241 l 775 240 m 669 1096 l 669 1095 l 702 1061 l 702 900 l 113 900 l 80 933 l 79 933 l 79 1096 l 669 1096 z "},"":{"ha":961,"x_min":-28,"x_max":808,"o":"m 747 320 l 641 320 l 641 214 l 534 214 l 534 106 l 320 106 l 320 427 l 427 427 l 427 320 l 534 320 l 534 641 l 427 641 l 427 534 l 320 534 l 320 854 l 534 854 l 534 747 l 641 747 l 641 641 l 747 641 l 747 961 l 0 961 l 0 854 l 106 854 l 106 106 l 0 106 l 0 0 l 747 0 l 747 320 m 641 1175 l 747 1175 l 747 1282 l 534 1282 l 534 1175 l 214 1175 l 214 1282 l 0 1282 l 0 1175 l 106 1175 l 106 1068 l 641 1068 l 641 1175 m 775 347 l 808 313 l 808 -61 l 7 -61 l -26 -28 l -28 -28 l -28 134 l 79 134 l 79 793 l 7 793 l -26 827 l -28 827 l -28 989 l 775 989 l 775 987 l 808 954 l 808 580 l 648 580 l 614 613 l 613 613 l 613 686 l 541 686 l 507 720 l 506 720 l 506 793 l 381 793 l 381 562 l 399 562 l 399 669 l 562 669 l 562 667 l 595 634 l 595 259 l 434 259 l 401 292 l 399 292 l 399 366 l 381 366 l 381 134 l 506 134 l 506 241 l 613 241 l 613 348 l 775 348 l 775 347 m 775 1308 l 808 1275 l 808 1114 l 702 1114 l 702 1007 l 113 1007 l 80 1040 l 79 1040 l 79 1114 l 7 1114 l -26 1147 l -28 1147 l -28 1310 l 241 1310 l 241 1308 l 275 1275 l 275 1202 l 506 1202 l 506 1310 l 775 1310 l 775 1308 z "},"":{"ha":961,"x_min":-28,"x_max":808,"o":"m 214 641 l 534 641 l 534 534 l 214 534 l 214 641 m 641 106 l 747 106 l 747 214 l 534 214 l 534 106 l 214 106 l 214 427 l 747 427 l 747 641 l 641 641 l 641 747 l 106 747 l 106 641 l 0 641 l 0 106 l 106 106 l 106 0 l 641 0 l 641 106 m 641 961 l 747 961 l 747 1068 l 534 1068 l 534 961 l 214 961 l 214 1068 l 0 1068 l 0 961 l 106 961 l 106 854 l 641 854 l 641 961 m 506 580 l 275 580 l 275 562 l 506 562 l 506 580 m 775 240 l 808 207 l 808 45 l 702 45 l 702 -61 l 113 -61 l 80 -28 l 79 -28 l 79 45 l 7 45 l -26 79 l -28 79 l -28 669 l 79 669 l 79 775 l 669 775 l 669 774 l 702 741 l 702 669 l 775 669 l 775 667 l 808 634 l 808 366 l 275 366 l 275 134 l 506 134 l 506 241 l 775 241 l 775 240 m 775 1095 l 808 1061 l 808 900 l 702 900 l 702 793 l 113 793 l 80 827 l 79 827 l 79 900 l 7 900 l -26 933 l -28 933 l -28 1096 l 241 1096 l 241 1095 l 275 1061 l 275 989 l 506 989 l 506 1096 l 775 1096 l 775 1095 z "},"":{"ha":961,"x_min":-28,"x_max":808,"o":"m 747 320 l 641 320 l 641 214 l 534 214 l 534 106 l 320 106 l 320 427 l 427 427 l 427 320 l 534 320 l 534 641 l 427 641 l 427 534 l 320 534 l 320 854 l 534 854 l 534 747 l 641 747 l 641 641 l 747 641 l 747 961 l 0 961 l 0 854 l 106 854 l 106 106 l 0 106 l 0 0 l 747 0 l 747 320 m 534 1282 l 320 1282 l 320 1068 l 534 1068 l 534 1282 m 775 347 l 808 313 l 808 -61 l 7 -61 l -26 -28 l -28 -28 l -28 134 l 79 134 l 79 793 l 7 793 l -26 827 l -28 827 l -28 989 l 775 989 l 775 987 l 808 954 l 808 580 l 648 580 l 614 613 l 613 613 l 613 686 l 541 686 l 507 720 l 506 720 l 506 793 l 381 793 l 381 562 l 399 562 l 399 669 l 562 669 l 562 667 l 595 634 l 595 259 l 434 259 l 401 292 l 399 292 l 399 366 l 381 366 l 381 134 l 506 134 l 506 241 l 613 241 l 613 348 l 775 348 l 775 347 m 562 1308 l 595 1275 l 595 1007 l 327 1007 l 294 1040 l 292 1040 l 292 1310 l 562 1310 l 562 1308 z "},"":{"ha":961,"x_min":-28,"x_max":808,"o":"m 214 641 l 534 641 l 534 534 l 214 534 l 214 641 m 641 106 l 747 106 l 747 214 l 534 214 l 534 106 l 214 106 l 214 427 l 747 427 l 747 641 l 641 641 l 641 747 l 106 747 l 106 641 l 0 641 l 0 106 l 106 106 l 106 0 l 641 0 l 641 106 m 534 1068 l 320 1068 l 320 854 l 534 854 l 534 1068 m 506 580 l 275 580 l 275 562 l 506 562 l 506 580 m 775 240 l 808 207 l 808 45 l 702 45 l 702 -61 l 113 -61 l 80 -28 l 79 -28 l 79 45 l 7 45 l -26 79 l -28 79 l -28 669 l 79 669 l 79 775 l 669 775 l 669 774 l 702 741 l 702 669 l 775 669 l 775 667 l 808 634 l 808 366 l 275 366 l 275 134 l 506 134 l 506 241 l 775 241 l 775 240 m 562 1096 l 562 1095 l 595 1061 l 595 793 l 327 793 l 294 827 l 292 827 l 292 1096 l 562 1096 z "},"":{"ha":961,"x_min":-28,"x_max":808,"o":"m 747 -214 l 427 -214 l 427 -106 l 534 -106 l 534 0 l 747 0 l 747 320 l 641 320 l 641 214 l 534 214 l 534 106 l 320 106 l 320 534 l 427 534 l 427 427 l 534 427 l 534 747 l 427 747 l 427 641 l 320 641 l 320 961 l 534 961 l 534 854 l 641 854 l 641 747 l 747 747 l 747 1068 l 0 1068 l 0 961 l 106 961 l 106 106 l 0 106 l 0 0 l 320 0 l 320 -106 l 214 -106 l 214 -214 l 320 -214 l 320 -320 l 747 -320 l 747 -214 m 775 -187 l 808 -220 l 808 -381 l 327 -381 l 294 -348 l 292 -348 l 292 -275 l 220 -275 l 187 -241 l 186 -241 l 186 -79 l 292 -79 l 292 -61 l 7 -61 l -26 -28 l -28 -28 l -28 134 l 79 134 l 79 900 l 7 900 l -26 933 l -28 933 l -28 1096 l 775 1096 l 775 1095 l 808 1061 l 808 686 l 648 686 l 614 720 l 613 720 l 613 793 l 541 793 l 507 827 l 506 827 l 506 900 l 381 900 l 381 669 l 399 669 l 399 775 l 562 775 l 562 774 l 595 741 l 595 366 l 434 366 l 401 399 l 399 399 l 399 473 l 381 473 l 381 134 l 506 134 l 506 241 l 613 241 l 613 348 l 775 348 l 775 347 l 808 313 l 808 -61 l 595 -61 l 595 -168 l 488 -168 l 488 -186 l 775 -186 l 775 -187 z "},"":{"ha":961,"x_min":-28,"x_max":808,"o":"m 214 641 l 534 641 l 534 534 l 214 534 l 214 641 m 641 -214 l 320 -214 l 320 -106 l 427 -106 l 427 0 l 641 0 l 641 106 l 747 106 l 747 214 l 534 214 l 534 106 l 214 106 l 214 427 l 747 427 l 747 641 l 641 641 l 641 747 l 106 747 l 106 641 l 0 641 l 0 106 l 106 106 l 106 0 l 214 0 l 214 -106 l 106 -106 l 106 -214 l 214 -214 l 214 -320 l 641 -320 l 641 -214 m 506 580 l 275 580 l 275 562 l 506 562 l 506 580 m 669 -186 l 669 -187 l 702 -220 l 702 -381 l 220 -381 l 187 -348 l 186 -348 l 186 -275 l 113 -275 l 80 -241 l 79 -241 l 79 -79 l 186 -79 l 186 -61 l 113 -61 l 80 -28 l 79 -28 l 79 45 l 7 45 l -26 79 l -28 79 l -28 669 l 79 669 l 79 775 l 669 775 l 669 774 l 702 741 l 702 669 l 775 669 l 775 667 l 808 634 l 808 366 l 275 366 l 275 134 l 506 134 l 506 241 l 775 241 l 775 240 l 808 207 l 808 45 l 702 45 l 702 -61 l 488 -61 l 488 -168 l 381 -168 l 381 -186 l 669 -186 z "},"":{"ha":961,"x_min":-28,"x_max":808,"o":"m 747 320 l 641 320 l 641 214 l 534 214 l 534 106 l 320 106 l 320 427 l 427 427 l 427 320 l 534 320 l 534 641 l 427 641 l 427 534 l 320 534 l 320 854 l 534 854 l 534 747 l 641 747 l 641 641 l 747 641 l 747 961 l 0 961 l 0 854 l 106 854 l 106 106 l 0 106 l 0 0 l 747 0 l 747 320 m 534 1175 l 641 1175 l 641 1282 l 427 1282 l 427 1175 l 320 1175 l 320 1282 l 106 1282 l 106 1175 l 214 1175 l 214 1068 l 534 1068 l 534 1175 m 775 347 l 808 313 l 808 -61 l 7 -61 l -26 -28 l -28 -28 l -28 134 l 79 134 l 79 793 l 7 793 l -26 827 l -28 827 l -28 989 l 775 989 l 775 987 l 808 954 l 808 580 l 648 580 l 614 613 l 613 613 l 613 686 l 541 686 l 507 720 l 506 720 l 506 793 l 381 793 l 381 562 l 399 562 l 399 669 l 562 669 l 562 667 l 595 634 l 595 259 l 434 259 l 401 292 l 399 292 l 399 366 l 381 366 l 381 134 l 506 134 l 506 241 l 613 241 l 613 348 l 775 348 l 775 347 m 669 1308 l 702 1275 l 702 1114 l 595 1114 l 595 1007 l 220 1007 l 187 1040 l 186 1040 l 186 1114 l 113 1114 l 80 1147 l 79 1147 l 79 1310 l 348 1310 l 348 1308 l 381 1275 l 381 1202 l 399 1202 l 399 1310 l 669 1310 l 669 1308 z "},"":{"ha":961,"x_min":-28,"x_max":808,"o":"m 214 641 l 534 641 l 534 534 l 214 534 l 214 641 m 641 106 l 747 106 l 747 214 l 534 214 l 534 106 l 214 106 l 214 427 l 747 427 l 747 641 l 641 641 l 641 747 l 106 747 l 106 641 l 0 641 l 0 106 l 106 106 l 106 0 l 641 0 l 641 106 m 641 961 l 747 961 l 747 1068 l 534 1068 l 534 961 l 320 961 l 320 1068 l 106 1068 l 106 961 l 214 961 l 214 854 l 641 854 l 641 961 m 506 580 l 275 580 l 275 562 l 506 562 l 506 580 m 775 240 l 808 207 l 808 45 l 702 45 l 702 -61 l 113 -61 l 80 -28 l 79 -28 l 79 45 l 7 45 l -26 79 l -28 79 l -28 669 l 79 669 l 79 775 l 669 775 l 669 774 l 702 741 l 702 669 l 775 669 l 775 667 l 808 634 l 808 366 l 275 366 l 275 134 l 506 134 l 506 241 l 775 241 l 775 240 m 775 1095 l 808 1061 l 808 900 l 702 900 l 702 793 l 220 793 l 187 827 l 186 827 l 186 900 l 113 900 l 80 933 l 79 933 l 79 1096 l 348 1096 l 348 1095 l 381 1061 l 381 989 l 506 989 l 506 1096 l 775 1096 l 775 1095 z "},"":{"ha":961,"x_min":-28,"x_max":808,"o":"m 534 106 l 641 106 l 641 0 l 747 0 l 747 427 l 320 427 l 320 320 l 534 320 l 534 106 l 320 106 l 320 214 l 214 214 l 214 747 l 320 747 l 320 854 l 534 854 l 534 747 l 641 747 l 641 641 l 747 641 l 747 854 l 641 854 l 641 961 l 214 961 l 214 854 l 106 854 l 106 747 l 0 747 l 0 214 l 106 214 l 106 106 l 214 106 l 214 0 l 534 0 l 534 106 m 427 1175 l 534 1175 l 534 1068 l 747 1068 l 747 1175 l 641 1175 l 641 1282 l 320 1282 l 320 1175 l 214 1175 l 214 1068 l 427 1068 l 427 1175 m 613 45 l 595 45 l 595 -61 l 220 -61 l 187 -28 l 186 -28 l 186 45 l 113 45 l 80 79 l 79 79 l 79 153 l 7 153 l -26 186 l -28 186 l -28 775 l 79 775 l 79 882 l 186 882 l 186 989 l 669 989 l 669 987 l 702 954 l 702 882 l 775 882 l 775 881 l 808 848 l 808 580 l 648 580 l 614 613 l 613 613 l 613 686 l 541 686 l 507 720 l 506 720 l 506 793 l 381 793 l 381 686 l 275 686 l 275 241 l 348 241 l 348 240 l 381 207 l 381 134 l 506 134 l 506 259 l 327 259 l 294 292 l 292 292 l 292 455 l 775 455 l 775 454 l 808 420 l 808 -61 l 648 -61 l 614 -28 l 613 -28 l 613 45 m 506 1114 l 488 1114 l 488 1007 l 220 1007 l 187 1040 l 186 1040 l 186 1202 l 292 1202 l 292 1310 l 669 1310 l 669 1308 l 702 1275 l 702 1202 l 775 1202 l 775 1201 l 808 1168 l 808 1007 l 541 1007 l 507 1040 l 506 1040 l 506 1114 z "},"":{"ha":961,"x_min":-28,"x_max":808,"o":"m 214 106 l 214 641 l 427 641 l 427 106 l 214 106 m 534 -214 l 641 -214 l 641 641 l 747 641 l 747 747 l 534 747 l 534 641 l 427 641 l 427 747 l 106 747 l 106 641 l 0 641 l 0 106 l 106 106 l 106 0 l 427 0 l 427 -214 l 214 -214 l 214 -106 l 0 -106 l 0 -214 l 106 -214 l 106 -320 l 534 -320 l 534 -214 m 320 961 l 427 961 l 427 854 l 641 854 l 641 961 l 534 961 l 534 1068 l 427 1068 l 427 1175 l 320 1175 l 320 1068 l 214 1068 l 214 961 l 106 961 l 106 854 l 320 854 l 320 961 m 399 580 l 275 580 l 275 134 l 399 134 l 399 580 m 775 774 l 808 741 l 808 580 l 702 580 l 702 -275 l 595 -275 l 595 -381 l 113 -381 l 80 -348 l 79 -348 l 79 -275 l 7 -275 l -26 -241 l -28 -241 l -28 -79 l 241 -79 l 241 -80 l 275 -113 l 275 -186 l 399 -186 l 399 -61 l 113 -61 l 80 -28 l 79 -28 l 79 45 l 7 45 l -26 79 l -28 79 l -28 669 l 79 669 l 79 775 l 455 775 l 455 774 l 488 741 l 488 669 l 506 669 l 506 775 l 775 775 l 775 774 m 399 900 l 381 900 l 381 793 l 113 793 l 80 827 l 79 827 l 79 989 l 186 989 l 186 1096 l 292 1096 l 292 1202 l 455 1202 l 455 1201 l 488 1168 l 488 1096 l 562 1096 l 562 1095 l 595 1061 l 595 989 l 669 989 l 669 987 l 702 954 l 702 793 l 434 793 l 401 827 l 399 827 l 399 900 z "},"":{"ha":961,"x_min":-28,"x_max":808,"o":"m 534 106 l 641 106 l 641 0 l 747 0 l 747 427 l 320 427 l 320 320 l 534 320 l 534 106 l 320 106 l 320 214 l 214 214 l 214 747 l 320 747 l 320 854 l 534 854 l 534 747 l 641 747 l 641 641 l 747 641 l 747 854 l 641 854 l 641 961 l 214 961 l 214 854 l 106 854 l 106 747 l 0 747 l 0 214 l 106 214 l 106 106 l 214 106 l 214 0 l 534 0 l 534 106 m 641 1175 l 747 1175 l 747 1282 l 534 1282 l 534 1175 l 320 1175 l 320 1282 l 106 1282 l 106 1175 l 214 1175 l 214 1068 l 641 1068 l 641 1175 m 613 45 l 595 45 l 595 -61 l 220 -61 l 187 -28 l 186 -28 l 186 45 l 113 45 l 80 79 l 79 79 l 79 153 l 7 153 l -26 186 l -28 186 l -28 775 l 79 775 l 79 882 l 186 882 l 186 989 l 669 989 l 669 987 l 702 954 l 702 882 l 775 882 l 775 881 l 808 848 l 808 580 l 648 580 l 614 613 l 613 613 l 613 686 l 541 686 l 507 720 l 506 720 l 506 793 l 381 793 l 381 686 l 275 686 l 275 241 l 348 241 l 348 240 l 381 207 l 381 134 l 506 134 l 506 259 l 327 259 l 294 292 l 292 292 l 292 455 l 775 455 l 775 454 l 808 420 l 808 -61 l 648 -61 l 614 -28 l 613 -28 l 613 45 m 775 1308 l 808 1275 l 808 1114 l 702 1114 l 702 1007 l 220 1007 l 187 1040 l 186 1040 l 186 1114 l 113 1114 l 80 1147 l 79 1147 l 79 1310 l 348 1310 l 348 1308 l 381 1275 l 381 1202 l 506 1202 l 506 1310 l 775 1310 l 775 1308 z "},"":{"ha":961,"x_min":-28,"x_max":808,"o":"m 214 106 l 214 641 l 427 641 l 427 106 l 214 106 m 534 -214 l 641 -214 l 641 641 l 747 641 l 747 747 l 534 747 l 534 641 l 427 641 l 427 747 l 106 747 l 106 641 l 0 641 l 0 106 l 106 106 l 106 0 l 427 0 l 427 -214 l 214 -214 l 214 -106 l 0 -106 l 0 -214 l 106 -214 l 106 -320 l 534 -320 l 534 -214 m 641 961 l 747 961 l 747 1068 l 534 1068 l 534 961 l 214 961 l 214 1068 l 0 1068 l 0 961 l 106 961 l 106 854 l 641 854 l 641 961 m 399 580 l 275 580 l 275 134 l 399 134 l 399 580 m 775 774 l 808 741 l 808 580 l 702 580 l 702 -275 l 595 -275 l 595 -381 l 113 -381 l 80 -348 l 79 -348 l 79 -275 l 7 -275 l -26 -241 l -28 -241 l -28 -79 l 241 -79 l 241 -80 l 275 -113 l 275 -186 l 399 -186 l 399 -61 l 113 -61 l 80 -28 l 79 -28 l 79 45 l 7 45 l -26 79 l -28 79 l -28 669 l 79 669 l 79 775 l 455 775 l 455 774 l 488 741 l 488 669 l 506 669 l 506 775 l 775 775 l 775 774 m 775 1095 l 808 1061 l 808 900 l 702 900 l 702 793 l 113 793 l 80 827 l 79 827 l 79 900 l 7 900 l -26 933 l -28 933 l -28 1096 l 241 1096 l 241 1095 l 275 1061 l 275 989 l 506 989 l 506 1096 l 775 1096 l 775 1095 z "},"":{"ha":961,"x_min":-28,"x_max":808,"o":"m 534 106 l 641 106 l 641 0 l 747 0 l 747 427 l 320 427 l 320 320 l 534 320 l 534 106 l 320 106 l 320 214 l 214 214 l 214 747 l 320 747 l 320 854 l 534 854 l 534 747 l 641 747 l 641 641 l 747 641 l 747 854 l 641 854 l 641 961 l 214 961 l 214 854 l 106 854 l 106 747 l 0 747 l 0 214 l 106 214 l 106 106 l 214 106 l 214 0 l 534 0 l 534 106 m 534 1282 l 320 1282 l 320 1068 l 534 1068 l 534 1282 m 613 45 l 595 45 l 595 -61 l 220 -61 l 187 -28 l 186 -28 l 186 45 l 113 45 l 80 79 l 79 79 l 79 153 l 7 153 l -26 186 l -28 186 l -28 775 l 79 775 l 79 882 l 186 882 l 186 989 l 669 989 l 669 987 l 702 954 l 702 882 l 775 882 l 775 881 l 808 848 l 808 580 l 648 580 l 614 613 l 613 613 l 613 686 l 541 686 l 507 720 l 506 720 l 506 793 l 381 793 l 381 686 l 275 686 l 275 241 l 348 241 l 348 240 l 381 207 l 381 134 l 506 134 l 506 259 l 327 259 l 294 292 l 292 292 l 292 455 l 775 455 l 775 454 l 808 420 l 808 -61 l 648 -61 l 614 -28 l 613 -28 l 613 45 m 562 1308 l 595 1275 l 595 1007 l 327 1007 l 294 1040 l 292 1040 l 292 1310 l 562 1310 l 562 1308 z "},"":{"ha":961,"x_min":-28,"x_max":808,"o":"m 214 106 l 214 641 l 427 641 l 427 106 l 214 106 m 534 -214 l 641 -214 l 641 641 l 747 641 l 747 747 l 534 747 l 534 641 l 427 641 l 427 747 l 106 747 l 106 641 l 0 641 l 0 106 l 106 106 l 106 0 l 427 0 l 427 -214 l 214 -214 l 214 -106 l 0 -106 l 0 -214 l 106 -214 l 106 -320 l 534 -320 l 534 -214 m 534 1068 l 320 1068 l 320 854 l 534 854 l 534 1068 m 399 580 l 275 580 l 275 134 l 399 134 l 399 580 m 775 774 l 808 741 l 808 580 l 702 580 l 702 -275 l 595 -275 l 595 -381 l 113 -381 l 80 -348 l 79 -348 l 79 -275 l 7 -275 l -26 -241 l -28 -241 l -28 -79 l 241 -79 l 241 -80 l 275 -113 l 275 -186 l 399 -186 l 399 -61 l 113 -61 l 80 -28 l 79 -28 l 79 45 l 7 45 l -26 79 l -28 79 l -28 669 l 79 669 l 79 775 l 455 775 l 455 774 l 488 741 l 488 669 l 506 669 l 506 775 l 775 775 l 775 774 m 562 1096 l 562 1095 l 595 1061 l 595 793 l 327 793 l 294 827 l 292 827 l 292 1096 l 562 1096 z "},"":{"ha":961,"x_min":-28,"x_max":808,"o":"m 534 -214 l 641 -214 l 641 -106 l 534 -106 l 534 106 l 641 106 l 641 0 l 747 0 l 747 534 l 320 534 l 320 427 l 534 427 l 534 106 l 320 106 l 320 214 l 214 214 l 214 854 l 320 854 l 320 961 l 534 961 l 534 854 l 641 854 l 641 747 l 747 747 l 747 961 l 641 961 l 641 1068 l 214 1068 l 214 961 l 106 961 l 106 854 l 0 854 l 0 214 l 106 214 l 106 106 l 214 106 l 214 0 l 320 0 l 320 -106 l 427 -106 l 427 -214 l 106 -214 l 106 -320 l 534 -320 l 534 -214 m 669 -80 l 702 -113 l 702 -275 l 595 -275 l 595 -381 l 113 -381 l 80 -348 l 79 -348 l 79 -186 l 399 -186 l 399 -168 l 327 -168 l 294 -134 l 292 -134 l 292 -61 l 220 -61 l 187 -28 l 186 -28 l 186 45 l 113 45 l 80 79 l 79 79 l 79 153 l 7 153 l -26 186 l -28 186 l -28 882 l 79 882 l 79 989 l 186 989 l 186 1096 l 669 1096 l 669 1095 l 702 1061 l 702 989 l 775 989 l 775 987 l 808 954 l 808 686 l 648 686 l 614 720 l 613 720 l 613 793 l 541 793 l 507 827 l 506 827 l 506 900 l 381 900 l 381 793 l 275 793 l 275 241 l 348 241 l 348 240 l 381 207 l 381 134 l 506 134 l 506 366 l 327 366 l 294 399 l 292 399 l 292 562 l 775 562 l 775 560 l 808 527 l 808 -61 l 648 -61 l 614 -28 l 613 -28 l 613 45 l 595 45 l 595 -79 l 669 -79 l 669 -80 z "},"":{"ha":961,"x_min":-28,"x_max":808,"o":"m 214 106 l 214 641 l 427 641 l 427 106 l 214 106 m 534 -214 l 641 -214 l 641 641 l 747 641 l 747 747 l 534 747 l 534 641 l 427 641 l 427 747 l 106 747 l 106 641 l 0 641 l 0 106 l 106 106 l 106 0 l 427 0 l 427 -214 l 214 -214 l 214 -106 l 0 -106 l 0 -214 l 106 -214 l 106 -320 l 534 -320 l 534 -214 m 534 961 l 427 961 l 427 1068 l 747 1068 l 747 1175 l 320 1175 l 320 1068 l 214 1068 l 214 961 l 320 961 l 320 854 l 534 854 l 534 961 m 399 580 l 275 580 l 275 134 l 399 134 l 399 580 m 775 774 l 808 741 l 808 580 l 702 580 l 702 -275 l 595 -275 l 595 -381 l 113 -381 l 80 -348 l 79 -348 l 79 -275 l 7 -275 l -26 -241 l -28 -241 l -28 -79 l 241 -79 l 241 -80 l 275 -113 l 275 -186 l 399 -186 l 399 -61 l 113 -61 l 80 -28 l 79 -28 l 79 45 l 7 45 l -26 79 l -28 79 l -28 669 l 79 669 l 79 775 l 455 775 l 455 774 l 488 741 l 488 669 l 506 669 l 506 775 l 775 775 l 775 774 m 562 989 l 562 987 l 595 954 l 595 793 l 327 793 l 294 827 l 292 827 l 292 900 l 220 900 l 187 933 l 186 933 l 186 1096 l 292 1096 l 292 1202 l 775 1202 l 775 1201 l 808 1168 l 808 1007 l 488 1007 l 488 989 l 562 989 z "},"":{"ha":961,"x_min":-28,"x_max":808,"o":"m 214 427 l 534 427 l 534 0 l 747 0 l 747 961 l 534 961 l 534 534 l 214 534 l 214 961 l 0 961 l 0 0 l 214 0 l 214 427 m 320 1175 l 427 1175 l 427 1068 l 641 1068 l 641 1175 l 534 1175 l 534 1282 l 214 1282 l 214 1175 l 106 1175 l 106 1068 l 320 1068 l 320 1175 m 506 366 l 275 366 l 275 -61 l 7 -61 l -26 -28 l -28 -28 l -28 989 l 241 989 l 241 987 l 275 954 l 275 562 l 506 562 l 506 989 l 775 989 l 775 987 l 808 954 l 808 -61 l 541 -61 l 507 -28 l 506 -28 l 506 366 m 399 1114 l 381 1114 l 381 1007 l 113 1007 l 80 1040 l 79 1040 l 79 1202 l 186 1202 l 186 1310 l 562 1310 l 562 1308 l 595 1275 l 595 1202 l 669 1202 l 669 1201 l 702 1168 l 702 1007 l 434 1007 l 401 1040 l 399 1040 l 399 1114 z "},"":{"ha":961,"x_min":-28,"x_max":808,"o":"m 320 427 l 427 427 l 427 534 l 534 534 l 534 0 l 747 0 l 747 534 l 641 534 l 641 641 l 427 641 l 427 534 l 320 534 l 320 961 l 0 961 l 0 854 l 106 854 l 106 106 l 0 106 l 0 0 l 320 0 l 320 427 m 320 1175 l 427 1175 l 427 1068 l 641 1068 l 641 1175 l 534 1175 l 534 1282 l 214 1282 l 214 1175 l 106 1175 l 106 1068 l 320 1068 l 320 1175 m 506 473 l 488 473 l 488 366 l 381 366 l 381 -61 l 7 -61 l -26 -28 l -28 -28 l -28 134 l 79 134 l 79 793 l 7 793 l -26 827 l -28 827 l -28 989 l 348 989 l 348 987 l 381 954 l 381 562 l 399 562 l 399 669 l 669 669 l 669 667 l 702 634 l 702 562 l 775 562 l 775 560 l 808 527 l 808 -61 l 541 -61 l 507 -28 l 506 -28 l 506 473 m 399 1114 l 381 1114 l 381 1007 l 113 1007 l 80 1040 l 79 1040 l 79 1202 l 186 1202 l 186 1310 l 562 1310 l 562 1308 l 595 1275 l 595 1202 l 669 1202 l 669 1201 l 702 1168 l 702 1007 l 434 1007 l 401 1040 l 399 1040 l 399 1114 z "},"":{"ha":961,"x_min":-28,"x_max":916,"o":"m 320 747 l 534 747 l 534 641 l 320 641 l 320 747 m 320 534 l 534 534 l 534 0 l 747 0 l 747 747 l 854 747 l 854 854 l 747 854 l 747 1068 l 534 1068 l 534 854 l 320 854 l 320 1068 l 106 1068 l 106 854 l 0 854 l 0 747 l 106 747 l 106 0 l 320 0 l 320 534 m 506 686 l 381 686 l 381 669 l 506 669 l 506 686 m 506 473 l 381 473 l 381 -61 l 113 -61 l 80 -28 l 79 -28 l 79 686 l 7 686 l -26 720 l -28 720 l -28 882 l 79 882 l 79 1096 l 348 1096 l 348 1095 l 381 1061 l 381 882 l 506 882 l 506 1096 l 775 1096 l 775 1095 l 808 1061 l 808 882 l 882 882 l 882 881 l 916 848 l 916 686 l 808 686 l 808 -61 l 541 -61 l 507 -28 l 506 -28 l 506 473 z "},"":{"ha":961,"x_min":-28,"x_max":808,"o":"m 320 427 l 427 427 l 427 534 l 534 534 l 534 0 l 747 0 l 747 534 l 641 534 l 641 641 l 427 641 l 427 534 l 320 534 l 320 747 l 534 747 l 534 854 l 320 854 l 320 1068 l 0 1068 l 0 961 l 106 961 l 106 854 l 0 854 l 0 747 l 106 747 l 106 106 l 0 106 l 0 0 l 320 0 l 320 427 m 506 473 l 488 473 l 488 366 l 381 366 l 381 -61 l 7 -61 l -26 -28 l -28 -28 l -28 134 l 79 134 l 79 686 l 7 686 l -26 720 l -28 720 l -28 882 l 79 882 l 79 900 l 7 900 l -26 933 l -28 933 l -28 1096 l 348 1096 l 348 1095 l 381 1061 l 381 882 l 562 882 l 562 881 l 595 848 l 595 686 l 381 686 l 381 562 l 399 562 l 399 669 l 669 669 l 669 667 l 702 634 l 702 562 l 775 562 l 775 560 l 808 527 l 808 -61 l 541 -61 l 507 -28 l 506 -28 l 506 473 z "},"":{"ha":961,"x_min":79,"x_max":916,"o":"m 641 106 l 534 106 l 534 854 l 641 854 l 641 961 l 214 961 l 214 854 l 320 854 l 320 106 l 214 106 l 214 0 l 641 0 l 641 106 m 320 1175 l 427 1175 l 427 1068 l 747 1068 l 747 1175 l 854 1175 l 854 1282 l 641 1282 l 641 1175 l 534 1175 l 534 1282 l 214 1282 l 214 1175 l 106 1175 l 106 1068 l 320 1068 l 320 1175 m 669 133 l 702 100 l 702 -61 l 220 -61 l 187 -28 l 186 -28 l 186 134 l 292 134 l 292 793 l 220 793 l 187 827 l 186 827 l 186 989 l 669 989 l 669 987 l 702 954 l 702 793 l 595 793 l 595 134 l 669 134 l 669 133 m 399 1114 l 381 1114 l 381 1007 l 113 1007 l 80 1040 l 79 1040 l 79 1202 l 186 1202 l 186 1310 l 562 1310 l 562 1308 l 595 1275 l 595 1202 l 613 1202 l 613 1310 l 882 1310 l 882 1308 l 916 1275 l 916 1114 l 808 1114 l 808 1007 l 434 1007 l 401 1040 l 399 1040 l 399 1114 z "},"":{"ha":961,"x_min":-28,"x_max":808,"o":"m 641 106 l 534 106 l 534 747 l 214 747 l 214 641 l 320 641 l 320 106 l 214 106 l 214 0 l 641 0 l 641 106 m 214 961 l 320 961 l 320 854 l 641 854 l 641 961 l 747 961 l 747 1068 l 534 1068 l 534 961 l 427 961 l 427 1068 l 106 1068 l 106 961 l 0 961 l 0 854 l 214 854 l 214 961 m 669 133 l 702 100 l 702 -61 l 220 -61 l 187 -28 l 186 -28 l 186 134 l 292 134 l 292 580 l 220 580 l 187 613 l 186 613 l 186 775 l 562 775 l 562 774 l 595 741 l 595 134 l 669 134 l 669 133 m 292 900 l 275 900 l 275 793 l 7 793 l -26 827 l -28 827 l -28 989 l 79 989 l 79 1096 l 455 1096 l 455 1095 l 488 1061 l 488 989 l 506 989 l 506 1096 l 775 1096 l 775 1095 l 808 1061 l 808 900 l 702 900 l 702 793 l 327 793 l 294 827 l 292 827 l 292 900 z "},"":{"ha":961,"x_min":79,"x_max":808,"o":"m 641 106 l 534 106 l 534 961 l 641 961 l 641 1068 l 214 1068 l 214 961 l 320 961 l 320 106 l 214 106 l 214 0 l 641 0 l 641 106 m 747 1282 l 106 1282 l 106 1175 l 747 1175 l 747 1282 m 669 133 l 702 100 l 702 -61 l 220 -61 l 187 -28 l 186 -28 l 186 134 l 292 134 l 292 900 l 220 900 l 187 933 l 186 933 l 186 1096 l 669 1096 l 669 1095 l 702 1061 l 702 900 l 595 900 l 595 134 l 669 134 l 669 133 m 775 1308 l 808 1275 l 808 1114 l 113 1114 l 80 1147 l 79 1147 l 79 1310 l 775 1310 l 775 1308 z "},"":{"ha":961,"x_min":79,"x_max":702,"o":"m 641 106 l 534 106 l 534 747 l 214 747 l 214 641 l 320 641 l 320 106 l 214 106 l 214 0 l 641 0 l 641 106 m 641 1068 l 106 1068 l 106 961 l 641 961 l 641 1068 m 669 133 l 702 100 l 702 -61 l 220 -61 l 187 -28 l 186 -28 l 186 134 l 292 134 l 292 580 l 220 580 l 187 613 l 186 613 l 186 775 l 562 775 l 562 774 l 595 741 l 595 134 l 669 134 l 669 133 m 669 1095 l 702 1061 l 702 900 l 113 900 l 80 933 l 79 933 l 79 1096 l 669 1096 l 669 1095 z "},"":{"ha":961,"x_min":79,"x_max":808,"o":"m 641 106 l 534 106 l 534 854 l 641 854 l 641 961 l 214 961 l 214 854 l 320 854 l 320 106 l 214 106 l 214 0 l 641 0 l 641 106 m 641 1175 l 747 1175 l 747 1282 l 534 1282 l 534 1175 l 320 1175 l 320 1282 l 106 1282 l 106 1175 l 214 1175 l 214 1068 l 641 1068 l 641 1175 m 669 133 l 702 100 l 702 -61 l 220 -61 l 187 -28 l 186 -28 l 186 134 l 292 134 l 292 793 l 220 793 l 187 827 l 186 827 l 186 989 l 669 989 l 669 987 l 702 954 l 702 793 l 595 793 l 595 134 l 669 134 l 669 133 m 775 1308 l 808 1275 l 808 1114 l 702 1114 l 702 1007 l 220 1007 l 187 1040 l 186 1040 l 186 1114 l 113 1114 l 80 1147 l 79 1147 l 79 1310 l 348 1310 l 348 1308 l 381 1275 l 381 1202 l 506 1202 l 506 1310 l 775 1310 l 775 1308 z "},"":{"ha":961,"x_min":79,"x_max":808,"o":"m 641 106 l 534 106 l 534 747 l 214 747 l 214 641 l 320 641 l 320 106 l 214 106 l 214 0 l 641 0 l 641 106 m 641 961 l 747 961 l 747 1068 l 534 1068 l 534 961 l 320 961 l 320 1068 l 106 1068 l 106 961 l 214 961 l 214 854 l 641 854 l 641 961 m 669 133 l 702 100 l 702 -61 l 220 -61 l 187 -28 l 186 -28 l 186 134 l 292 134 l 292 580 l 220 580 l 187 613 l 186 613 l 186 775 l 562 775 l 562 774 l 595 741 l 595 134 l 669 134 l 669 133 m 775 1095 l 808 1061 l 808 900 l 702 900 l 702 793 l 220 793 l 187 827 l 186 827 l 186 900 l 113 900 l 80 933 l 79 933 l 79 1096 l 348 1096 l 348 1095 l 381 1061 l 381 989 l 506 989 l 506 1096 l 775 1096 l 775 1095 z "},"":{"ha":961,"x_min":186,"x_max":808,"o":"m 747 -214 l 427 -214 l 427 -106 l 534 -106 l 534 0 l 641 0 l 641 106 l 534 106 l 534 961 l 641 961 l 641 1068 l 214 1068 l 214 961 l 320 961 l 320 106 l 214 106 l 214 0 l 320 0 l 320 -106 l 214 -106 l 214 -214 l 320 -214 l 320 -320 l 747 -320 l 747 -214 m 775 -187 l 808 -220 l 808 -381 l 327 -381 l 294 -348 l 292 -348 l 292 -275 l 220 -275 l 187 -241 l 186 -241 l 186 -79 l 292 -79 l 292 -61 l 220 -61 l 187 -28 l 186 -28 l 186 134 l 292 134 l 292 900 l 220 900 l 187 933 l 186 933 l 186 1096 l 669 1096 l 669 1095 l 702 1061 l 702 900 l 595 900 l 595 134 l 669 134 l 669 133 l 702 100 l 702 -61 l 595 -61 l 595 -168 l 488 -168 l 488 -186 l 775 -186 l 775 -187 z "},"":{"ha":961,"x_min":186,"x_max":808,"o":"m 747 -214 l 427 -214 l 427 -106 l 534 -106 l 534 0 l 641 0 l 641 106 l 534 106 l 534 747 l 214 747 l 214 641 l 320 641 l 320 106 l 214 106 l 214 0 l 320 0 l 320 -106 l 214 -106 l 214 -214 l 320 -214 l 320 -320 l 747 -320 l 747 -214 m 534 1068 l 320 1068 l 320 854 l 534 854 l 534 1068 m 775 -187 l 808 -220 l 808 -381 l 327 -381 l 294 -348 l 292 -348 l 292 -275 l 220 -275 l 187 -241 l 186 -241 l 186 -79 l 292 -79 l 292 -61 l 220 -61 l 187 -28 l 186 -28 l 186 134 l 292 134 l 292 580 l 220 580 l 187 613 l 186 613 l 186 775 l 562 775 l 562 774 l 595 741 l 595 134 l 669 134 l 669 133 l 702 100 l 702 -61 l 595 -61 l 595 -168 l 488 -168 l 488 -186 l 775 -186 l 775 -187 m 562 1095 l 595 1061 l 595 793 l 327 793 l 294 827 l 292 827 l 292 1096 l 562 1096 l 562 1095 z "},"":{"ha":961,"x_min":186,"x_max":702,"o":"m 641 106 l 534 106 l 534 854 l 641 854 l 641 961 l 214 961 l 214 854 l 320 854 l 320 106 l 214 106 l 214 0 l 641 0 l 641 106 m 534 1282 l 320 1282 l 320 1068 l 534 1068 l 534 1282 m 669 133 l 702 100 l 702 -61 l 220 -61 l 187 -28 l 186 -28 l 186 134 l 292 134 l 292 793 l 220 793 l 187 827 l 186 827 l 186 989 l 669 989 l 669 987 l 702 954 l 702 793 l 595 793 l 595 134 l 669 134 l 669 133 m 562 1308 l 595 1275 l 595 1007 l 327 1007 l 294 1040 l 292 1040 l 292 1310 l 562 1310 l 562 1308 z "},"":{"ha":961,"x_min":186,"x_max":702,"o":"m 641 106 l 534 106 l 534 747 l 214 747 l 214 641 l 320 641 l 320 106 l 214 106 l 214 0 l 641 0 l 641 106 m 669 133 l 702 100 l 702 -61 l 220 -61 l 187 -28 l 186 -28 l 186 134 l 292 134 l 292 580 l 220 580 l 187 613 l 186 613 l 186 775 l 562 775 l 562 774 l 595 741 l 595 134 l 669 134 l 669 133 z "},"":{"ha":961,"x_min":-28,"x_max":916,"o":"m 214 1068 l 0 1068 l 0 0 l 214 0 l 214 1068 m 747 106 l 854 106 l 854 1068 l 534 1068 l 534 961 l 641 961 l 641 106 l 534 106 l 534 427 l 320 427 l 320 106 l 427 106 l 427 0 l 747 0 l 747 106 m 241 1095 l 275 1061 l 275 -61 l 7 -61 l -26 -28 l -28 -28 l -28 1096 l 241 1096 l 241 1095 m 882 1095 l 916 1061 l 916 45 l 808 45 l 808 -61 l 434 -61 l 401 -28 l 399 -28 l 399 45 l 327 45 l 294 79 l 292 79 l 292 455 l 562 455 l 562 454 l 595 420 l 595 134 l 613 134 l 613 900 l 541 900 l 507 933 l 506 933 l 506 1096 l 882 1096 l 882 1095 z "},"":{"ha":961,"x_min":-28,"x_max":916,"o":"m 214 747 l 0 747 l 0 0 l 214 0 l 214 747 m 747 -214 l 854 -214 l 854 747 l 534 747 l 534 641 l 641 641 l 641 -214 l 534 -214 l 534 0 l 320 0 l 320 -214 l 427 -214 l 427 -320 l 747 -320 l 747 -214 m 214 1068 l 0 1068 l 0 854 l 214 854 l 214 1068 m 854 1068 l 641 1068 l 641 854 l 854 854 l 854 1068 m 882 774 l 916 741 l 916 -275 l 808 -275 l 808 -381 l 434 -381 l 401 -348 l 399 -348 l 399 -275 l 327 -275 l 294 -241 l 292 -241 l 292 28 l 562 28 l 562 26 l 595 -7 l 595 -186 l 613 -186 l 613 580 l 541 580 l 507 613 l 506 613 l 506 775 l 882 775 l 882 774 m 241 774 l 275 741 l 275 -61 l 7 -61 l -26 -28 l -28 -28 l -28 775 l 241 775 l 241 774 m 241 1095 l 275 1061 l 275 793 l 7 793 l -26 827 l -28 827 l -28 1096 l 241 1096 l 241 1095 m 882 1095 l 916 1061 l 916 793 l 648 793 l 614 827 l 613 827 l 613 1096 l 882 1096 l 882 1095 z "},"":{"ha":961,"x_min":-28,"x_max":808,"o":"m 534 106 l 641 106 l 641 854 l 747 854 l 747 961 l 320 961 l 320 854 l 427 854 l 427 106 l 214 106 l 214 320 l 0 320 l 0 106 l 106 106 l 106 0 l 534 0 l 534 106 m 427 1175 l 534 1175 l 534 1068 l 747 1068 l 747 1175 l 641 1175 l 641 1282 l 320 1282 l 320 1175 l 214 1175 l 214 1068 l 427 1068 l 427 1175 m 775 987 l 808 954 l 808 793 l 702 793 l 702 45 l 595 45 l 595 -61 l 113 -61 l 80 -28 l 79 -28 l 79 45 l 7 45 l -26 79 l -28 79 l -28 348 l 241 348 l 241 347 l 275 313 l 275 134 l 399 134 l 399 793 l 327 793 l 294 827 l 292 827 l 292 989 l 775 989 l 775 987 m 506 1114 l 488 1114 l 488 1007 l 220 1007 l 187 1040 l 186 1040 l 186 1202 l 292 1202 l 292 1310 l 669 1310 l 669 1308 l 702 1275 l 702 1202 l 775 1202 l 775 1201 l 808 1168 l 808 1007 l 541 1007 l 507 1040 l 506 1040 l 506 1114 z "},"":{"ha":961,"x_min":-28,"x_max":808,"o":"m 534 -214 l 641 -214 l 641 747 l 320 747 l 320 641 l 427 641 l 427 -214 l 214 -214 l 214 0 l 0 0 l 0 -214 l 106 -214 l 106 -320 l 534 -320 l 534 -214 m 427 961 l 534 961 l 534 854 l 747 854 l 747 961 l 641 961 l 641 1068 l 534 1068 l 534 1175 l 427 1175 l 427 1068 l 320 1068 l 320 961 l 214 961 l 214 854 l 427 854 l 427 961 m 669 774 l 702 741 l 702 -275 l 595 -275 l 595 -381 l 113 -381 l 80 -348 l 79 -348 l 79 -275 l 7 -275 l -26 -241 l -28 -241 l -28 28 l 241 28 l 241 26 l 275 -7 l 275 -186 l 399 -186 l 399 580 l 327 580 l 294 613 l 292 613 l 292 775 l 669 775 l 669 774 m 506 900 l 488 900 l 488 793 l 220 793 l 187 827 l 186 827 l 186 989 l 292 989 l 292 1096 l 399 1096 l 399 1202 l 562 1202 l 562 1201 l 595 1168 l 595 1096 l 669 1096 l 669 1095 l 702 1061 l 702 989 l 775 989 l 775 987 l 808 954 l 808 793 l 541 793 l 507 827 l 506 827 l 506 900 z "},"":{"ha":961,"x_min":-28,"x_max":808,"o":"m 320 427 l 427 427 l 427 320 l 534 320 l 534 0 l 320 0 l 320 427 m 320 -106 l 427 -106 l 427 -214 l 106 -214 l 106 -320 l 534 -320 l 534 -214 l 641 -214 l 641 -106 l 534 -106 l 534 0 l 747 0 l 747 320 l 641 320 l 641 427 l 534 427 l 534 641 l 641 641 l 641 747 l 747 747 l 747 1068 l 534 1068 l 534 747 l 427 747 l 427 641 l 320 641 l 320 1068 l 0 1068 l 0 961 l 106 961 l 106 106 l 0 106 l 0 0 l 320 0 l 320 -106 m 399 366 l 381 366 l 381 28 l 506 28 l 506 259 l 434 259 l 401 292 l 399 292 l 399 366 m 292 -134 l 292 -61 l 7 -61 l -26 -28 l -28 -28 l -28 134 l 79 134 l 79 900 l 7 900 l -26 933 l -28 933 l -28 1096 l 348 1096 l 348 1095 l 381 1061 l 381 669 l 399 669 l 399 775 l 506 775 l 506 1096 l 775 1096 l 775 1095 l 808 1061 l 808 686 l 702 686 l 702 580 l 595 580 l 595 455 l 669 455 l 669 454 l 702 420 l 702 348 l 775 348 l 775 347 l 808 313 l 808 -61 l 595 -61 l 595 -79 l 669 -79 l 669 -80 l 702 -113 l 702 -275 l 595 -275 l 595 -381 l 113 -381 l 80 -348 l 79 -348 l 79 -186 l 399 -186 l 399 -168 l 327 -168 l 294 -134 l 292 -134 z "},"":{"ha":961,"x_min":-28,"x_max":808,"o":"m 320 320 l 427 320 l 427 214 l 534 214 l 534 0 l 320 0 l 320 320 m 320 -106 l 427 -106 l 427 -214 l 106 -214 l 106 -320 l 534 -320 l 534 -214 l 641 -214 l 641 -106 l 534 -106 l 534 0 l 747 0 l 747 214 l 641 214 l 641 320 l 534 320 l 534 534 l 641 534 l 641 641 l 747 641 l 747 747 l 534 747 l 534 641 l 427 641 l 427 534 l 320 534 l 320 1068 l 0 1068 l 0 961 l 106 961 l 106 106 l 0 106 l 0 0 l 320 0 l 320 -106 m 399 259 l 381 259 l 381 28 l 506 28 l 506 153 l 434 153 l 401 186 l 399 186 l 399 259 m 292 -134 l 292 -61 l 7 -61 l -26 -28 l -28 -28 l -28 134 l 79 134 l 79 900 l 7 900 l -26 933 l -28 933 l -28 1096 l 348 1096 l 348 1095 l 381 1061 l 381 562 l 399 562 l 399 669 l 506 669 l 506 775 l 775 775 l 775 774 l 808 741 l 808 580 l 702 580 l 702 473 l 595 473 l 595 348 l 669 348 l 669 347 l 702 313 l 702 241 l 775 241 l 775 240 l 808 207 l 808 -61 l 595 -61 l 595 -79 l 669 -79 l 669 -80 l 702 -113 l 702 -275 l 595 -275 l 595 -381 l 113 -381 l 80 -348 l 79 -348 l 79 -186 l 399 -186 l 399 -168 l 327 -168 l 294 -134 l 292 -134 z "},"":{"ha":961,"x_min":-28,"x_max":808,"o":"m 320 320 l 427 320 l 427 214 l 534 214 l 534 0 l 747 0 l 747 214 l 641 214 l 641 320 l 534 320 l 534 427 l 641 427 l 641 534 l 747 534 l 747 747 l 534 747 l 534 534 l 427 534 l 427 427 l 320 427 l 320 747 l 0 747 l 0 641 l 106 641 l 106 106 l 0 106 l 0 0 l 320 0 l 320 320 m 399 259 l 381 259 l 381 -61 l 7 -61 l -26 -28 l -28 -28 l -28 134 l 79 134 l 79 580 l 7 580 l -26 613 l -28 613 l -28 775 l 348 775 l 348 774 l 381 741 l 381 455 l 399 455 l 399 562 l 506 562 l 506 775 l 775 775 l 775 774 l 808 741 l 808 473 l 702 473 l 702 366 l 595 366 l 595 348 l 669 348 l 669 347 l 702 313 l 702 241 l 775 241 l 775 240 l 808 207 l 808 -61 l 541 -61 l 507 -28 l 506 -28 l 506 153 l 434 153 l 401 186 l 399 186 l 399 259 z "},"":{"ha":961,"x_min":-28,"x_max":808,"o":"m 641 961 l 747 961 l 747 1068 l 534 1068 l 534 961 l 427 961 l 427 1068 l 0 1068 l 0 961 l 106 961 l 106 106 l 0 106 l 0 0 l 747 0 l 747 320 l 641 320 l 641 214 l 534 214 l 534 106 l 320 106 l 320 961 l 427 961 l 427 854 l 641 854 l 641 961 m 775 1095 l 808 1061 l 808 900 l 702 900 l 702 793 l 434 793 l 401 827 l 399 827 l 399 900 l 381 900 l 381 134 l 506 134 l 506 241 l 613 241 l 613 348 l 775 348 l 775 347 l 808 313 l 808 -61 l 7 -61 l -26 -28 l -28 -28 l -28 134 l 79 134 l 79 900 l 7 900 l -26 933 l -28 933 l -28 1096 l 455 1096 l 455 1095 l 488 1061 l 488 989 l 506 989 l 506 1096 l 775 1096 l 775 1095 z "},"":{"ha":961,"x_min":-28,"x_max":808,"o":"m 427 106 l 320 106 l 320 1068 l 0 1068 l 0 961 l 106 961 l 106 106 l 0 106 l 0 0 l 427 0 l 427 106 m 641 961 l 747 961 l 747 1068 l 534 1068 l 534 961 l 427 961 l 427 854 l 641 854 l 641 961 m 455 133 l 488 100 l 488 -61 l 7 -61 l -26 -28 l -28 -28 l -28 134 l 79 134 l 79 900 l 7 900 l -26 933 l -28 933 l -28 1096 l 348 1096 l 348 1095 l 381 1061 l 381 134 l 455 134 l 455 133 m 775 1095 l 808 1061 l 808 900 l 702 900 l 702 793 l 434 793 l 401 827 l 399 827 l 399 989 l 506 989 l 506 1096 l 775 1096 l 775 1095 z "},"":{"ha":961,"x_min":-28,"x_max":808,"o":"m 534 -214 l 641 -214 l 641 -106 l 534 -106 l 534 0 l 747 0 l 747 320 l 641 320 l 641 214 l 534 214 l 534 106 l 320 106 l 320 961 l 427 961 l 427 1068 l 0 1068 l 0 961 l 106 961 l 106 106 l 0 106 l 0 0 l 320 0 l 320 -106 l 427 -106 l 427 -214 l 106 -214 l 106 -320 l 534 -320 l 534 -214 m 669 -80 l 702 -113 l 702 -275 l 595 -275 l 595 -381 l 113 -381 l 80 -348 l 79 -348 l 79 -186 l 399 -186 l 399 -168 l 327 -168 l 294 -134 l 292 -134 l 292 -61 l 7 -61 l -26 -28 l -28 -28 l -28 134 l 79 134 l 79 900 l 7 900 l -26 933 l -28 933 l -28 1096 l 455 1096 l 455 1095 l 488 1061 l 488 900 l 381 900 l 381 134 l 506 134 l 506 241 l 613 241 l 613 348 l 775 348 l 775 347 l 808 313 l 808 -61 l 595 -61 l 595 -79 l 669 -79 l 669 -80 z "},"":{"ha":961,"x_min":79,"x_max":702,"o":"m 534 -214 l 641 -214 l 641 -106 l 534 -106 l 534 0 l 641 0 l 641 106 l 534 106 l 534 1068 l 214 1068 l 214 961 l 320 961 l 320 106 l 214 106 l 214 0 l 320 0 l 320 -106 l 427 -106 l 427 -214 l 106 -214 l 106 -320 l 534 -320 l 534 -214 m 669 -80 l 702 -113 l 702 -275 l 595 -275 l 595 -381 l 113 -381 l 80 -348 l 79 -348 l 79 -186 l 399 -186 l 399 -168 l 327 -168 l 294 -134 l 292 -134 l 292 -61 l 220 -61 l 187 -28 l 186 -28 l 186 134 l 292 134 l 292 900 l 220 900 l 187 933 l 186 933 l 186 1096 l 562 1096 l 562 1095 l 595 1061 l 595 134 l 669 134 l 669 133 l 702 100 l 702 -61 l 595 -61 l 595 -79 l 669 -79 l 669 -80 z "},"":{"ha":961,"x_min":-28,"x_max":808,"o":"m 641 961 l 747 961 l 747 1175 l 534 1175 l 534 961 l 427 961 l 427 1068 l 0 1068 l 0 961 l 106 961 l 106 106 l 0 106 l 0 0 l 747 0 l 747 320 l 641 320 l 641 214 l 534 214 l 534 106 l 320 106 l 320 961 l 427 961 l 427 854 l 641 854 l 641 961 m 775 1201 l 808 1168 l 808 900 l 702 900 l 702 793 l 434 793 l 401 827 l 399 827 l 399 900 l 381 900 l 381 134 l 506 134 l 506 241 l 613 241 l 613 348 l 775 348 l 775 347 l 808 313 l 808 -61 l 7 -61 l -26 -28 l -28 -28 l -28 134 l 79 134 l 79 900 l 7 900 l -26 933 l -28 933 l -28 1096 l 455 1096 l 455 1095 l 488 1061 l 488 989 l 506 989 l 506 1202 l 775 1202 l 775 1201 z "},"":{"ha":961,"x_min":-28,"x_max":808,"o":"m 427 106 l 320 106 l 320 1068 l 0 1068 l 0 961 l 106 961 l 106 106 l 0 106 l 0 0 l 427 0 l 427 106 m 641 961 l 747 961 l 747 1175 l 534 1175 l 534 961 l 427 961 l 427 854 l 641 854 l 641 961 m 455 133 l 488 100 l 488 -61 l 7 -61 l -26 -28 l -28 -28 l -28 134 l 79 134 l 79 900 l 7 900 l -26 933 l -28 933 l -28 1096 l 348 1096 l 348 1095 l 381 1061 l 381 134 l 455 134 l 455 133 m 775 1201 l 808 1168 l 808 900 l 702 900 l 702 793 l 434 793 l 401 827 l 399 827 l 399 989 l 506 989 l 506 1202 l 775 1202 l 775 1201 z "},"":{"ha":961,"x_min":-28,"x_max":808,"o":"m 747 747 l 534 747 l 534 534 l 747 534 l 747 747 m 747 320 l 641 320 l 641 214 l 534 214 l 534 106 l 320 106 l 320 961 l 427 961 l 427 1068 l 0 1068 l 0 961 l 106 961 l 106 106 l 0 106 l 0 0 l 747 0 l 747 320 m 775 347 l 808 313 l 808 -61 l 7 -61 l -26 -28 l -28 -28 l -28 134 l 79 134 l 79 900 l 7 900 l -26 933 l -28 933 l -28 1096 l 455 1096 l 455 1095 l 488 1061 l 488 900 l 381 900 l 381 134 l 506 134 l 506 241 l 613 241 l 613 348 l 775 348 l 775 347 m 775 774 l 808 741 l 808 473 l 541 473 l 507 506 l 506 506 l 506 775 l 775 775 l 775 774 z "},"":{"ha":961,"x_min":79,"x_max":808,"o":"m 747 641 l 534 641 l 534 427 l 747 427 l 747 641 m 534 106 l 427 106 l 427 1068 l 106 1068 l 106 961 l 214 961 l 214 106 l 106 106 l 106 0 l 534 0 l 534 106 m 562 133 l 595 100 l 595 -61 l 113 -61 l 80 -28 l 79 -28 l 79 134 l 186 134 l 186 900 l 113 900 l 80 933 l 79 933 l 79 1096 l 455 1096 l 455 1095 l 488 1061 l 488 134 l 562 134 l 562 133 m 775 667 l 808 634 l 808 366 l 541 366 l 507 399 l 506 399 l 506 669 l 775 669 l 775 667 z "},"":{"ha":961,"x_min":-28,"x_max":808,"o":"m 747 320 l 641 320 l 641 214 l 534 214 l 534 106 l 320 106 l 320 534 l 427 534 l 427 641 l 534 641 l 534 747 l 641 747 l 641 961 l 534 961 l 534 854 l 427 854 l 427 747 l 320 747 l 320 961 l 427 961 l 427 1068 l 0 1068 l 0 961 l 106 961 l 106 534 l 0 534 l 0 320 l 106 320 l 106 106 l 0 106 l 0 0 l 747 0 l 747 320 m 775 347 l 808 313 l 808 -61 l 7 -61 l -26 -28 l -28 -28 l -28 134 l 79 134 l 79 259 l 7 259 l -26 292 l -28 292 l -28 562 l 79 562 l 79 900 l 7 900 l -26 933 l -28 933 l -28 1096 l 455 1096 l 455 1095 l 488 1061 l 488 900 l 381 900 l 381 775 l 399 775 l 399 882 l 506 882 l 506 989 l 669 989 l 669 987 l 702 954 l 702 686 l 595 686 l 595 580 l 488 580 l 488 473 l 381 473 l 381 134 l 506 134 l 506 241 l 613 241 l 613 348 l 775 348 l 775 347 z "},"":{"ha":961,"x_min":79,"x_max":808,"o":"m 641 106 l 534 106 l 534 641 l 641 641 l 641 747 l 747 747 l 747 961 l 641 961 l 641 854 l 534 854 l 534 1068 l 214 1068 l 214 961 l 320 961 l 320 534 l 214 534 l 214 427 l 106 427 l 106 214 l 214 214 l 214 320 l 320 320 l 320 106 l 214 106 l 214 0 l 641 0 l 641 106 m 669 133 l 702 100 l 702 -61 l 220 -61 l 187 -28 l 186 -28 l 186 134 l 292 134 l 292 259 l 275 259 l 275 153 l 113 153 l 80 186 l 79 186 l 79 455 l 186 455 l 186 562 l 292 562 l 292 900 l 220 900 l 187 933 l 186 933 l 186 1096 l 562 1096 l 562 1095 l 595 1061 l 595 882 l 613 882 l 613 989 l 775 989 l 775 987 l 808 954 l 808 686 l 702 686 l 702 580 l 595 580 l 595 134 l 669 134 l 669 133 z "},"":{"ha":961,"x_min":-28,"x_max":808,"o":"m 214 534 l 320 534 l 320 427 l 427 427 l 427 320 l 534 320 l 534 0 l 747 0 l 747 961 l 534 961 l 534 641 l 427 641 l 427 747 l 320 747 l 320 854 l 214 854 l 214 961 l 0 961 l 0 0 l 214 0 l 214 534 m 534 1175 l 641 1175 l 641 1282 l 427 1282 l 427 1175 l 320 1175 l 320 1068 l 534 1068 l 534 1175 m 292 473 l 275 473 l 275 -61 l 7 -61 l -26 -28 l -28 -28 l -28 989 l 241 989 l 241 987 l 275 954 l 275 882 l 348 882 l 348 881 l 381 848 l 381 775 l 455 775 l 455 774 l 488 741 l 488 669 l 506 669 l 506 989 l 775 989 l 775 987 l 808 954 l 808 -61 l 541 -61 l 507 -28 l 506 -28 l 506 259 l 434 259 l 401 292 l 399 292 l 399 366 l 327 366 l 294 399 l 292 399 l 292 473 m 669 1308 l 702 1275 l 702 1114 l 595 1114 l 595 1007 l 327 1007 l 294 1040 l 292 1040 l 292 1202 l 399 1202 l 399 1310 l 669 1310 l 669 1308 z "},"":{"ha":961,"x_min":-28,"x_max":808,"o":"m 747 641 l 641 641 l 641 747 l 320 747 l 320 641 l 214 641 l 214 747 l 0 747 l 0 641 l 106 641 l 106 0 l 320 0 l 320 641 l 534 641 l 534 0 l 747 0 l 747 641 m 427 961 l 534 961 l 534 1068 l 641 1068 l 641 1175 l 427 1175 l 427 1068 l 320 1068 l 320 961 l 214 961 l 214 854 l 427 854 l 427 961 m 775 667 l 808 634 l 808 -61 l 541 -61 l 507 -28 l 506 -28 l 506 580 l 381 580 l 381 -61 l 113 -61 l 80 -28 l 79 -28 l 79 580 l 7 580 l -26 613 l -28 613 l -28 775 l 241 775 l 241 774 l 275 741 l 275 669 l 292 669 l 292 775 l 669 775 l 669 774 l 702 741 l 702 669 l 775 669 l 775 667 m 669 1201 l 702 1168 l 702 1007 l 595 1007 l 595 900 l 488 900 l 488 793 l 220 793 l 187 827 l 186 827 l 186 989 l 292 989 l 292 1096 l 399 1096 l 399 1202 l 669 1202 l 669 1201 z "},"":{"ha":961,"x_min":-28,"x_max":808,"o":"m 214 641 l 320 641 l 320 534 l 427 534 l 427 427 l 534 427 l 534 0 l 320 0 l 320 -106 l 427 -106 l 427 -214 l 106 -214 l 106 -320 l 534 -320 l 534 -214 l 641 -214 l 641 -106 l 534 -106 l 534 0 l 747 0 l 747 1068 l 534 1068 l 534 747 l 427 747 l 427 854 l 320 854 l 320 961 l 214 961 l 214 1068 l 0 1068 l 0 0 l 214 0 l 214 641 m 292 580 l 275 580 l 275 -61 l 7 -61 l -26 -28 l -28 -28 l -28 1096 l 241 1096 l 241 1095 l 275 1061 l 275 989 l 348 989 l 348 987 l 381 954 l 381 882 l 455 882 l 455 881 l 488 848 l 488 775 l 506 775 l 506 1096 l 775 1096 l 775 1095 l 808 1061 l 808 -61 l 595 -61 l 595 -79 l 669 -79 l 669 -80 l 702 -113 l 702 -275 l 595 -275 l 595 -381 l 113 -381 l 80 -348 l 79 -348 l 79 -186 l 399 -186 l 399 -168 l 327 -168 l 294 -134 l 292 -134 l 292 28 l 506 28 l 506 366 l 434 366 l 401 399 l 399 399 l 399 473 l 327 473 l 294 506 l 292 506 l 292 580 z "},"":{"ha":961,"x_min":-28,"x_max":808,"o":"m 320 641 l 534 641 l 534 0 l 320 0 l 320 641 m 214 747 l 0 747 l 0 641 l 106 641 l 106 0 l 320 0 l 320 -106 l 427 -106 l 427 -214 l 106 -214 l 106 -320 l 534 -320 l 534 -214 l 641 -214 l 641 -106 l 534 -106 l 534 0 l 747 0 l 747 641 l 641 641 l 641 747 l 320 747 l 320 641 l 214 641 l 214 747 m 506 580 l 381 580 l 381 28 l 506 28 l 506 580 m 241 775 l 241 774 l 275 741 l 275 669 l 292 669 l 292 775 l 669 775 l 669 774 l 702 741 l 702 669 l 775 669 l 775 667 l 808 634 l 808 -61 l 595 -61 l 595 -79 l 669 -79 l 669 -80 l 702 -113 l 702 -275 l 595 -275 l 595 -381 l 113 -381 l 80 -348 l 79 -348 l 79 -186 l 399 -186 l 399 -168 l 327 -168 l 294 -134 l 292 -134 l 292 -61 l 113 -61 l 80 -28 l 79 -28 l 79 580 l 7 580 l -26 613 l -28 613 l -28 775 l 241 775 z "}}}
